<svg width="78" height="79" viewBox="0 0 78 79" fill="none" xmlns="http://www.w3.org/2000/svg">
<path d="M34.7994 47.3208C43.2823 36.4805 46.6763 28.6482 48.4143 22.2549C49.3313 28.7726 44.9793 37.6357 36.3609 48.3973C36.1319 48.6961 35.9338 49.0155 35.7492 49.3433C35.7012 49.4312 35.4361 49.6347 35.3547 49.6949C34.5895 50.2714 34.0662 52.083 32.5643 52.8605C32.8257 53.8442 32.1433 54.6861 31.4972 54.9131C30.8239 58.5656 26.6121 55.5669 30.083 54.0688C30.0598 52.528 31.5864 52.1653 31.6878 52.2743C32.0554 50.3938 33.0424 49.8498 33.7982 48.7375L34.7994 47.3208Z" fill="#FFEEA9"/>
<path d="M33.3308 46.3141L37.6788 49.2965C38.0041 49.5188 38.0858 49.9609 37.8635 50.2862C37.6411 50.6115 37.1991 50.6931 36.8738 50.4708L32.5258 47.4884C32.2005 47.266 32.1189 46.824 32.3412 46.4987C32.5635 46.1734 33.0055 46.0918 33.3308 46.3141Z" fill="#FFEEA9"/>
<path d="M46.7328 43.1284C33.3339 39.9754 25.7871 35.9867 20.4324 32.0851C23.7932 37.7443 32.7323 41.9382 46.1877 44.9451C46.5532 45.035 46.9075 45.1603 47.2566 45.3006C47.3491 45.3392 47.6832 45.3322 47.7844 45.3282C48.742 45.2995 50.2833 46.3858 51.9415 46.0531C52.3527 46.9842 53.4118 47.2143 54.0579 46.9873C56.8677 49.4162 58.2785 44.4422 54.6333 45.444C53.6878 44.2273 52.2698 44.899 52.2588 45.0475C50.7959 43.8101 49.6855 44.0029 48.4001 43.6077L46.7328 43.1284Z" fill="#FFEEA9"/>
<path d="M47.2492 41.4245L45.7219 46.471C45.6071 46.8479 45.8198 47.2439 46.1967 47.3586C46.5737 47.4734 46.9696 47.2607 47.0844 46.8838L48.6118 41.8372C48.7266 41.4603 48.5138 41.0643 48.1369 40.9496C47.76 40.8348 47.364 41.0475 47.2492 41.4245Z" fill="#FFEEA9"/>
<path d="M34.5999 51.4804C35.5158 50.2937 35.7835 48.9652 35.1978 48.5131C34.612 48.061 33.3947 48.6565 32.4787 49.8432C31.5628 51.0298 31.2951 52.3583 31.8808 52.8104C32.4666 53.2626 33.6839 52.6671 34.5999 51.4804Z" fill="#FFEEA9"/>
<path d="M52.4414 45.5791C52.6157 44.86 51.5759 43.9908 50.1191 43.6377C48.6622 43.2846 47.3399 43.5814 47.1656 44.3005C46.9913 45.0196 48.0311 45.8888 49.4879 46.2418C50.9448 46.5949 52.2671 46.2982 52.4414 45.5791Z" fill="#FFEEA9"/>
<path d="M8.54515 41.7757C8.62349 41.4747 8.88711 41.4242 9.12739 41.3371C9.14302 41.187 9.1665 41.0368 9.17112 40.8852C9.17669 40.7439 9.09534 40.5647 9.26926 40.4984C9.28564 40.4926 9.31494 40.5086 9.3386 40.5161C9.25437 37.6714 9.58421 34.8601 10.2957 32.1619C10.2917 32.1581 10.2862 32.1574 10.2798 32.1543C10.0954 32.1008 9.90855 32.0481 9.72407 31.9946C9.62968 31.9804 9.53377 31.9694 9.43869 31.9607C9.40978 31.9683 9.38004 31.9734 9.34879 31.9818C9.2771 32.2568 9.21642 32.5332 9.15258 32.8081C9.28929 32.7706 9.43233 32.7361 9.49635 32.9108C9.56049 33.0934 9.40707 33.1657 9.28105 33.2337C9.20171 33.2773 9.11953 33.2904 9.03862 33.2846C8.4363 36.0839 8.22951 38.9834 8.44835 41.9044C8.48062 41.8615 8.50422 41.8164 8.54047 41.7774L8.54515 41.7757ZM8.6744 36.9338C8.70433 36.7944 8.75836 36.6413 8.95043 36.679C9.09764 36.7088 9.21657 36.7854 9.21163 36.9659C9.17095 37.1196 9.07611 37.2239 8.91194 37.2132C8.74859 37.2048 8.63725 37.1125 8.67522 36.9361L8.6744 36.9338Z" fill="#FFEEA9"/>
<path d="M53.2277 13.9187L53.2781 13.8379C53.2558 13.8641 53.2303 13.8888 53.208 13.9151C53.2166 13.9173 53.2198 13.9188 53.2285 13.921L53.2277 13.9187Z" fill="#FFEEA9"/>
<path d="M64.7471 25.6447C64.7621 25.65 64.7778 25.6497 64.7959 25.6565C64.9954 25.618 65.2018 25.6217 65.2293 25.8645C65.2473 26.0055 65.1252 26.0773 64.9877 26.1125C65.6025 27.3086 66.1506 28.5545 66.6087 29.8583C70.5025 40.942 67.3508 52.8178 59.5161 60.5851C59.6474 60.5547 59.7971 60.5468 59.9771 60.5651C60.2664 60.595 60.4116 60.7464 60.5106 60.9457C60.6418 60.8102 60.7698 60.6732 60.9002 60.5353C60.844 60.2632 60.9346 60.0867 61.1922 60.0041C61.2749 59.9777 61.3479 59.9757 61.4163 59.9832C61.7077 59.66 61.9896 59.3321 62.2659 58.9958C62.2019 58.9709 62.1494 58.9262 62.1527 58.8383C62.1549 58.7771 62.2092 58.6922 62.2636 58.66C62.4004 58.5777 62.5429 58.5119 62.6881 58.4609C63.3147 57.6622 63.9025 56.8351 64.4435 55.9797C64.3692 55.7534 64.4282 55.517 64.522 55.2974C64.6127 55.0841 64.8235 55.0179 65.0398 55.005C65.6577 53.9491 66.2129 52.8573 66.7002 51.7368C66.5922 51.6538 66.5158 51.5412 66.4866 51.3832C66.4317 51.0922 66.522 50.8553 66.7786 50.7099C66.903 50.6373 67.045 50.5848 67.1947 50.5243C68.893 46.1067 69.5734 41.2842 69.0597 36.4235C69.039 36.4019 69.0106 36.396 68.9953 36.3673C68.8105 36.0509 68.7777 35.7179 68.9299 35.3804C68.9315 35.3772 68.9345 35.3709 68.936 35.3677C68.7405 33.9954 68.4492 32.6198 68.0561 31.2537C68.0049 31.1902 67.9889 31.1222 68.0018 31.0467C67.854 30.5437 67.6937 30.0425 67.5177 29.5416C67.1033 28.3618 66.6158 27.2287 66.0741 26.1358C66.0046 26.1102 65.9449 26.0602 65.9185 25.9774C65.902 25.9306 65.921 25.8871 65.9289 25.8423C65.7635 25.5138 65.5928 25.1925 65.415 24.8736C65.3759 24.9268 65.3176 24.9631 65.2346 24.9738C65.2072 24.9782 65.1501 24.943 65.1482 24.9227C65.1352 24.7957 65.1902 24.7054 65.2857 24.6403C62.8143 20.2702 59.3534 16.6842 55.2931 14.0714C55.0384 14.2897 54.7829 14.5057 54.5275 14.7217C58.732 17.3706 62.2945 21.0813 64.7526 25.6454L64.7471 25.6447Z" fill="#FFEEA9"/>
<path d="M10.8717 27.5811C10.8717 27.5811 10.8787 27.5787 10.8834 27.577C11.0944 28.5968 10.9435 29.0206 10.2461 29.1315C9.97547 29.8656 9.73877 30.6141 9.52573 31.37C9.53522 31.3746 9.54623 31.376 9.55654 31.3829C9.55654 31.3829 9.55654 31.3829 9.55572 31.3805C9.6243 31.3512 9.69547 31.3367 9.76759 31.3324C9.89285 31.3147 9.99312 31.3531 10.0685 31.4554C10.2079 31.3881 10.2899 31.12 10.5083 31.3299C10.5176 31.3266 10.5278 31.3256 10.538 31.3247C13.1329 22.5424 19.7524 15.0811 29.0313 11.8214C31.4681 10.9653 33.9442 10.4531 36.4056 10.251C36.3792 10.1236 36.385 9.99792 36.4601 9.88215C36.6307 9.61183 36.8807 9.58976 37.1579 9.70536C37.3399 9.65456 37.5104 9.6683 37.6654 9.78743L37.6701 9.78578C37.7451 9.76731 37.8185 9.74416 37.8927 9.72335C37.932 9.67799 37.9792 9.64035 38.0313 9.60891C38.011 9.46878 37.9649 9.3377 37.9236 9.20497C34.8593 9.29272 31.76 9.84243 28.717 10.9115C20.3814 13.8398 14.1238 20.0485 10.8717 27.5811Z" fill="#FFEEA9"/>
<path d="M38.4491 9.97491C38.4446 10.037 38.4378 10.0999 38.4341 10.1643C39.4266 10.1522 40.4135 10.192 41.3911 10.2799C41.4378 10.061 41.6127 9.8628 41.8394 9.8568C41.9437 9.85434 42.0503 9.89578 42.0393 9.89439C42.1563 10.0926 42.1711 10.232 42.1392 10.351C45.8097 10.7761 49.3517 11.8906 52.5846 13.6002C52.6103 13.5912 52.6344 13.5775 52.661 13.5707C52.648 13.4964 52.6374 13.4213 52.6291 13.3453C52.5478 13.1661 52.5191 12.9947 52.7021 12.8568C52.7595 12.8182 52.8234 12.7905 52.8923 12.7769C52.9934 12.8176 53.0906 12.8623 53.1924 12.8976C53.0913 12.8568 52.991 12.8184 52.8923 12.7769C53.0189 12.7481 53.117 12.7952 53.1924 12.8976C53.2942 13.0827 53.3097 13.2613 53.1491 13.4256L53.2798 13.8425C53.3702 13.9054 53.4592 13.9714 53.5497 14.0343C53.6554 14.0734 53.762 14.1149 53.8678 14.154C54.1648 14.0338 54.4643 13.9207 54.7096 13.7057C51.7845 11.9143 48.5708 10.6187 45.2062 9.88894C45.1966 9.92911 45.1847 9.97011 45.1585 10.0003C45.0444 10.1246 44.8878 10.0981 44.7498 10.0046C44.7189 9.98388 44.6871 9.96085 44.6615 9.93302C44.6128 9.87652 44.5687 9.81838 44.5284 9.75625C42.548 9.37381 40.5206 9.18672 38.4737 9.20632C38.5206 9.39232 38.555 9.58009 38.5464 9.78032C38.5436 9.84706 38.4827 9.91317 38.4484 9.98042L38.4491 9.97491Z" fill="#FFEEA9"/>
<path d="M58.9055 61.4149C58.9254 61.2843 58.9607 61.1825 58.9967 61.0831C57.7763 62.235 56.4538 63.2913 55.0275 64.2315C55.0299 64.2385 55.0355 64.2392 55.0379 64.2462C55.0964 64.4203 54.9231 64.6232 54.5415 64.7494C54.496 64.7548 54.3445 64.7949 54.1976 64.7886C54.1843 64.7881 54.1724 64.7843 54.1583 64.7814C52.4263 65.8396 50.5606 66.7343 48.5709 67.4333C40.6988 70.1988 32.4304 69.4036 25.5145 65.9085C25.5079 66.0318 25.4514 66.1332 25.3095 66.1857C25.1519 66.2463 24.9876 66.1752 24.9638 66.0178C24.9437 65.8855 25.0086 65.7786 25.1102 65.7008C24.1495 65.1968 23.2139 64.6445 22.3143 64.0376C22.3464 64.0841 22.3649 64.1591 22.3468 64.2049C22.325 64.2626 22.2477 64.3344 22.1889 64.3393C21.8919 64.3621 21.596 64.3583 21.3327 64.1852L21.3193 64.1846C21.1704 64.2396 21.0786 64.1955 21.0486 64.0352C20.9966 63.9771 20.9736 63.9116 20.9802 63.833C20.8442 63.6257 20.8824 63.4124 20.9748 63.2038C20.9876 63.173 21.0028 63.1414 21.0172 63.1074C20.0044 62.3429 19.0392 61.5118 18.1288 60.6194C18.134 60.799 18.101 60.9447 18.0073 61.067C17.9143 61.1917 17.7814 61.27 17.6095 61.2147C17.458 61.1653 17.3398 61.0832 17.2691 60.9345C17.1904 60.7702 17.24 60.6344 17.3678 60.5343C17.4871 60.4398 17.6257 60.3701 17.7571 60.295C17.7688 60.2909 17.7805 60.2868 17.7922 60.2827C14.8383 57.2864 12.4786 53.616 10.9943 49.3909C10.0461 46.6919 9.52245 43.9438 9.37584 41.221C9.29404 41.2576 9.2106 41.2895 9.13196 41.3277L9.12962 41.3285C9.12391 41.5593 9.02895 41.7531 8.86838 41.9173C8.82162 42.1809 8.74253 42.4348 8.53514 42.6155C8.53046 42.6172 8.52344 42.6196 8.51875 42.6213C8.75382 44.9896 9.26287 47.3668 10.086 49.7099C13.3507 59.0029 20.6974 65.7153 29.4106 68.5553C29.5045 68.4408 29.6256 68.3588 29.7914 68.3742C30.0091 68.395 30.23 68.4699 30.43 68.5601C30.7335 68.698 30.9496 69.0061 31.3155 69.0222C31.5301 68.8994 31.7456 68.8842 31.8828 69.1174C31.9312 69.2029 31.9923 69.242 32.0542 69.2833C32.14 69.3031 32.2212 69.3246 32.307 69.3444C32.3478 69.3406 32.3779 69.3589 32.4232 69.3457C32.3417 69.1587 32.3201 68.9848 32.5165 68.8553C33.0829 68.701 33.2156 68.8017 33.1116 69.3142C33.0993 69.3764 33.0704 69.4365 33.0439 69.4957C34.3821 69.7567 35.74 69.9318 37.1113 70.0102C36.9453 69.9791 36.7901 69.8443 36.7351 69.6427C36.6925 69.4841 36.7372 69.3343 36.8944 69.258C37.142 69.1395 37.4808 69.2729 37.5607 69.5078C37.6097 69.722 37.5189 69.8828 37.3408 69.9822C37.2988 70.0048 37.2549 70.0071 37.2095 70.0125C37.6281 70.0364 38.0489 70.0516 38.4696 70.0589C38.486 69.9559 38.5269 69.8626 38.5338 69.755C38.5419 69.6286 38.6671 69.5583 38.7826 69.5651C38.887 69.5704 39.0031 69.6164 39.0858 69.6794C39.2041 69.7693 39.2324 69.9172 39.2102 70.0486C42.4275 70.007 45.6884 69.461 48.886 68.3377C50.8476 67.6486 52.6924 66.7769 54.4116 65.7496C54.4675 65.5643 54.5857 65.4965 54.8171 65.4966C56.3835 64.5283 57.8442 63.4313 59.1829 62.2194C58.9795 62.0148 58.847 61.7721 58.9007 61.4087L58.9055 61.4149ZM11.6452 52.0969C11.5957 52.0985 11.5451 52.0217 11.4965 51.9809C11.4843 51.8037 11.5889 51.7196 11.7456 51.7093C11.7919 51.7062 11.8825 51.7769 11.8854 51.8153C11.8911 51.9737 11.8186 52.0965 11.646 52.0993L11.6452 52.0969Z" fill="#FFEEA9"/>
</svg>
