<svg width="60" height="62" viewBox="0 0 60 62" fill="none" xmlns="http://www.w3.org/2000/svg">
<path d="M43.9424 46.1833C43.9155 45.2778 43.3873 44.3103 43.2952 43.4337C43.1774 42.2976 43.3606 41.0573 43.3314 39.8895C42.9603 40.4338 42.5172 40.9248 42.0033 41.3417C41.9214 41.4085 41.8079 41.4233 41.7267 41.3427C41.6573 41.2738 41.6437 41.1329 41.7256 41.0661C42.3605 40.5509 42.8801 39.9278 43.2872 39.2242C43.2791 39.1564 43.271 39.0873 43.2616 39.0207C43.085 37.8614 42.4799 36.928 42.1314 35.8437C41.8132 34.8558 41.7378 33.9087 41.5032 32.9466C41.2686 31.9819 40.9652 30.057 39.5925 30.4132C39.1179 31.5515 39.1706 32.7322 38.619 33.8604C37.8537 35.4253 36.7493 36.3389 35.4457 34.6031C35.0837 34.1217 33.799 31.5115 33.7343 30.9663C33.6008 29.8251 34.2887 28.8464 35.2628 28.3234C35.7694 28.0514 36.42 27.9289 36.92 27.6321C37.4799 27.2998 37.7962 26.7584 38.313 26.4185C39.081 25.9132 40.6381 25.679 40.7056 24.5357C40.7191 24.3086 40.5915 24.0429 40.6022 23.7714C40.6532 22.4206 42.3336 22.3308 42.4216 21.7916C41.7898 20.69 40.0103 19.7637 38.7317 19.8142C37.628 19.8575 36.7784 20.8616 35.5772 20.348C35.2832 20.2226 35.0547 19.8528 34.7737 19.7195C33.5383 19.133 33.2502 20.5773 32.4641 21.1323C32.0398 21.4314 29.4201 21.9136 28.8108 21.9303C28.0736 21.9513 26.2498 21.3658 25.9118 20.6702C25.7606 20.3589 25.7119 19.9024 25.6956 19.3844C25.5362 19.3289 25.5339 19.0797 25.689 19.0191C25.6789 17.7142 25.7722 16.1663 25.0183 15.5558C23.7199 14.5038 24.0357 16.5826 22.6816 16.3437C21.0703 16.06 22.0949 13.3746 19.805 13.7617C19.3069 13.8458 18.8863 14.4333 18.3378 13.9799C18.0957 13.7812 18.1677 13.4964 17.6255 13.3275C15.8331 12.768 16.745 14.4452 16.5957 14.9769C16.5725 15.0605 15.6388 15.9213 15.465 16.2012C14.3133 18.0611 15.5975 18.1098 16.8255 18.8424C17.2532 19.0979 17.642 19.4291 18.0774 19.6728C19.4191 20.4259 19.84 19.9324 19.6355 22.0927C18.9558 22.1371 17.8416 22.1791 17.3358 22.6651C17.094 22.897 16.9082 23.4562 16.6443 23.7312C16.2362 24.1555 15.8708 24.1491 15.5 24.8016C13.6632 28.0407 18.6326 27.1021 19.111 28.7001C19.5312 30.1025 17.8804 31.0992 17.989 32.5667C18.0083 32.8329 18.0785 33.104 18.18 33.379C18.81 33.3257 19.412 33.0873 19.9734 32.8059C20.1974 32.6928 20.397 33.03 20.1717 33.1431C19.5947 33.4324 18.9797 33.6774 18.3367 33.7555C18.809 34.7781 19.6168 35.8281 19.8867 36.8109C20.5244 39.1351 19.4152 43.9674 22.0704 44.9413C22.9001 45.2461 22.846 44.7387 23.2407 44.5572C23.5156 44.4308 23.9306 44.4606 24.2181 44.2181C24.4631 44.1376 24.4161 44.4705 24.5338 44.5484C24.9093 44.8001 26.1326 43.9199 27.1101 44.309C27.408 44.4279 27.8996 45.0302 28.153 45.0984C29.441 45.4446 29.1447 42.6702 29.8715 42.3086C30.4316 42.0299 31.1204 42.6823 31.6278 42.6321C32.19 42.5752 32.2669 41.5128 32.8287 41.3449C33.2912 41.1592 33.7295 41.8243 34.1747 41.5186C34.9959 40.957 33.7539 37.9083 35.9041 38.1899C38.5165 38.5323 38.6562 42.359 39.0381 44.3228C39.2297 45.3098 39.3767 46.2279 39.5462 47.2112C39.6702 47.9349 39.9404 48.649 40.0632 49.3727C41.1164 49.4079 40.5163 47.7229 41.2575 47.3796C42.0834 46.998 42.9656 47.7229 43.8339 47.5343C43.7213 47.0806 43.9569 46.5786 43.945 46.1794L43.9424 46.1833ZM39.1644 22.0987C39.2498 21.9027 39.3862 21.7299 39.5357 21.5793C39.6124 21.502 39.7338 21.5068 39.8123 21.5783C39.8909 21.6497 39.8849 21.7815 39.8134 21.8549C39.7757 21.8929 39.7393 21.9321 39.7055 21.9714C39.6899 21.9884 39.6769 22.0068 39.6613 22.0251C39.6548 22.0329 39.6496 22.0408 39.6445 22.0486C39.5925 22.1206 39.5472 22.1991 39.5109 22.2801C39.5109 22.2801 39.5109 22.2801 39.5109 22.2827C39.5057 22.2919 39.5032 22.3036 39.4993 22.3141C39.4916 22.335 39.4851 22.3546 39.4787 22.3755C39.4645 22.4199 39.4542 22.4656 39.4452 22.5126C39.4414 22.5335 39.4389 22.5544 39.435 22.574C39.4338 22.5871 39.4325 22.6001 39.4313 22.6145C39.4263 22.668 39.4252 22.7202 39.4254 22.7737C39.4258 22.8833 39.3373 22.9645 39.2304 22.9701C39.1247 22.9758 39.0343 22.8769 39.0339 22.7752C39.033 22.539 39.0752 22.3131 39.1684 22.0974L39.1644 22.0987ZM34.101 26.467C33.8491 26.468 33.8477 26.0765 34.0995 26.0755C34.3513 26.0746 34.3528 26.4661 34.101 26.467ZM33.9413 24.2623C34.047 24.2567 34.1361 24.3556 34.1378 24.4573C34.1378 24.4626 34.1378 24.4678 34.1378 24.473C34.1431 24.4965 34.1484 24.5186 34.1564 24.5408C34.1564 24.5421 34.1564 24.5434 34.1577 24.5447C34.1616 24.5538 34.1656 24.5616 34.1708 24.5707C34.184 24.5955 34.1997 24.6176 34.2141 24.6397C34.2181 24.6436 34.222 24.6488 34.2259 24.6527C34.2364 24.6644 34.2482 24.6761 34.26 24.6878C34.2718 24.6982 34.2836 24.7086 34.2966 24.719C34.3019 24.7229 34.3084 24.7268 34.3137 24.7307C34.371 24.7057 34.4415 24.712 34.4964 24.7431C34.5094 24.7404 34.5225 24.7364 34.5355 24.7325C34.5981 24.714 34.6567 24.685 34.7192 24.6692C34.8353 24.6387 34.9697 24.6565 35.0354 24.7697C35.0971 24.8752 35.0728 24.9993 35.0367 25.109C35.0096 25.1913 34.9381 25.2529 34.848 25.2533C34.6901 25.2538 34.527 25.2375 34.3754 25.1885C34.0579 25.0866 33.7463 24.815 33.7424 24.4562C33.742 24.3466 33.8317 24.2654 33.9374 24.2598L33.9413 24.2623ZM18.1054 25.349C18.0976 25.3738 18.0847 25.3947 18.0651 25.4118C18.0469 25.4314 18.0261 25.4445 18.0027 25.4524C17.9792 25.4643 17.9544 25.4709 17.927 25.4697L17.7757 25.4703C17.7404 25.4704 17.7078 25.4614 17.6764 25.4445L17.6371 25.4147C17.6123 25.39 17.5965 25.3613 17.5859 25.3287C17.5833 25.3118 17.5806 25.2935 17.5792 25.2766C17.5791 25.2492 17.5842 25.2244 17.5959 25.2008C17.6036 25.176 17.6166 25.1551 17.6361 25.138C17.6543 25.1184 17.6751 25.1053 17.6986 25.0974C17.722 25.0855 17.7468 25.0789 17.7742 25.0801L17.9256 25.0795C17.9608 25.0794 17.9935 25.0884 18.0248 25.1053L18.0641 25.1351C18.089 25.1598 18.1048 25.1885 18.1153 25.2211C18.118 25.238 18.1207 25.2563 18.122 25.2732C18.1221 25.3006 18.117 25.3254 18.1054 25.349ZM22.8045 36.4841C22.5526 36.4851 22.5512 36.0936 22.803 36.0927C23.0548 36.0917 23.0563 36.4832 22.8045 36.4841ZM22.7401 19.4073C22.4883 19.4083 22.4868 19.0168 22.7386 19.0159C22.9905 19.0149 22.9919 19.4064 22.7401 19.4073ZM24.1083 21.6687C23.8565 21.6697 23.855 21.2782 24.1068 21.2773C24.3587 21.2763 24.3602 21.6678 24.1083 21.6687ZM25.6814 38.1357C25.4296 38.1367 25.4281 37.7452 25.68 37.7443C25.9318 37.7433 25.9333 38.1348 25.6814 38.1357ZM27.0162 31.1796C26.7644 31.1805 26.7629 30.789 27.0148 30.7881C27.2666 30.7872 27.2681 31.1786 27.0162 31.1796ZM30.1669 25.1221C29.915 25.1231 29.9136 24.7316 30.1654 24.7307C30.4173 24.7297 30.4187 25.1212 30.1669 25.1221ZM33.9832 35.3838C33.7314 35.3847 33.7299 34.9932 33.9817 34.9923C34.2336 34.9913 34.2351 35.3828 33.9832 35.3838Z" fill="#FD9434"/>
<path d="M25.4991 60.1303C25.3833 60.0328 25.4892 59.7701 25.6414 59.7317C25.6941 59.7185 25.7453 59.7092 25.7966 59.7024C22.8023 59.2818 19.9529 58.3765 17.3271 57.0633C17.1188 57.3407 16.9561 57.6453 16.7934 57.95C19.5049 59.3073 22.447 60.2475 25.5397 60.6925C25.6749 60.6672 25.8628 60.6404 26.1475 60.5989C25.8747 60.4042 25.6748 60.2784 25.4991 60.1303ZM23.4591 60.0584C23.1715 60.096 22.92 59.9038 22.8991 59.6325C22.8841 59.4459 23.0361 59.3344 23.321 59.3216C23.6756 59.3046 23.8739 59.403 23.8846 59.6C23.8969 59.8179 23.7025 60.0274 23.4591 60.0597L23.4591 60.0584Z" fill="#FD9434"/>
<path d="M58.7214 31.2806C58.556 31.2499 58.5029 31.1313 58.4825 31.0035C58.4125 30.5771 58.4907 30.1762 58.7772 29.828C58.8296 29.7652 58.9576 29.706 59.0346 29.7214C59.0631 29.7265 59.0931 29.7433 59.1231 29.7628C59.1062 29.0804 59.0667 28.4046 59.0057 27.7354C58.892 27.7972 58.7511 27.8277 58.5915 27.8166C58.1855 27.7855 57.955 27.4771 58.1047 27.1334C58.1823 26.9556 58.2999 26.7907 58.4204 26.6337C58.4785 26.5591 58.5809 26.5052 58.6337 26.5207C58.7249 26.5373 58.809 26.5722 58.8861 26.6163C58.773 25.7124 58.6187 24.8218 58.4288 23.9456C58.3677 23.9941 58.3038 24.0413 58.2299 24.0834C58.0181 24.2055 57.9943 24.2969 57.9423 24.5007C57.8539 24.8468 57.6899 25.175 57.6072 25.5224C57.8739 27.1225 58.0182 28.7648 58.0245 30.4415C58.0337 32.8608 57.7576 35.2132 57.232 37.4661C57.356 37.4905 57.4048 37.6025 57.4067 37.7186C57.4077 37.99 57.2279 38.2765 56.9808 38.4758C53.6458 50.8221 42.7093 59.9232 29.7346 59.9721C28.6065 59.9763 27.4952 59.9101 26.4008 59.7811C26.6819 59.9118 26.8695 60.176 26.8922 60.5335C26.8983 60.6404 26.9087 60.7487 26.9105 60.857C27.4819 60.911 28.0589 60.9479 28.6387 60.9679C28.7132 60.6988 28.918 60.6146 29.2915 60.7006C29.4968 60.7481 29.7021 60.8021 29.8947 60.8784C30.006 60.9223 30.1144 60.9585 30.2241 60.9789C30.368 60.9758 30.5132 60.9726 30.6571 60.9668C30.7069 60.9536 30.7553 60.9391 30.8065 60.9167C31.0112 60.8285 31.1822 60.8474 31.3222 60.9369C46.6255 60.0389 58.825 47.0667 59.1255 31.159C59.0176 31.2599 58.8867 31.3126 58.72 31.2819L58.7214 31.2806ZM53.6741 48.1327C53.4613 48.3579 52.9259 48.4017 52.7172 48.208C52.6758 48.169 52.6755 48.0921 52.6567 48.0334C52.6939 47.6836 52.9653 47.5233 53.3191 47.6603C53.4446 47.7081 53.566 47.7834 53.6632 47.8704C53.7361 47.9367 53.755 48.0475 53.6741 48.1327Z" fill="#FD9434"/>
<path d="M13.9228 5.31116C13.9797 5.3005 14.0781 5.31579 14.1053 5.35223C14.2112 5.49536 14.1876 5.65987 14.1384 5.81534C14.1158 5.88328 14.0804 5.92908 14.0378 5.95925C14.7538 5.46983 15.4928 5.01425 16.2518 4.59252C16.084 4.65057 15.9072 4.60817 15.7459 4.52005C15.5532 4.41638 15.4756 4.24182 15.3995 4.05942C15.3793 4.01122 15.3621 3.963 15.3462 3.91348C14.5446 4.37321 13.7644 4.86809 13.0101 5.40072C13.181 5.40269 13.352 5.41509 13.523 5.42488C13.6567 5.38523 13.7876 5.33646 13.9242 5.30985L13.9228 5.31116Z" fill="#FD9434"/>
<path d="M11.3478 8.04026C12.1982 7.29849 13.0902 6.60745 14.0208 5.97238C13.9397 6.01966 13.8329 6.02137 13.7189 6.00483C13.5324 6.01728 13.3954 5.94733 13.3122 5.79367L13.3079 5.79108C13.1384 5.80346 12.9717 5.78843 12.8516 5.66492C12.8259 5.63892 12.8057 5.59593 12.7985 5.55681C12.0797 6.07365 11.3824 6.62172 10.7122 7.201C10.9851 7.42572 11.1942 7.7107 11.3493 8.04156L11.3478 8.04026Z" fill="#FD9434"/>
<path d="M41.1415 3.35433C41.1006 3.45235 41.061 3.5321 41.0214 3.60271C48.5909 7.05302 54.4436 13.8281 56.8423 22.1391C57.2121 21.9876 57.5879 21.9157 57.9529 22.0174C56.3491 16.3616 53.1924 11.3849 48.9961 7.60998C48.7858 7.74257 48.5253 7.79574 48.2573 7.73412C48.1561 7.71101 48.059 7.66832 47.9606 7.63476C47.6069 7.51344 47.5096 7.38462 47.5464 6.95517C47.5605 6.91075 47.5983 6.75402 47.6647 6.60763C47.6789 6.57495 47.6959 6.54748 47.7128 6.51741C46.5056 5.54851 45.2246 4.67645 43.8799 3.90772C43.8435 4.07619 43.7515 4.22529 43.6309 4.36015C43.5926 4.40336 43.5115 4.43628 43.4503 4.43782C43.174 4.44017 42.7657 4.19769 42.6922 3.98266C42.6073 3.73636 42.7147 3.53109 42.8693 3.35565C42.5539 3.19112 42.2343 3.03312 41.9118 2.88036C41.7483 2.97102 41.5474 2.95872 41.3551 2.96336C41.1845 3.04882 41.148 3.1938 41.1444 3.35301L41.1415 3.35433Z" fill="#FD9434"/>
<path d="M12.6508 55.2058C12.875 55.3393 12.9796 55.5099 13.0287 55.7002C13.5629 56.0766 14.1084 56.4347 14.6666 56.7745C14.9681 56.6494 15.1594 56.3968 15.3521 56.126C15.3762 56.0906 15.4046 56.0592 15.4329 56.0252C14.5278 55.4818 13.6538 54.8888 12.8153 54.2487C12.8153 54.2526 12.8139 54.2578 12.8125 54.2617C12.7679 54.5203 12.5664 54.7246 12.2989 54.8C12.0129 54.8793 11.874 54.6815 11.7948 54.4548C11.7048 54.0141 11.7609 53.779 12.0524 53.6474C11.0022 52.7888 10.013 51.8556 9.08909 50.8543C9.04076 50.8819 8.99246 50.916 8.95113 50.9097C8.68034 50.8702 8.5457 50.6711 8.40825 50.4837C8.24646 50.2638 8.20283 50.0252 8.28085 49.9387C5.10454 46.1913 2.82957 41.6054 1.81341 36.5436C1.71525 36.5753 1.614 36.5444 1.5138 36.4143L1.51095 36.4143C1.4267 36.3585 1.34245 36.3027 1.2582 36.2469C1.03281 36.1564 0.807413 36.0672 0.583435 35.9754C1.26616 39.8693 2.67008 43.5059 4.64366 46.7346C4.82512 46.5056 5.00658 46.2765 5.19518 46.0527C5.22496 46.0186 5.33887 46.0065 5.38312 46.0311C5.42023 46.0518 5.44484 46.1561 5.42077 46.1954C5.20983 46.5393 5.07018 46.9 4.98185 47.2748C6.91476 50.2949 9.35476 52.9399 12.176 55.0797C12.3341 55.0647 12.4952 55.1163 12.6494 55.2071L12.6508 55.2058Z" fill="#FD9434"/>
<path d="M16.3926 4.5163C19.1887 2.98556 22.26 1.92486 25.5086 1.43503C25.3343 1.29215 25.0604 1.18487 25.1164 0.926293C25.1612 0.717342 25.416 0.661577 25.6095 0.6217C25.9184 0.559207 26.1439 0.688846 26.2447 0.972931C26.2548 1.00291 26.2549 1.03553 26.2593 1.06683L26.2593 1.06813C26.3705 1.10034 26.4349 1.16925 26.4524 1.27488L26.4524 1.27749C26.4681 1.28526 26.4795 1.29305 26.4938 1.30213C27.4862 1.18878 28.493 1.12757 29.5129 1.12373C31.3404 1.11684 33.1286 1.29148 34.862 1.62944C35.1042 1.63244 35.3491 1.62499 35.5857 1.66064C35.7354 1.68356 35.8439 1.75362 35.9155 1.85382C36.1008 1.89749 36.2862 1.94507 36.4715 1.99265C36.4942 1.95734 36.5168 1.92202 36.5423 1.88669C36.7209 1.63026 37.0114 1.61612 37.2388 1.85797C37.3289 1.95419 37.4446 2.05945 37.465 2.1742C37.4708 2.2068 37.4738 2.24072 37.4796 2.27332C38.07 2.44987 38.6533 2.64471 39.2267 2.85916C39.2267 2.85655 39.2267 2.85524 39.2267 2.85394C39.2199 2.56689 39.2089 2.27855 39.232 1.994C39.2388 1.91437 39.2528 1.84777 39.2711 1.78637C36.2131 0.690045 32.9276 0.0982636 29.5091 0.111147C24.7032 0.129259 20.1667 1.33772 16.1608 3.46412C16.2555 3.6595 16.383 3.84301 16.4663 4.04234C16.5368 4.21171 16.5432 4.39307 16.3926 4.5163Z" fill="#FD9434"/>
<path d="M0.8082 35.1473C1.02371 35.2587 1.18244 35.4238 1.31277 35.6125C1.38424 35.6801 1.45429 35.7477 1.52577 35.8153C1.52577 35.8153 1.52576 35.8127 1.52575 35.8114C1.57991 35.8177 1.63265 35.8279 1.68255 35.8408C1.38563 34.1573 1.22811 32.425 1.22144 30.6543C1.20335 25.8537 2.30155 21.3151 4.2635 17.3003C4.25188 17.2404 4.26302 17.1738 4.29268 17.1058C4.33644 17.0012 4.39742 16.9306 4.4685 16.8938C6.12984 13.6201 8.36943 10.7082 11.0468 8.30498C10.9683 8.25177 10.8925 8.19073 10.8196 8.11141C10.6165 7.88904 10.2957 7.80804 9.94422 7.90331C9.93426 7.90596 9.9243 7.9073 9.91576 7.90995C8.50484 9.21885 7.2155 10.6656 6.07047 12.2293C6.11077 12.3374 6.11264 12.4562 6.09743 12.5789C6.06284 12.8504 5.83728 13.094 5.6067 13.1405C5.55538 13.129 5.49555 13.1266 5.4499 13.1085C2.06716 18.0811 0.0901172 24.138 0.114695 30.6598C0.120479 32.1943 0.237261 33.701 0.456475 35.1747C0.557331 35.1012 0.682608 35.0825 0.8082 35.1473ZM5.15376 13.9004C5.17226 13.8964 5.20233 13.9393 5.22663 13.9601C5.19833 14.0098 5.17003 14.0595 5.14172 14.1092C5.11743 14.0884 5.08175 14.0703 5.07026 14.0442C5.04008 13.9726 5.0712 13.9163 5.15375 13.8991L5.15376 13.9004Z" fill="#FD9434"/>
</svg>
