<svg width="73" height="73" viewBox="0 0 73 73" fill="none" xmlns="http://www.w3.org/2000/svg">
<path d="M6.05555 34.9491C6.16855 34.6593 6.43627 34.6399 6.68507 34.5816C6.71816 34.4344 6.75905 34.2879 6.78137 34.138C6.80343 33.9983 6.74361 33.8108 6.92408 33.7653C6.94103 33.7615 6.96825 33.7808 6.99087 33.791C7.24003 30.9561 7.89649 28.2028 8.91868 25.6065C8.91517 25.6022 8.90978 25.6009 8.90386 25.5971C8.72692 25.5224 8.54756 25.4482 8.37062 25.3734C8.27854 25.3483 8.18458 25.3262 8.09117 25.3064C8.06158 25.3105 8.03144 25.3122 7.99943 25.3168C7.89606 25.5815 7.80347 25.8489 7.7079 26.1144C7.84806 26.0932 7.99415 26.0757 8.03728 26.2567C8.07962 26.4455 7.9188 26.4994 7.7857 26.5521C7.70181 26.5862 7.61866 26.5896 7.53898 26.5744C6.61334 29.2838 6.06876 32.1391 5.94436 35.0655C5.98142 35.0267 6.01014 34.9847 6.0507 34.9501L6.05555 34.9491ZM6.75036 30.1557C6.79639 30.0208 6.86796 29.875 7.05429 29.935C7.197 29.9818 7.30615 30.0717 7.28012 30.2505C7.22174 30.3983 7.11536 30.4908 6.95357 30.461C6.79233 30.4336 6.69257 30.3288 6.75091 30.1581L6.75036 30.1557Z" fill="#3DB6D3"/>
<path d="M53.6882 12.512L53.7478 12.4376C53.7226 12.461 53.6944 12.4826 53.6691 12.5061C53.6775 12.5093 53.6804 12.5112 53.6888 12.5144L53.6882 12.512Z" fill="#3DB6D3"/>
<path d="M63.7562 25.5046C63.7705 25.5116 63.7861 25.5132 63.8033 25.522C64.0059 25.5071 64.2105 25.535 64.2093 25.7793C64.2107 25.9214 64.0811 25.9784 63.9404 25.9973C64.411 27.2571 64.8096 28.5585 65.112 29.9069C67.6822 41.3695 63.1629 52.7945 54.4736 59.5915C54.6076 59.5767 54.7572 59.5864 54.9338 59.6256C55.2176 59.6891 55.3441 59.8565 55.419 60.066C55.5652 59.9468 55.7084 59.8257 55.854 59.704C55.8301 59.4272 55.9406 59.2625 56.2061 59.2106C56.2914 59.1941 56.3641 59.2007 56.4311 59.2161C56.7583 58.9292 57.0766 58.6366 57.3904 58.3349C57.3298 58.3027 57.2828 58.2522 57.2964 58.1653C57.3057 58.1047 57.3696 58.0268 57.4274 58.0012C57.5729 57.9355 57.7221 57.8868 57.8722 57.8531C58.588 57.1333 59.2684 56.3806 59.9058 55.5945C59.8585 55.361 59.9447 55.1332 60.0635 54.926C60.1786 54.7248 60.3957 54.6837 60.612 54.6962C61.3491 53.7199 62.0283 52.7006 62.6433 51.6448C62.5457 51.5498 62.483 51.4291 62.4725 51.2687C62.452 50.9733 62.5695 50.7486 62.8413 50.6343C62.9733 50.5767 63.1204 50.5412 63.2762 50.4986C65.4796 46.3103 66.7195 41.6006 66.778 36.7134C66.7599 36.6895 66.7325 36.6804 66.7206 36.65C66.5741 36.3142 66.5804 35.9797 66.7711 35.6624C66.773 35.6594 66.7768 35.6535 66.7787 35.6505C66.7451 34.2647 66.6167 32.8646 66.3861 31.462C66.3427 31.3929 66.3347 31.3235 66.3564 31.25C66.2685 30.7332 66.1679 30.2167 66.0518 29.6987C65.7782 28.4786 65.4267 27.2963 65.0165 26.1475C64.9505 26.114 64.8971 26.0573 64.8806 25.9721C64.8697 25.9236 64.8936 25.8827 64.9067 25.8391C64.7809 25.4935 64.6489 25.1544 64.5097 24.817C64.4646 24.8653 64.4025 24.8944 64.3188 24.8954C64.2911 24.8965 64.2385 24.8549 64.239 24.8345C64.2409 24.7069 64.3062 24.6236 64.4086 24.5702C62.4655 19.9411 59.4481 15.975 55.7215 12.9053C55.443 13.0923 55.1641 13.2769 54.8851 13.4615C58.7507 16.584 61.8545 20.6858 63.7616 25.506L63.7562 25.5046Z" fill="#3DB6D3"/>
<path d="M10.0266 21.1248C10.0266 21.1248 10.0339 21.1231 10.0387 21.1221C10.129 22.1595 9.92952 22.5627 9.224 22.5913C8.86932 23.2886 8.54669 24.0042 8.24669 24.73C8.25558 24.7356 8.26635 24.7383 8.27578 24.7464C8.27578 24.7464 8.27578 24.7464 8.27524 24.7439C8.34678 24.7228 8.41915 24.7168 8.49128 24.7209C8.61775 24.718 8.71284 24.7679 8.77575 24.8783C8.92204 24.8277 9.03484 24.5711 9.22715 24.8051C9.23683 24.8029 9.24706 24.8032 9.25728 24.8034C12.8617 16.3854 20.3083 9.75012 29.9045 7.59843C32.4246 7.03337 34.9434 6.81437 37.4115 6.90169C37.4002 6.77201 37.4207 6.64792 37.5088 6.54173C37.7098 6.29324 37.9606 6.30056 38.2225 6.4478C38.4092 6.41865 38.5769 6.45223 38.7168 6.58867L38.7217 6.58758C38.7983 6.57802 38.8739 6.56361 38.9501 6.55162C38.9944 6.51118 39.0457 6.47932 39.1011 6.45419C39.0973 6.31266 39.0669 6.17709 39.0414 6.04044C35.988 5.76909 32.8458 5.95241 29.6987 6.65806C21.0782 8.591 14.1375 14.0246 10.0266 21.1248Z" fill="#3DB6D3"/>
<path d="M39.4732 6.86651C39.4615 6.92762 39.4474 6.98927 39.4362 7.05279C40.4232 7.15694 41.3987 7.31196 42.3592 7.51356C42.4312 7.30165 42.6281 7.12528 42.8539 7.14584C42.9578 7.1556 43.0588 7.20923 43.048 7.20656C43.141 7.41708 43.1394 7.55728 43.0939 7.67174C46.6893 8.5233 50.0763 10.0445 53.0869 12.1205C53.1135 12.1145 53.139 12.1037 53.1662 12.1002C53.162 12.0248 53.1603 11.9489 53.1609 11.8725C53.1011 11.6851 53.0927 11.5115 53.2905 11.396C53.3521 11.3644 53.4188 11.3443 53.4888 11.3388C53.5844 11.3911 53.6757 11.4469 53.7727 11.4938C53.6771 11.4415 53.582 11.3916 53.4888 11.3388C53.6179 11.3251 53.7098 11.3833 53.7727 11.4938C53.8522 11.6895 53.8466 11.8688 53.6679 12.0131L53.7489 12.4424C53.8314 12.5154 53.912 12.5914 53.9945 12.6645C54.095 12.7157 54.196 12.7693 54.2965 12.8205C54.6055 12.736 54.9161 12.6587 55.1849 12.4738C52.4896 10.3526 49.4497 8.68999 46.1937 7.57164C46.1795 7.61042 46.1629 7.64974 46.1333 7.67671C46.0054 7.78674 45.853 7.74209 45.7269 7.63308C45.6986 7.60892 45.6697 7.58233 45.6476 7.55169C45.6058 7.48988 45.5688 7.42698 45.5361 7.36058C43.6141 6.74909 41.6226 6.3261 39.5875 6.10609C39.6124 6.2963 39.6246 6.48679 39.5927 6.68464C39.582 6.75059 39.5138 6.80911 39.4719 6.87189L39.4732 6.86651Z" fill="#3DB6D3"/>
<path d="M53.7702 60.3442C53.8053 60.2168 53.8522 60.1198 53.8996 60.0253C52.5528 61.0265 51.1159 61.9207 49.5895 62.6876C49.5911 62.6949 49.5965 62.6962 49.5981 62.7035C49.6359 62.8832 49.44 63.0644 49.0462 63.145C49.0005 63.1451 48.8453 63.1672 48.7002 63.1438C48.687 63.1417 48.6757 63.1366 48.6619 63.132C46.8181 63.9803 44.8606 64.6505 42.8029 65.1119C34.6617 66.9374 26.5435 65.1803 20.0843 60.9003C20.0632 61.022 19.9953 61.116 19.8482 61.1515C19.6847 61.1933 19.5298 61.1034 19.5246 60.9444C19.5201 60.8107 19.5971 60.712 19.707 60.6467C18.8119 60.0338 17.9474 59.3759 17.1251 58.6679C17.1515 58.7179 17.1611 58.7945 17.1378 58.8379C17.1093 58.8926 17.0242 58.9549 16.9652 58.9529C16.6676 58.9408 16.3742 58.9023 16.133 58.6996L16.1198 58.6975C15.9654 58.7347 15.8794 58.6802 15.8684 58.5174C15.8236 58.4537 15.8084 58.3859 15.8241 58.3087C15.7134 58.0869 15.7762 57.8796 15.8923 57.6832C15.9087 57.6541 15.9275 57.6244 15.9457 57.5924C15.0294 56.7147 14.1681 55.7764 13.3683 54.7836C13.3525 54.9626 13.3028 55.1034 13.1953 55.214C13.0884 55.3269 12.9473 55.3891 12.783 55.3141C12.6384 55.2473 12.5305 55.152 12.4778 54.996C12.4188 54.8237 12.4839 54.6946 12.6226 54.6101C12.7522 54.5302 12.8979 54.4772 13.0372 54.418C13.0493 54.4153 13.0614 54.4126 13.0735 54.4099C10.4906 51.0888 8.57656 47.1677 7.59679 42.7981C6.97093 40.0069 6.7724 37.2164 6.94536 34.4953C6.85983 34.5221 6.77323 34.544 6.69067 34.5727L6.68825 34.5733C6.65559 34.8018 6.53861 34.9831 6.35993 35.1274C6.28265 35.3838 6.1744 35.6267 5.94731 35.7818C5.94247 35.7829 5.93521 35.7846 5.93036 35.7856C5.88673 38.1651 6.11416 40.5854 6.65751 43.0087C8.81245 52.6194 15.323 60.1449 23.6438 63.9846C23.7505 63.8819 23.8803 63.8146 24.0432 63.8493C24.2569 63.8954 24.4675 63.9957 24.6556 64.1086C24.9409 64.2811 25.1194 64.6123 25.4809 64.6711C25.7084 64.5743 25.9242 64.5844 26.0331 64.832C26.0712 64.9226 26.1273 64.9685 26.1839 65.0169C26.2668 65.0466 26.3449 65.0774 26.4279 65.1071C26.4688 65.1081 26.4965 65.1298 26.5431 65.1219C26.484 64.9267 26.4829 64.7515 26.6931 64.6459C27.2737 64.5589 27.3936 64.6744 27.2304 65.1712C27.2109 65.2315 27.1752 65.2878 27.142 65.3436C28.4403 65.7593 29.7684 66.0921 31.1211 66.3303C30.9598 66.28 30.8215 66.128 30.7904 65.9214C30.7667 65.7589 30.8286 65.6154 30.9937 65.558C31.2535 65.4692 31.5743 65.6414 31.6261 65.884C31.6497 66.1025 31.5407 66.2515 31.3522 66.3293C31.3079 66.3469 31.264 66.344 31.2183 66.3441C31.6312 66.4168 32.0473 66.4811 32.4643 66.5377C32.4926 66.4372 32.5441 66.3494 32.5635 66.2434C32.5864 66.1187 32.719 66.0636 32.8329 66.0838C32.936 66.1014 33.0459 66.1606 33.1206 66.2329C33.2276 66.336 33.2384 66.4861 33.2009 66.614C36.4009 66.9491 39.7032 66.7884 43.01 66.0469C45.0387 65.592 46.9728 64.9422 48.8003 64.1231C48.8774 63.9456 49.0027 63.8921 49.2326 63.9194C50.9014 63.141 52.4803 62.2225 53.9516 61.1756C53.7736 60.9485 53.6703 60.692 53.7662 60.3374L53.7702 60.3442ZM7.92659 45.5616C7.87734 45.5574 7.83601 45.4751 7.7926 45.4289C7.80114 45.2516 7.91483 45.1803 8.07173 45.1883C8.11802 45.1907 8.19971 45.2715 8.19817 45.31C8.18528 45.468 8.09885 45.5814 7.92713 45.564L7.92659 45.5616Z" fill="#3DB6D3"/>
<path fill-rule="evenodd" clip-rule="evenodd" d="M31.7314 21.155L32.5746 25.4713L27.4159 29.3841L28.412 30.6964L32.9779 27.2928L35.8453 42.7569C36.1568 44.5202 36.5443 49.3099 29.6825 46.4321C26.4497 44.828 25.8719 41.3777 25.2421 38.2517L27.2958 39.0422L24.9131 34.0743C23.2641 36.0408 22.7965 37.5161 22.1081 39.1629L23.828 38.3857C24.3096 51.3286 34.1142 48.9496 39.7912 51.9863L39.8693 51.9154L32.9236 20.9385L31.7289 21.1555L31.7314 21.155Z" fill="#3DB6D3"/>
<path fill-rule="evenodd" clip-rule="evenodd" d="M41.9725 18.6934L38.427 21.2961L34.8839 23.8983L34.0408 20.6371L32.8679 20.951L39.8137 51.9279L39.9146 51.9587C43.7515 46.7887 53.6331 44.7536 48.5423 32.8442L50.4294 32.8126C49.1037 31.6174 48.051 30.483 45.7202 29.4089L45.6868 34.9185L47.2063 33.3268C47.9716 36.4224 48.9199 39.7897 46.684 42.62C41.7103 48.1516 40.0156 43.655 39.5419 41.928L35.4268 25.4801C35.5504 25.3964 36.3416 24.8427 37.1604 24.2422C38.0399 23.5949 39.6835 22.4662 40.8406 21.6169C41.9977 20.7675 43.524 20.0566 42.6915 19.689C42.6977 19.6826 42.1009 18.8578 42.0162 18.7522L41.9712 18.6988L41.9725 18.6934Z" fill="#3DB6D3"/>
</svg>
