<?xml version="1.0" encoding="UTF-8"?>
<svg id="Layer_1" xmlns="http://www.w3.org/2000/svg" version="1.1" viewBox="0 0 53.12 64.06">
  <!-- Generator: Adobe Illustrator 29.4.0, SVG Export Plug-In . SVG Version: 2.1.0 Build 152)  -->
  <defs>
    <style>
      .st0 {
        fill: #d0692b;
        fill-rule: evenodd;
      }
    </style>
  </defs>
  <g id="Shape_2_copy_7">
    <path class="st0" d="M31.93,28.63c-.09.05-.22-.13-.22-.13,0,0-.02.12,0-.24,0-.36,0-1.06.02-1.5,0-.45,0-1.32-.16-2.47-.15-1.15-.28-2.14-.45-2.56-.15-.38-.45-.65-.96-.91,0,0,0-.01,0-.02-.22-.15-1.64-.76-1.84-.86-.08-.03-.07.03-.07.03,0,0,0,0,0,0,0,0,0,0,0,0h0s-.14-.08-.14-.08c-.11-.12-.19-.58-.26-.69-.07-.11-.2-.17-.2-.17-.01-.19,0-.59.04-.66.08-.16.17-.35.24-.6.09.07.25-.04.34-.16.09-.13.21-.32.16-.6-.05-.28-.21-.3-.21-.3.04-.13,0-.44-.08-.68-.08-.24-.15-.44-.35-.68-.2-.24-.34-.31-.5-.39-.16-.08-.34-.16-.5-.18-.16-.03-.31-.07-.67-.06-.36,0-.57.24-.66.36-.09.12-.27.22-.59.73-.32.5,0,1.14,0,1.41-.14.12,0,.46.04.69.03.23.17.17.23.12.12.41.27.55.31.69.03.1.02.42.01.61-.09,0-.08.15-.1.31-.02.15-.05.3-.14.53,0,0,0,0,0,0,0,0,0,0,0,0,0,0,0,0,0,0,0,0,0,0,0,0,0,0-.55.3-.92.45-.37.15-1.05.5-1.11.57,0,0,0,.02,0,.06,0,0,0,0-.01,0-.03.01-.14.05-.21.11-.02.02-.02.03-.03.04-.15.12-.29.27-.43.52-.29.51-.22.89-.29,1.5-.07.61-.43,2.52-.59,3.48-.16.96-.16,2.1-.16,2.25,0,.15.07.04-.05.11-.12.07-.14.15-.22.14-.09-.02-.07.08-.03.34.04.26.08.35.21.52.14.17.15.29.22.25,0,0,0,0,.02,0-.01.19,0,.41-.04.59-.03.19-.05.33-.07.47-.02.15.03.31.09.44.06.12.12.35.33.7,0,.06,0,.13.01.2.08.25.21.41.27.6.06.19.17.66.19.97.02.31.08,1.26.08,2.44s-.06,3.62-.02,4.12c.04.5.17.95.14,1.3-.04.35-.25.83-.21,1.28.04.45.23.89.25,1.24.02.35-.1.79-.21,1.08-.12.29-.17.29-.14.79.04.5.16.87.17,1.06.01.11,0,.17.03.18-.06.09-.2.29-.37.35-.21.08-.51.12-.52.52-.04.06-.11.15.02.23.33.02,1,.15,1.53.15s.7-.03.7-.12c.12.05.16.05.16.05,0,0,.29-.02.4-.05.11-.03.12-.1.1-.19-.02-.09,0-.39-.05-.49.01-.01.02-.07.07-.2.1-.27.37-.7.45-.95.08-.25.08-.43-.06-.64-.14-.21-.14-.33-.14-.64s-.02-.93,0-1.36c.02-.43.04-1.32.06-1.9.02-.58.08-1.28.14-1.78.06-.5.06-1.49.17-1.86.12-.37.19-.81.27-1.18.08-.37.02-.66.14-1.1.1-.39.07-.59.11-.9.03-.12.06-.29.1-.42,0-.03.02-.07.03-.11.05-.16.1-.29.11-.52.02-.31.11-.67.21-.62,0,0,0,0,0,0,0,0,0,0,0,0,.13.13.23.93.23.93,0,0,0-.01,0-.03.07.44.13.97.18,1.44.1.83-.02,2.69.14,3.39.16.7.16,1.7.22,2.26.06.56.05,2.1.07,2.72.02.62-.17,1.37-.14,1.82.04.45.19.83.21,1.08.02.25,0,.48,0,.48,0,0,.02,0,.04,0,0,0,0,0,0,0,0,0,0,0,0,0h0c-.06.08-.14.23-.1.41,0,.08,0,.19.05.24.05.05.81.16.81.16l.55-.1s.03.07.1.16c.07.1.23.13.86.12.63,0,1.44-.11,1.7-.16.25-.05.33-.18.27-.28-.06-.1-.05-.22-.16-.33-.12-.11-.27-.14-.52-.14-.23,0-.7.1-1.12-.5,0,0,0-.03-.06-.08-.01-.02-.02-.04-.04-.06-.04-.4.18-.4.13-.67-.06-.27-.08-.65-.17-.86-.1-.21.02-.85.03-1.27.02-.43-.07-1.75-.03-2.47.04-.72-.1-1.86-.04-2.42.06-.56.2-2.43.31-3.69.12-1.26.03-1.82.41-2.71.12-.28.35-.59.33-.99,0,.02,0,.03,0,.03,0,0,.08-.18.23-.6.16-.43.22-.6.23-.83,0-.23.06-.59.16-.92.06-.22.12-.43.16-.58,0,0,0,0,0,0,0,0,0,0,0,0,0,0,0,0,0,0,.02,0,.05,0,.07,0,.07,0,.08-.01.15-.08.1-.09.19-.11.28-.39.09-.28.26-.76.17-.72ZM23.22,30.11c0,.05-.01.09-.02.13-.05.2-.14.51-.29.76-.08.14-.24.29-.41.48-.03-.04-.08-.13-.09-.28-.02-.2.11-.78.11-.78v.08s.19.02.31-.03c.01,0,.02,0,.02-.01,0,0,.02,0,.02-.01.11-.09.08-.23.14-.35.01-.02.02-.07.03-.12.03.02.1.05.19.07,0,.02-.01.04-.02.07ZM23.55,27.58c-.05.12-.13.17-.17.39-.05.21-.21,1.23-.22,1.43,0,.11-.04.27-.08.39.02-.17.03-.35.04-.4,0-.09-.03-.1,0-.28.04-.18.16-.99.17-1.17.02-.18-.06-.21,0-.44.07-.22.16-.15.16-.41s.13-.29.07-.45c0,0,0,0,0-.01,0-.02,0-.04,0-.07.04.1.08.14.09.27.02.16-.03.24-.04.39,0,.15.03.24-.02.36ZM30.14,29.69s0,.04,0,.06c0-.02,0-.03,0-.06,0,0,0,0,0,0ZM30.18,30.73c-.04.2-.13.4-.24.51-.08.08-.13.13-.13.13,0,0,0,.01.02.03-.03-.05-.07-.09-.09-.13-.21-.29-.17-.6-.17-.74,0-.04-.01-.1-.03-.15h0s0,0,0,0c-.02-.07-.05-.14-.07-.18.13-.01.27-.03.32-.09.07-.09,0-.43-.05-.8-.06-.38-.07-1.09-.12-1.63-.05-.53,0-.65-.05-.83-.04-.18-.06-.2,0-.41.07-.2.15-.34.14-.7,0-.06,0-.13,0-.22,0,.02.02.04.02.07.02.16.04.19.05.31,0,.09.01.2.02.3,0,.06,0,.13,0,.19,0,.03,0,.05,0,.06,0,0,0,0,0,0,0,.06,0,.12,0,.18.03.42.04.64.12.81.08.17.06.47.05.59,0,.12.04.29,0,.36-.04.06-.11.02-.13,0,0,0,0,0,0,0,0,0,0,.08.04.31.04.23.05.29.08.46.03.17.02.35.04.44,0,.01.01.03.02.04.02.06.15.14.15.14.03.33.06.81.04.94Z"/>
  </g>
</svg>