<?xml version="1.0" encoding="UTF-8"?>
<svg id="Layer_1" xmlns="http://www.w3.org/2000/svg" version="1.1" viewBox="0 0 53.12 64.06">
  <!-- Generator: Adobe Illustrator 29.4.0, SVG Export Plug-In . SVG Version: 2.1.0 Build 152)  -->
  <defs>
    <style>
      .st0 {
        fill: #a9961a;
        fill-rule: evenodd;
      }
    </style>
  </defs>
  <g id="Shape_4_copy">
    <path class="st0" d="M32.82,26.51c-.03-.22-.11-.58-.25-.83-.14-.25-.86-1.94-.97-2.22-.11-.28-.33-.72-.53-1-.19-.28-.29-.67-.24-.97.04-.25-.15-.55-.15-.55,0,0-.42-.19-.64-.33-.22-.14-1.83-.64-2.19-.72-.2-.05-.35-.24-.45-.41v.02s.01.01.01.02c0-.01,0-.03-.01-.04h0s0,0,0,0c-.06-.18-.17-.48-.28-.56-.05-.12-.13-.36-.1-.45.04-.12.14-.07.17-.19.03-.12.11-.76.28-1.08.17-.32.17-1,.12-1.43-.04-.43-.43-.8-.68-.91l.14-.03s-.21-.01-.26.01c-.06.03-.15-.32-.15-.32,0,0,.03.12-.03.19-.06.07-.25-.17-.6-.14-.35.03-.8.06-.8.06-.57.12-.87.62-.87.62,0,0,.11-.04.14.01.03.06-.42.32-.57,1.23,0,0-.1.37-.1.5s.14.17.12.26c-.01.1.11.11-.11.36-.22.25-.07.26-.03.29.04.03.04.36.07.48.03.12.08.07.08.12s-.01.11.06.19c.07.08.07.14.1.25.03.11-.03.25.07.4.1.15.47,0,.76.21,0,0,.07.11.07.15,0,0-.04.14-.11.35-.06.11-.22.41-.38.5-.19.11-1.71,1.12-1.79,1.18-.08.06-.24.07-.29.17-.06.1-.18.15-.17.26.01.11-.39.64-.4.87-.01.24-.26,1.29-.39,1.74-.12.44-.34,1.58-.41,1.85-.07.26.01.54-.06.7-.07.17-.06.43-.15.45-.08.03-.19.11-.18.15s-.17.8-.19.98c-.03.18-.16,1.44-.16,1.55,0,.07.18.15.39.18l-.04.58s.09-.03.21-.06c-.07.04-.14.08-.21.14.11.37.11.65.17,1,.06.35.22,1.13.28,1.42.06.3.13.59.18.54.06-.06.15-.07-.02-1.03,0,0,0-.01,0-.04.06.11.27.19.32.36.06.19-.06.9-.08,1.11-.03.21.08,1.4.18,1.83.1.43.49,2.31.6,2.94,0,0,.48,2.6.43,4.41-.06,1.81-.2,2.42-.13,2.66.07.24.2.81.22.92.02.11-.07.28-.22.46-.15.18-.3.39-.41.46-.11.07-.8.55-1,.52-.2-.04-.7-.02-.78.02-.07.04-.18.24-.15.3.04.06.46.17.54.2.07.04,1.59.15,1.7.13.11-.02.81-.31.85-.22.04.09.04.2.04.2,0,0,1.72-.04,1.76-.15.04-.11-.04-.89-.02-1.07.02-.18.04-.3-.04-.41-.07-.11-.24-.13-.15-.24.09-.11.11-.04.11-.2s-.17-.2-.18-.46c-.02-.26-.09-.06-.04-.54.06-.48.24-2.9.15-3.84-.09-.94-.02-.98-.02-1.2s-.11-.55-.11-.81.22-.28.17-.67c-.06-.39.11-3.57.15-3.81.15,0,.57,1.19.8,2.54.03.22.07.44.09.65.16,1.41.07,3.12.15,3.61.01.07.02.14.04.22,0,.1.02.18.02.24.07.5.37,1.66.46,2.11.09.44.26,1.07.04,1.26l-.18.1c-.13.05-.23.03-.24.14,0,0-.11.56-.03.73,0,.04,0,.09,0,.14-.04.1-.14.19,0,.23.02.22.09.17.11.3.02.12-.87.55-.79.64-.04.06-.08.13-.08.23,0,.17.09.15.15.17.06.02.52.09.57.09s1.68.06,1.92.04c.24-.02.33-.15.33-.15l.02.2.35-.02s.04-.46.04-.59-.04-.42-.04-.61-.15-.5-.06-.59c.09-.09.17-.2.24-.35.07-.15.11-5.87.11-6.71s-.24-1.99-.31-2.49c-.07-.5.03-1.21.09-1.53.02-.09.11-1.4.11-1.85,0-.35-.05-1.73-.07-2.28.01-.05.03-.1.06-.12.02-.02.06-.07.1-.13.37-.07.71-.34.74-.65,0-.08,0-.34-.03-.7.12-.31.24-.62.25-.66.15.13.3.26.3.26l.48-.46s-.04-.03-.1-.09l.17.12s.17-.03.22-.25c.06-.22.78-1.08.92-1.39.14-.3.61-1.05.67-1.16.06-.11.03-.58,0-.8ZM21.85,31.37s-.08-.11-.1-.18c0-.03-.1-.1-.24-.13.12,0,.23,0,.3.04l.11-.64c.06-.01.09-.02.1-.03-.07.41-.15.88-.17.94ZM22.12,29.85s0-.04.01-.06c0-.02,0,0-.01.06ZM30.69,27.18c-.22.39-.82,1.72-.93,1.95-.08-.82-.15-1.52-.15-1.52.03-.17-.54-.72-.18-1.11.13-.15.51-1.96.59-1.85.03.03.11.21.21.44.15.38.34.89.42,1.06.13.26.18.46.17.59,0,.06-.07.25-.13.44Z"/>
  </g>
</svg>