<?xml version="1.0" encoding="UTF-8"?>
<svg id="Layer_1" xmlns="http://www.w3.org/2000/svg" version="1.1" viewBox="0 0 53.12 64.06">
  <!-- Generator: Adobe Illustrator 29.4.0, SVG Export Plug-In . SVG Version: 2.1.0 Build 152)  -->
  <defs>
    <style>
      .st0 {
        fill: #a9961a;
        fill-rule: evenodd;
      }
    </style>
  </defs>
  <g id="Shape_1">
    <path class="st0" d="M32.16,28.19c.04-.52-.06-.76-.14-1.05-.08-.28-.43-1.53-.45-1.9-.02-.37-.82-2.62-.84-2.88-.02-.26-.27-.44-.25-.59.02-.15-.1-.37-.1-.37,0,0-2.39-.74-2.55-.94-.12-.14-.22-.25-.26-.3-.06-.19-.12-.3-.17-.38,0,0,0,0,0,0-.02-.04-.03-.06-.03-.06.05-.17.1-.63.18-.71.08-.09.3-.32.4-.49.1-.17.14-.58.11-.7-.03-.12-.12-.06-.08-.13.04-.07.07-.25.05-.39-.01-.15.01-.1.1-.41.08-.31-.01-.36-.07-.67-.05-.31-.27-.54-.37-.61-.1-.07,0-.19,0-.19,0,0-.14,0-.22-.1-.08-.1.01-.2.01-.2,0,0-.11.09-.18.1-.07.01-.31-.23-.4-.29-.08-.06-.03.07-.11.07s-.27-.04-.49-.01c-.22.03-.56.29-.65.35-.1.06-.1-.04-.14-.04s0,.1-.08.15c-.08.04-.42.45-.53.6-.11.15-.1.87-.07,1.19.03.32.1.26.01.35-.08.09,0,.83.04.9.06.11.18.09.19.28.01.19.11.8.23,1.03,0,0-.07.05-.14.14,0,0,0-.01,0-.02,0,0,0,.02-.02.05-.02.03-.04.06-.05.1-.05.11-.13.23-.17.26-.08.04-1.88.55-2.45.8,0,0-.23.01-.23.1s-.04.41-.11.55c-.07.15-.38,1.05-.33,1.27.05.22.07.36-.04.67-.11.31-.26,1.6-.34,1.97-.08.36-.22,1.14-.31,1.41-.1.28,0,1.06-.1,1.34-.1.28.03.36.01.48-.01.12-.11.52-.04.73.07.2-.04.54.01.68.05.15.25.6.3.8.05.2.07.6.2.74.13.14.32.14.35.14.08.13.22.33.23.34.01.01.43.35.43.35,0,0,0,0,0-.02.02.02.03.04.04.06,0,0,.02.41.02.47,0,0,.02.37-.04.79-.05.42-.07,1.92-.04,2.39.03.47.18,1.41.18,2.04s-.03,1.81.11,2.02c.14.22-.2.49-.19.86.01.36.05,2.68.05,3.09s.27,1.57.22,1.7c-.05.13-.14.54-.07.7,0,0-.65.16-.64.36.01.2.11.79.18.93,0,0-.12.33-.25.41-.12.07-.31.07-.31.29s-.18.23-.07.25c0,0-.22.12,1.85.12,0,0,.2-.1.29-.06.08.04.12.07.3.07h.29s.01-.34-.08-.61c.01,0,.04-.02.11-.09.17-.14.46-.47.39-1.12-.03-.28-.22-.38-.22-.47,0-.02,0-.04,0-.07.01-.09.05-.22.11-.41,0,0,0-.08.02-.22.05-.24.07-.63.08-1.04.15-1.84.41-5.16.46-6.29.03-.28.08-.52.13-.73.04-.12.09-.25.11-.44,0-.03.01-.05.02-.08.07-.3.12-1.05.13-1.45.01-.12.03-.24.04-.35.06-.22.07-.46.08-.68.04-.34.09-.6.12-.66.08.06.17.31.27.65.02.09.05.19.07.31.07.32.14.57.2.79.14.65.26,1.26.29,1.42,0,.03,0,.05,0,.08,0,.25,0,.46.03.64,0,.05,0,.09,0,.14,0,0,.08.42.18.66.01.03.02.07.03.11.05.31.02.97.15,1.41,0,.03.01.05.02.08.04.19.1.36.15.51.03.12.06.22.08.34,0,.15-.05.25-.06.4-.01.03-.03.07-.03.11-.03.17.05.29.05.61s-.03.58.03.71c.05.13-.01.26-.03.47-.01.2-.26,2.02-.19,2.27.07.25.14.36.61.83,0,0-.07.19-.14.36-.07.17-.11.41-.12.57-.01.16-.11.36.05.54.16.17.1.28.1.32s-.23.25-.12.32c.11.07,2,0,2,0,0,0,.01-.25,0-.33-.01-.09-.19-.64-.22-.82,0,0,.16-.15.16-.33s-.12-.22-.08-.33c.04-.12.3-.04.59-1.89.29-1.85-.19-3.83-.29-5.21-.1-1.38-.16-6.07-.18-7.37,0,0,.35-.57.57-.79.02-.02.03-.04.05-.07.08-.04.49-.29.52-.33,0,0,0,.01,0,.01l.28-.14s0,0,0,0c0,0,.02.01.02.02l.04.07s.64-.7.72-.92c.08-.22.25-.68.37-.83.12-.15,0-1.09.04-1.62ZM23,28.22c-.02.26-.25.68-.25.68,0,0-.18-.28-.16-.39.02-.11.08-.5.08-.66s-.02-.37.1-.48c.12-.11,0-.31,0-.31.02-.59.22-.92.32-1.05,0,0,0,.01,0,.02-.09.25.07.86.07,1.01,0,.17-.14.92-.16,1.18ZM30.09,29.68l-.23.63s-.16-.69-.28-1.87c-.04-.4-.04-.8-.03-1.16.04-.39.13-1.2.17-1.22.02.02.05.04.07.06.1.12.25.37.32.37.01,0,.01-.01,0-.03.07.09.12.15.12.15,0,.05.06.49.16,1.03.1.53,0,.39.01.54.03.2.11.09.1.66,0,.13-.43.85-.43.85Z"/>
  </g>
</svg>