<svg width="87" height="87" viewBox="0 0 87 87" fill="none" xmlns="http://www.w3.org/2000/svg">
<path d="M61.2437 67.4217C61.0917 67.4358 60.982 67.1725 61.0682 67.0362C61.0964 66.9892 61.1278 66.9453 61.1607 66.903C58.6723 68.7802 55.9504 70.2078 53.1032 71.184C53.1471 71.5319 53.2426 71.8657 53.3367 72.201C56.2779 71.1934 59.0922 69.7236 61.6684 67.793C61.7499 67.6771 61.8674 67.5219 62.0476 67.2853C61.7091 67.3449 61.4757 67.4029 61.2422 67.4232L61.2437 67.4217ZM59.7002 68.8523C59.5153 69.0874 59.1988 69.1344 58.9904 68.9573C58.8494 68.8351 58.8807 68.6471 59.0797 68.4292C59.3273 68.1597 59.542 68.0861 59.6877 68.2161C59.8491 68.3619 59.8554 68.6533 59.7002 68.8523Z" fill="#3DB6D3"/>
<path d="M65.2428 22.8092C65.1002 22.9079 64.978 22.8609 64.873 22.7872C64.522 22.5365 64.2963 22.1949 64.2603 21.7389C64.254 21.6574 64.3057 21.5211 64.3731 21.4757C64.3966 21.4584 64.4311 21.449 64.4671 21.4412C63.9735 20.9695 63.469 20.5182 62.9534 20.0873C62.9142 20.2142 62.8312 20.338 62.7074 20.4461C62.3877 20.7188 62.0038 20.6671 61.8706 20.3145C61.8017 20.1327 61.7719 19.9306 61.75 19.73C61.739 19.6344 61.7766 19.5216 61.8283 19.495C61.9082 19.4401 61.9928 19.4025 62.079 19.379C61.3598 18.8196 60.6202 18.2994 59.8633 17.8152C59.8539 17.8935 59.8398 17.9734 59.8147 18.058C59.7458 18.2994 59.7928 18.3808 59.8978 18.5642C60.0764 18.8744 60.1877 19.227 60.3726 19.5342C61.6951 20.4744 62.9581 21.5368 64.1428 22.7214C65.8524 24.431 67.3065 26.302 68.51 28.2827C68.6181 28.2091 68.7341 28.2529 68.8156 28.3344C69.0067 28.5256 69.0788 28.8609 69.0365 29.1822C75.2888 40.3674 73.6936 54.7713 64.2321 64.2328C63.4094 65.0555 62.5491 65.8155 61.6575 66.5191C61.9537 66.4078 62.2796 66.458 62.5476 66.6946C62.6275 66.7651 62.7105 66.8356 62.7889 66.9108C63.2449 66.5332 63.693 66.1414 64.1318 65.734C63.997 65.4896 64.0864 65.2811 64.4217 65.0712C64.605 64.9568 64.7946 64.8455 64.9874 64.7593C65.1002 64.7092 65.2036 64.6559 65.2992 64.5917C65.4026 64.4851 65.5061 64.3785 65.6079 64.2704C65.6346 64.225 65.6596 64.178 65.6816 64.1247C65.7677 63.9131 65.9088 63.8035 66.0733 63.7643C76.6412 52.0087 76.4343 33.938 65.4512 22.4315C65.4434 22.5804 65.3854 22.7136 65.2412 22.8139L65.2428 22.8092ZM73.4147 38.4369C73.4163 38.7518 73.0559 39.1718 72.7675 39.1843C72.7096 39.1859 72.6563 39.1326 72.5999 39.1044C72.3805 38.8286 72.4667 38.5199 72.8224 38.3585C72.9477 38.3021 73.0903 38.2661 73.2235 38.2582C73.3238 38.252 73.4163 38.3162 73.4178 38.4369H73.4147Z" fill="#3DB6D3"/>
<path d="M14.1711 36.9279C14.2056 36.8777 14.2871 36.8182 14.3341 36.8244C14.5128 36.8495 14.6115 36.9827 14.6836 37.13C14.7165 37.1943 14.7212 37.2522 14.7118 37.3055C14.892 36.439 15.1113 35.5771 15.3699 34.7262C15.2884 34.8892 15.1286 34.9863 14.9484 35.0443C14.7353 35.1101 14.5551 35.0428 14.3702 34.9675C14.3216 34.9472 14.2746 34.9252 14.2276 34.9033C13.9643 35.8122 13.7418 36.7304 13.5647 37.6565C13.6901 37.5343 13.8248 37.4183 13.9565 37.3024C14.0254 37.177 14.0897 37.047 14.1696 36.9294L14.1711 36.9279Z" fill="#3DB6D3"/>
<path d="M14.2071 40.7341C14.3074 39.5902 14.4735 38.4525 14.707 37.3259C14.6803 37.4183 14.6051 37.4967 14.5095 37.5672C14.381 37.7114 14.2337 37.7615 14.0629 37.7129L14.0598 37.7161C13.9423 37.8461 13.8106 37.9558 13.6351 37.9558C13.5975 37.9558 13.5521 37.9417 13.5192 37.9182C13.3562 38.8083 13.2324 39.703 13.1494 40.6009C13.5082 40.5617 13.8608 40.6134 14.2087 40.7357L14.2071 40.7341Z" fill="#3DB6D3"/>
<path d="M32.7119 15.7639C32.7511 15.8627 32.7777 15.9488 32.7981 16.0288C40.7679 12.9794 49.822 13.5341 57.4298 17.6882C57.5943 17.3106 57.8168 16.9878 58.1568 16.795C52.9999 13.9478 47.1847 12.7083 41.4558 13.0781C41.3962 13.3257 41.2411 13.5529 41.0029 13.7033C40.912 13.7597 40.8117 13.8005 40.7161 13.8491C40.3698 14.0199 40.21 13.9979 39.9358 13.6673C39.9154 13.625 39.8324 13.4855 39.7759 13.3351C39.7634 13.3006 39.7571 13.2693 39.7462 13.2364C38.1807 13.426 36.6278 13.7378 35.1031 14.1687C35.1956 14.3145 35.2332 14.4868 35.2395 14.6717C35.241 14.7297 35.2066 14.8112 35.1627 14.8582C34.9606 15.0604 34.492 15.1841 34.2867 15.0854C34.0517 14.9726 33.9843 14.7485 33.9749 14.5103C33.627 14.6232 33.2839 14.7438 32.9391 14.8692C32.8827 15.051 32.7276 15.1904 32.5912 15.333C32.527 15.5164 32.6007 15.6464 32.7119 15.7639Z" fill="#3DB6D3"/>
<path d="M48.3741 73.2587C48.6311 73.1898 48.8301 73.2352 48.9993 73.3355C49.6559 73.2149 50.3062 73.0723 50.9534 72.9077C51.085 72.6006 51.0474 72.2809 50.9972 71.9487C50.991 71.9049 50.9894 71.8625 50.9863 71.8187C49.9411 72.0898 48.8833 72.3044 47.8194 72.4596C47.8225 72.4627 47.8256 72.4658 47.8272 72.4705C47.9745 72.6868 47.9745 72.9783 47.8303 73.2258C47.6768 73.4891 47.4354 73.4515 47.2176 73.3465C46.8415 73.0989 46.7178 72.8905 46.8368 72.5865C45.4642 72.7401 44.0821 72.7965 42.7015 72.7573C42.6874 72.8121 42.6749 72.8717 42.6389 72.8983C42.4132 73.0676 42.175 73.0237 41.9415 72.9908C41.6673 72.9516 41.4683 72.8153 41.4636 72.6978C36.5009 72.3452 31.6056 70.7437 27.2979 67.8902C27.2478 67.9842 27.1522 68.0359 26.9877 68.0156L26.9861 68.0171C26.8858 68.0391 26.7839 68.0594 26.6821 68.0829C26.4533 68.1832 26.2261 68.282 25.9973 68.3791C29.2394 70.6466 32.8279 72.2073 36.5464 73.0644C36.5182 72.7698 36.4884 72.4768 36.4696 72.1791C36.4664 72.1321 36.5432 72.0428 36.5918 72.0286C36.6325 72.0161 36.725 72.071 36.736 72.1164C36.8237 72.5144 36.9741 72.8717 37.1747 73.2008C40.7161 73.9404 44.3641 74.0438 47.9353 73.5126C48.0403 73.3857 48.1954 73.3058 48.3709 73.2587L48.3741 73.2587Z" fill="#3DB6D3"/>
<path d="M15.4184 34.5679C16.3868 31.4496 17.888 28.466 19.9204 25.7567C19.6916 25.7818 19.4158 25.904 19.2748 25.6815C19.1604 25.5013 19.3077 25.2756 19.4205 25.1064C19.6023 24.8369 19.8577 24.7664 20.1335 24.8948C20.1617 24.9074 20.1837 24.9325 20.2103 24.9528C20.3153 24.8949 20.4093 24.898 20.4986 24.9591L20.5002 24.9607C20.5159 24.9544 20.5315 24.9513 20.5472 24.9481C21.1944 24.1474 21.8886 23.3717 22.6313 22.629C23.9633 21.297 25.3955 20.1218 26.9014 19.1017C27.0816 18.9277 27.2555 18.7444 27.453 18.5971C27.5783 18.5031 27.7068 18.4749 27.8306 18.4952C27.9967 18.3918 28.166 18.2915 28.3336 18.1897C28.3242 18.1489 28.3164 18.1066 28.3101 18.0627C28.26 17.7493 28.4637 17.53 28.799 17.5362C28.9322 17.5378 29.0921 17.5284 29.1876 17.5958C29.2158 17.6146 29.2409 17.6365 29.2676 17.6569C29.8238 17.3544 30.3864 17.0677 30.9584 16.8029C30.9584 16.8029 30.9552 16.7997 30.9536 16.7982C30.7468 16.6007 30.5368 16.4033 30.3519 16.1839C30.3002 16.1228 30.2642 16.0648 30.2344 16.0068C27.2226 17.4516 24.402 19.4198 21.9105 21.9113C18.4067 25.4151 15.9371 29.5708 14.5033 33.9881C14.7101 34.0571 14.9326 34.0947 15.1332 34.1762C15.304 34.2467 15.4357 34.3689 15.4121 34.5648L15.4184 34.5679Z" fill="#3DB6D3"/>
<path d="M25.582 67.6285C25.8187 67.5517 26.049 67.5533 26.2794 67.5925C26.3796 67.5893 26.4784 67.5846 26.5787 67.5815C26.5787 67.5815 26.5787 67.5815 26.5771 67.5799C26.621 67.5455 26.668 67.5141 26.7134 67.4875C25.311 66.5081 23.9743 65.394 22.7238 64.1435C19.3297 60.7494 16.9369 56.73 15.547 52.4568C15.4968 52.4223 15.4577 52.3675 15.431 52.297C15.3887 52.192 15.384 52.0964 15.4106 52.0196C14.3216 48.4892 13.9095 44.7958 14.1759 41.1446C14.0818 41.1635 13.9815 41.176 13.8734 41.1713C13.5679 41.1603 13.2764 41.3358 13.0868 41.6602C13.0821 41.668 13.0758 41.6774 13.0695 41.6868C12.9583 43.6409 13.0335 45.6028 13.2968 47.5458C13.4033 47.5929 13.4864 47.6759 13.5616 47.7731C13.7261 47.9909 13.734 48.3278 13.5961 48.5283C13.5506 48.5581 13.5052 48.6004 13.4597 48.6208C14.4861 54.602 17.3036 60.3373 21.9153 64.9489C22.9996 66.0333 24.1467 67.0174 25.3439 67.9043C25.3658 67.7789 25.4457 67.674 25.5805 67.6301L25.582 67.6285ZM13.7998 49.3933C13.8107 49.3761 13.8625 49.3871 13.8954 49.3824C13.9095 49.4372 13.9236 49.4952 13.9377 49.55C13.9048 49.5516 13.8656 49.5657 13.8405 49.5563C13.7684 49.5281 13.7496 49.4654 13.7998 49.3933Z" fill="#3DB6D3"/>
<path d="M60.9457 41.6711L60.9406 41.6022H52.4125C53.3055 40.8468 54.0106 40.121 54.2782 39.6756L54.4841 39.3336L54.0723 39.3606C51.782 39.5157 49.9859 40.0791 48.9128 40.4162C48.8973 40.4212 48.8819 40.4261 48.869 40.431C49.6204 39.4886 50.6935 38.027 51.1593 36.3686L51.2699 35.9773L50.8711 36.1176C49.5561 36.5802 48.411 37.1437 47.4614 37.7982C47.6621 36.937 47.8371 36.0266 47.7676 34.9021L47.747 34.5477L47.4331 34.7347C46.5607 35.2539 45.7862 36.0881 45.2561 36.8238C45.0476 35.7977 44.605 34.4788 43.6734 33.2387L43.4959 33L43.3183 33.2387C42.3894 34.4788 41.9467 35.7977 41.7357 36.8238C41.2056 36.0881 40.431 35.2539 39.5587 34.7347L39.2447 34.5477L39.2241 34.9021C39.1547 36.0241 39.3322 36.9345 39.5304 37.7982C38.5808 37.1437 37.4382 36.5802 36.1207 36.1176L35.7218 35.9773L35.8325 36.3686C36.2983 38.027 37.3713 39.4886 38.1228 40.431C38.1073 40.4261 38.0919 40.4212 38.0764 40.4162C37.0034 40.0791 35.2097 39.5157 32.9169 39.3606L32.5052 39.3336L32.711 39.6756C32.9786 40.1185 33.6837 40.8468 34.5767 41.6022H26.0667L26.0615 41.6711C25.9714 42.739 25.9817 43.8143 26.0975 44.8674L26.1053 44.9314L26.1722 44.9363C26.7357 44.9708 27.3096 44.9954 27.9272 45.0101C28.0275 45.768 28.1922 46.5283 28.411 47.2665C27.8551 47.5199 27.3405 47.766 26.8387 48.0145L26.7795 48.044L26.8001 48.1056C27.1475 49.171 27.6055 50.2094 28.1639 51.1911L28.1974 51.2477L28.2617 51.2256C28.7892 51.046 29.3374 50.8491 29.8958 50.6424C30.2869 51.3019 30.7373 51.9392 31.2313 52.5395C30.8145 52.9775 30.4336 53.3934 30.0682 53.8043L30.0245 53.8535L30.0656 53.9027C30.8067 54.7688 31.6379 55.5636 32.536 56.2673L32.5875 56.3092L32.639 56.2649C33.0636 55.9007 33.4882 55.5242 33.9334 55.1133C34.5613 55.5833 35.2303 56.0065 35.9174 56.3756C35.7141 56.9268 35.5237 57.4681 35.3513 57.9824L35.3307 58.0439L35.3899 58.0734C36.4141 58.5877 37.4949 59.0084 38.604 59.3209L38.6683 59.3381L38.6966 59.2791C38.9385 58.7919 39.183 58.2752 39.4249 57.7461C40.1866 57.943 40.9689 58.0857 41.7512 58.1718C41.7769 58.7525 41.8103 59.3209 41.8515 59.8622L41.8567 59.9262L41.9236 59.9311C42.464 59.9803 43.007 60.0025 43.5499 60.0025C44.1675 60.0025 44.7826 59.9705 45.395 59.909L45.4619 59.9016L45.4671 59.8376C45.5005 59.2963 45.5263 58.723 45.5443 58.1349C46.3266 58.0365 47.1063 57.879 47.868 57.6649C48.1253 58.1915 48.3827 58.7058 48.64 59.188L48.6709 59.2446L48.7352 59.2249C49.834 58.8878 50.9045 58.4425 51.9184 57.9036L51.9776 57.8741L51.957 57.815C51.7717 57.3008 51.5736 56.7816 51.3549 56.2304C52.0342 55.8515 52.6904 55.416 53.3106 54.9361C53.7532 55.3323 54.1907 55.7088 54.6127 56.0631L54.6642 56.1049L54.7156 56.0631C55.606 55.3446 56.4269 54.54 57.1552 53.6689L57.1964 53.6197L57.1526 53.573C56.7769 53.1621 56.378 52.7388 55.9637 52.3156C56.4475 51.7054 56.885 51.0583 57.2658 50.389C57.832 50.5858 58.3878 50.7704 58.9231 50.9377L58.9874 50.9574L59.0183 50.9008C59.5484 49.9092 59.9833 48.861 60.3049 47.7832L60.323 47.7217L60.2638 47.6946C59.762 47.4609 59.2293 47.2222 58.6812 46.9885C58.8845 46.2503 59.0337 45.49 59.1186 44.7296C59.7182 44.705 60.3024 44.673 60.8608 44.6337L60.9277 44.6288L60.9328 44.5648C61.0229 43.6076 61.0306 42.6357 60.956 41.6761L60.9457 41.6711ZM41.7949 39.5353L42.0471 40.0299C41.9596 39.934 41.8747 39.838 41.7846 39.7445C41.7872 39.6731 41.7898 39.6042 41.7923 39.5353H41.7949ZM39.6513 35.34L41.5324 39.0186C41.5221 39.1564 41.5144 39.304 41.5067 39.4566C40.9714 38.9251 40.4491 38.4896 40.0811 38.2042L40.0476 38.059C39.8417 37.1904 39.6462 36.3612 39.6539 35.34H39.6513ZM41.3471 41.6022H40.4619C40.009 41.3488 39.5304 41.0978 39.0208 40.8493L38.8021 40.5811C38.1022 39.7223 36.9648 38.3272 36.3883 36.6688L41.3446 41.6022H41.3471ZM36.9159 41.6022H35.2715C34.4609 40.9526 33.7635 40.3006 33.3646 39.8257L36.9159 41.6022ZM47.3379 35.3081L45.5571 38.7898C45.4799 38.123 45.4002 37.621 45.3693 37.4315M53.5165 39.8331C52.6235 40.2588 51.2211 40.9182 49.7645 41.6022H47.3276C47.554 41.4448 47.7651 41.2873 47.9555 41.1249L48.3235 41.0314C48.5139 40.9822 48.7506 40.9084 49.0492 40.8148C50.009 40.5147 51.5556 40.0299 53.5139 39.8306L53.5165 39.8331ZM45.7218 41.5014C45.7244 40.992 45.7038 40.4802 45.6704 39.9955C46.2262 39.368 46.6945 38.9153 46.9467 38.7184L47.2555 38.4773C48.1511 37.7785 49.2627 37.1756 50.5674 36.6761L45.7218 41.4989V41.5014ZM43.4985 52.136C39.1366 52.136 35.5365 49.0135 35.0116 44.9806H51.9879C51.4604 49.016 47.8628 52.136 43.501 52.136H43.4985Z" fill="#3DB6D3"/>
<path d="M35.6186 46.1838C35.6855 46.2404 35.7884 46.2331 35.8451 46.1691C35.9583 46.046 36.1384 45.9107 36.213 45.9181C36.3417 45.9255 36.4292 46.0337 36.5553 46.2158C36.684 46.3979 36.8435 46.6267 37.1343 46.6538C37.5049 46.6858 37.7776 46.457 38.0221 46.2552C38.228 46.083 38.4235 45.9206 38.6474 45.9181C38.9022 45.9107 39.1132 46.078 39.3397 46.2527C39.5996 46.4496 39.8672 46.6514 40.2275 46.6538H40.2326C40.598 46.6538 40.8759 46.452 41.1436 46.2552C41.3803 46.083 41.6042 45.9181 41.8615 45.9181C42.1214 45.9181 42.3479 46.083 42.5898 46.2577C42.8574 46.452 43.1379 46.6538 43.4982 46.6538C43.8584 46.6538 44.1364 46.452 44.4066 46.2577C44.6459 46.083 44.8723 45.9181 45.1348 45.9181C45.3922 45.9181 45.616 46.0805 45.8528 46.2552C46.123 46.452 46.3958 46.6538 46.7715 46.6538C47.1317 46.6538 47.3994 46.4496 47.6593 46.2527C47.8857 46.0805 48.0993 45.9181 48.3463 45.9181H48.3515C48.5779 45.9181 48.7709 46.083 48.9768 46.2552C49.2033 46.4447 49.458 46.6563 49.7926 46.6563C49.8157 46.6563 49.8415 46.6563 49.8646 46.6538C50.1554 46.6267 50.315 46.4004 50.4436 46.2158C50.5697 46.0362 50.6572 45.9255 50.7859 45.9181C50.8682 45.9181 51.0432 46.0485 51.1539 46.1691C51.213 46.2331 51.3134 46.2404 51.3803 46.1838C51.4472 46.1272 51.4549 46.0313 51.3958 45.9673C51.3391 45.9058 51.0303 45.6007 50.7679 45.6105C50.4668 45.6253 50.3047 45.8566 50.1734 46.0436C50.0473 46.2232 49.9598 46.3339 49.8312 46.3462C49.6047 46.3684 49.4091 46.2084 49.1878 46.0214C48.9588 45.8295 48.6963 45.613 48.3541 45.6105C47.9989 45.6105 47.7185 45.8123 47.4585 46.0116C47.2321 46.1838 47.0185 46.3462 46.7715 46.3462H46.7689C46.5116 46.3462 46.2877 46.1838 46.0535 46.0116C45.7859 45.8148 45.508 45.613 45.14 45.613C44.772 45.613 44.4889 45.8172 44.2187 46.0141C43.982 46.1863 43.7581 46.3487 43.5059 46.3487C43.2537 46.3487 43.0298 46.1863 42.7931 46.0141C42.5203 45.8172 42.2398 45.613 41.8718 45.613C41.5038 45.613 41.2259 45.8172 40.9583 46.0116C40.7215 46.1838 40.5002 46.3462 40.2429 46.3462H40.2403C39.9933 46.3462 39.7797 46.1838 39.5532 46.0116C39.2933 45.8148 39.0257 45.6105 38.6654 45.6105H38.6551C38.3103 45.613 38.0504 45.832 37.8188 46.0239C37.5975 46.2084 37.4071 46.3684 37.1755 46.3487C37.0468 46.3364 36.9593 46.2257 36.8332 46.046C36.702 45.859 36.5399 45.6277 36.2388 45.613C35.9712 45.6031 35.6675 45.9083 35.6109 45.9698C35.5517 46.0337 35.5594 46.1322 35.6263 46.1863L35.6186 46.1838Z" fill="#3DB6D3"/>
<path d="M50.6727 47.1705C50.4489 47.2197 50.3151 47.3526 50.1967 47.4683C50.0809 47.5815 49.9908 47.67 49.8313 47.6848C49.6022 47.7069 49.4092 47.547 49.1879 47.36C48.9589 47.1681 48.6964 46.9515 48.3542 46.9466H48.3439C47.9836 46.9466 47.716 47.1509 47.4561 47.3477C47.2296 47.5199 47.016 47.6823 46.769 47.6823H46.7664C46.5091 47.6823 46.2852 47.5199 46.051 47.3477C45.7834 47.1509 45.5055 46.9491 45.1375 46.9491C44.7695 46.9491 44.4864 47.1533 44.2162 47.3502C43.9795 47.5224 43.7556 47.6848 43.5034 47.6848C43.2512 47.6848 43.0274 47.5224 42.7906 47.3502C42.5178 47.1533 42.2373 46.9491 41.8693 46.9491C41.5014 46.9491 41.226 47.1533 40.9558 47.3477C40.7191 47.5199 40.4978 47.6823 40.2404 47.6823H40.2379C39.9908 47.6823 39.7772 47.5199 39.5508 47.3477C39.2883 47.1484 39.0284 46.9466 38.6552 46.9466C38.3104 46.9491 38.0505 47.1681 37.8189 47.36C37.5976 47.5445 37.402 47.7045 37.1756 47.6848C37.016 47.67 36.926 47.5815 36.8102 47.4683C36.6918 47.3526 36.558 47.2197 36.3341 47.1705C36.2466 47.1509 36.1617 47.2025 36.1411 47.2862C36.1205 47.3698 36.1745 47.451 36.262 47.4707C36.3933 47.5003 36.4808 47.5839 36.5811 47.6823C36.7098 47.8078 36.8693 47.9653 37.1473 47.9899C37.173 47.9899 37.1962 47.9924 37.2193 47.9924C37.5513 47.9924 37.806 47.7808 38.0351 47.5913C38.2409 47.4191 38.4365 47.2567 38.6604 47.2542H38.6655C38.9126 47.2542 39.1262 47.4166 39.3526 47.5888C39.6125 47.7857 39.8802 47.9899 40.2404 47.9899H40.2456C40.611 47.9899 40.8889 47.7857 41.1565 47.5913C41.3933 47.4191 41.6172 47.2542 41.8745 47.2542C42.1318 47.2542 42.3609 47.4191 42.6027 47.5938C42.8704 47.7881 43.1509 47.9899 43.5111 47.9899C43.8714 47.9899 44.1493 47.7881 44.4195 47.5938C44.6588 47.4191 44.8879 47.2542 45.1478 47.2542C45.4077 47.2542 45.629 47.4166 45.8657 47.5913C46.1334 47.7881 46.4113 47.9899 46.7767 47.9899H46.7819C47.1421 47.9899 47.4097 47.7857 47.6697 47.5888C47.8961 47.4166 48.1097 47.2542 48.3567 47.2542H48.3619C48.5883 47.2542 48.7813 47.4191 48.9872 47.5913C49.2291 47.7931 49.507 48.0219 49.875 47.9899C50.1529 47.9653 50.3125 47.8078 50.4411 47.6823C50.5415 47.5839 50.629 47.4978 50.7602 47.4707C50.8477 47.451 50.9018 47.3698 50.8812 47.2862C50.8606 47.2025 50.7757 47.1509 50.6882 47.1705H50.6727Z" fill="#3DB6D3"/>
<path d="M49.5456 48.8093C49.4427 48.7576 49.3474 48.6936 49.2445 48.6272C48.9846 48.4599 48.717 48.2877 48.3516 48.2827C47.9964 48.2827 47.716 48.4845 47.456 48.6838C47.2296 48.856 47.016 49.0184 46.769 49.0184H46.7664C46.5091 49.0184 46.2852 48.856 46.051 48.6838C45.7834 48.487 45.5055 48.2852 45.1375 48.2852C44.7695 48.2852 44.4864 48.4894 44.2162 48.6863C43.9795 48.8585 43.7556 49.0209 43.5034 49.0209C43.2512 49.0209 43.0273 48.8585 42.7906 48.6863C42.5178 48.4894 42.2373 48.2852 41.8693 48.2852C41.5013 48.2852 41.2234 48.4894 40.9558 48.6838C40.719 48.856 40.4977 49.0184 40.2404 49.0184H40.2378C39.9908 49.0184 39.7772 48.856 39.5507 48.6838C39.2908 48.487 39.0232 48.2827 38.6629 48.2827H38.6526C38.2872 48.2852 38.0196 48.4599 37.7597 48.6272C37.6568 48.6936 37.5616 48.7552 37.4586 48.8093C37.3814 48.8487 37.3505 48.9422 37.3917 49.0184C37.4329 49.0923 37.5307 49.1218 37.6104 49.08C37.7262 49.0209 37.8343 48.9495 37.9398 48.8831C38.1792 48.7281 38.3876 48.5952 38.6552 48.5928C38.91 48.5928 39.121 48.7527 39.3474 48.9274C39.6074 49.1243 39.875 49.326 40.2353 49.3285H40.2404C40.6058 49.3285 40.8837 49.1267 41.1514 48.9299C41.3881 48.7576 41.612 48.5928 41.8693 48.5928C42.1292 48.5928 42.3557 48.7576 42.5976 48.9323C42.8652 49.1267 43.1457 49.3285 43.506 49.3285C43.8662 49.3285 44.1442 49.1267 44.4144 48.9323C44.6537 48.7576 44.8801 48.5928 45.1426 48.5928C45.3999 48.5928 45.6238 48.7552 45.8606 48.9299C46.1282 49.1267 46.4061 49.3285 46.7715 49.3285H46.7767C47.1369 49.3285 47.4046 49.1243 47.6645 48.9274C47.8935 48.7552 48.1122 48.5952 48.3567 48.5928C48.6243 48.5952 48.8302 48.7281 49.0721 48.8831C49.1776 48.9495 49.2831 49.0209 49.4015 49.08C49.4813 49.1193 49.579 49.0923 49.6202 49.0184C49.6614 48.9446 49.6331 48.8487 49.5559 48.8093H49.5456Z" fill="#3DB6D3"/>
<path d="M48.632 49.673C48.5368 49.6385 48.4467 49.6237 48.3515 49.6213C47.9784 49.6213 47.7159 49.823 47.4534 50.0224C47.227 50.1946 47.0134 50.357 46.7664 50.357H46.7638C46.5065 50.357 46.2826 50.1946 46.0484 50.0199C45.7808 49.823 45.5028 49.6213 45.1349 49.6213C44.7669 49.6213 44.4838 49.8255 44.2136 50.0224C43.9769 50.1946 43.753 50.357 43.5008 50.357C43.2486 50.357 43.0247 50.1946 42.788 50.0224C42.5152 49.8255 42.2347 49.6213 41.8667 49.6213C41.5013 49.6213 41.2234 49.8255 40.9532 50.0199C40.7164 50.1921 40.4951 50.3545 40.2378 50.3545H40.2352C39.9882 50.3545 39.7746 50.1921 39.5481 50.0199C39.2857 49.8206 39.0103 49.6237 38.65 49.6188C38.5574 49.6188 38.4622 49.636 38.3695 49.6705C38.2872 49.7 38.2435 49.7886 38.2743 49.8698C38.3052 49.9485 38.3979 49.9904 38.4828 49.9608C38.542 49.9412 38.5986 49.9289 38.6552 49.9289H38.6603C38.9074 49.9289 39.121 50.0913 39.3474 50.2635C39.6073 50.4603 39.875 50.6646 40.2352 50.6646H40.2404C40.6058 50.6646 40.8837 50.4603 41.1513 50.266C41.3881 50.0937 41.612 49.9289 41.8693 49.9289C42.1266 49.9289 42.3557 50.0937 42.5975 50.2684C42.8652 50.4628 43.1457 50.6646 43.5059 50.6646C43.8662 50.6646 44.1441 50.4628 44.4143 50.2684C44.6536 50.0937 44.8827 49.9289 45.1426 49.9289C45.4025 49.9289 45.6238 50.0913 45.8605 50.266C46.1282 50.4628 46.4061 50.6646 46.7715 50.6646H46.7767C47.1369 50.6646 47.4045 50.4603 47.6645 50.2635C47.8909 50.0913 48.1045 49.9289 48.3515 49.9289H48.3567C48.4133 49.9289 48.4699 49.9387 48.5291 49.9608C48.614 49.9904 48.7067 49.951 48.7375 49.8698C48.7684 49.7886 48.7247 49.7 48.6423 49.6705L48.632 49.673Z" fill="#3DB6D3"/>
</svg>
