<?xml version="1.0" encoding="UTF-8"?>
<svg id="Layer_1" xmlns="http://www.w3.org/2000/svg" version="1.1" viewBox="0 0 233.78 266.15">
  <!-- Generator: Adobe Illustrator 29.4.0, SVG Export Plug-In . SVG Version: 2.1.0 Build 152)  -->
  <defs>
    <style>
      .st0 {
        fill: #c64c3d;
      }

      .st1 {
        fill: #333;
      }
    </style>
  </defs>
  <path class="st1" d="M189.89,41.99h-51.58v31.84c-13.01,3.89-26.01,8.57-39.02,14.06-2.4-1.09-4.42-2.22-6.01-3.4-3.72-2.74-5.57-6.13-5.57-10.17,0-2.58,1.09-4.8,3.27-6.66,2.18-1.85,5.45-2.78,9.81-2.78,1.77,0,3.27.04,4.48.12,1.21.08,2.14.2,2.78.36l1.94-21.79c-2.42-.32-4.8-.61-7.14-.85-2.34-.24-4.72-.36-7.14-.36-8.4,0-15.1,1.37-20.1,4.12-5.01,2.75-8.6,6.26-10.77,10.53-2.18,4.28-3.27,8.68-3.27,13.2,0,5.65,1.29,10.7,3.87,15.13,2.58,4.44,6.3,8.44,11.14,11.99.23.17.48.34.72.51-11.69,5.58-22.83,11.38-33.4,17.41l11.14,26.63c12.27,1.94,23.69,5.37,34.26,10.29,10.57,4.93,20.1,10.98,28.57,18.16,8.23,6.98,15.04,14.84,20.45,23.56v30.11h42V65.19h9.58v-23.19ZM124.52,147.2c-7.43-5.81-15.22-10.57-23.37-14.29-8.15-3.71-15.94-6.37-23.37-7.99,10.81-5.81,21.71-11.05,32.69-15.74,9.16-3.91,18.44-7.36,27.84-10.37v61.75c-4.06-4.88-8.65-9.34-13.79-13.37Z"/>
  <path class="st0" d="M138.02,223.74s.03,0,.05-.01c0,0,.52-.22.78-.56.21-.28.39-.63.54-1.09.08-.17.12-.33.12-.47h0s0-.07-.01-.1c-.04-.18-.14-.34-.26-.5-.24-.34-.55-.72-.7-1.04-.03-.11-.04-.23-.01-.36.16-.7.83-.19,1.29-.41.22,0,.38-.11.42-.51.05-.59-.06-1.63-.2-2.99.11-2.97.69-13.16.9-14.51.2-1.32,1.04-18.48,1.59-23.04.1-.46.14-.67.25-.78.02,0,.05,0,.07.01.22.23.54,2.21.62,2.83.05.39.21,2.21.32,4.23.06,1.59.08,3.46.03,5.63,0,.08.01.16.02.24.01,2.56.26,5.9.34,8.3,0,.44,0,.8.03,1.08.04,2.8.09,6.73.17,8.72.09,2.03.39,7.13.39,7.77s-.13.48-.56.95c-.02.02-.04.05-.07.07-.14.11-.29.23-.43.35-.18.15-.36.31-.5.5-.13.17-.22.33-.2.46,0,.03,0,.06.01.09-.01.2.03.42.14.69.09.21.18.36.27.49.16.26.37.49.63.64.12.14.19.33.17.73-.02.46-.12.92-.23,1.32-.1.15-.47.73-.16,1.02.36.33,1.74.39,2.03.39.34.04,3.41.3,5.01.3s4.27-.22,4.57-.52c.3-.3.39-.48.22-.56-.17-.09-.47-.86-.56-1.04-.09-.17-.6-.26-.82-.3-.22-.04-2.33-.82-2.46-1.68-.13-.86.26-1.6.43-1.99.17-.39.59-1.02-1.78-1.76,0,0-.16-.26.75-2.07.91-1.81-.17-2.86.04-5.28.22-2.42.04-7.64.65-10.32.6-2.68.78-6.04,1.25-9.41.47-3.37,2.03-11.83,2.11-14.25,0,0,.91-.09,1.38-.26.47-.17-1.55-10.36-1.6-13.04l-.04-2.68s.52.22,1.25,0c.73-.22,2.03-.17,2.68-.39.65-.22,1.04-.91,1.29-1.51.26-.6,1.04-2.94,1.34-3.84.3-.91-.3-1.25-.39-3.07-.09-1.81-.99-3.32-1.21-4.45-.22-1.12-.78-1.73-.78-2.16s.04-.99-.09-1.73c-.13-.73-.22-.69-.43-1.17-.22-.47-.39-.91-.43-1.29-.04-.39-.22-.82-.82-1.38-.6-.56-.73-.26-1.08-.47-.34-.22-6-2.68-6.26-3.2-.26-.52-.22-1.6-.26-1.81-.04-.22-.32-.45-.32-.45,0,0,.01.06.03.15-.02-.09-.03-.15-.03-.15.03-.17-.23-.06.06-.37.29-.32.66-.63.92-2.56.26-1.93.17-2.13.32-2.25.14-.12.2-.2.26-.37.06-.17.06-1.01.06-1.35s.14-.81.12-1.09c-.03-.29,0-.17-.23-.75-.23-.58-.09-1.01-.26-2.04-.17-1.04-.66-2.07-.89-2.45-.23-.37-1.15-1.61-3.91-1.61s-4.43,2.1-4.75,2.82c-.32.72-.66,3.74.03,5.21.07.14-.29-.17-.46-.03-.17.14-.2.63,0,.98.2.35.06.46.29,1.09.23.63.23.66.55,1.01.32.35.58.4.72.55.14.14.2.83.32,1.41.12.58.06.46.12.83,0,0-.09,0-.2.12.01-.02.02-.05.03-.07,0,0-.03.05-.07.13-.03.04-.06.1-.09.17-.28.5-.84,1.48-1.13,1.73-.39.35-6.95,3.84-7.42,4.02-.47.17-.73.22-.95.39-.22.17-.22.6-.35.95-.13.35-1.99,4.27-2.24,7.17,0,0-.47,3.48-.71,5.36-.17-.13-1.35,4.49-.02,5.34.72.46,1.9,1.12,1.9,1.12,0,0-1.51,6.39-1.86,8.29-.34,1.9-.43,6.56-.69,7.69,0,0,1.73.39,1.98.43.26.04.39,2.16.26,3.89-.13,1.73-.39,11.87-.13,13.56.26,1.68.3,5.35-.04,7.3-.35,1.94-1.47,12.87-1.17,13.73.3.86,2.11,3.8,2.07,4.4-.04.6-.86,1.04-.99,1.99-.13.95.35,1.77.35,1.77,0,0-.56.78-1.21.95-.65.17-1.12.26-1.17.47-.04.22-.13,1.51,0,1.6.13.09.91.47,2.76.47s5.05,0,6.34-.33Z"/>
</svg>