<svg width="61" height="61" viewBox="0 0 61 61" fill="none" xmlns="http://www.w3.org/2000/svg">
<path d="M26.0614 59.9936C25.9439 59.8961 26.0525 59.6323 26.2098 59.5969C26.263 59.5836 26.3162 59.5747 26.3694 59.5681C23.2824 59.1359 20.3483 58.2207 17.6447 56.8977C17.4298 57.1747 17.2613 57.4783 17.0907 57.7819C19.8829 59.1492 22.9123 60.0999 26.099 60.5564C26.2386 60.5321 26.4314 60.5055 26.7262 60.4656C26.4447 60.2683 26.2386 60.1443 26.0591 59.9936H26.0614ZM23.9583 59.9138C23.6614 59.9492 23.4043 59.7587 23.3821 59.4861C23.3688 59.2999 23.524 59.1891 23.8187 59.1758C24.1843 59.1603 24.3882 59.26 24.3993 59.455C24.4104 59.6722 24.2087 59.8828 23.9583 59.9138Z" fill="#3DB6D3"/>
<path d="M60.4349 31.2755C60.2643 31.2445 60.2111 31.1248 60.189 30.9985C60.118 30.573 60.2 30.1719 60.497 29.8239C60.5502 29.7619 60.6831 29.7021 60.7629 29.7176C60.7917 29.722 60.8227 29.7397 60.8538 29.7597C60.8383 29.0771 60.8006 28.4012 60.7408 27.732C60.6233 27.794 60.477 27.8228 60.3131 27.8118C59.8942 27.7785 59.6593 27.4705 59.8144 27.127C59.8942 26.9497 60.0161 26.7857 60.1424 26.6284C60.2023 26.553 60.3086 26.4998 60.364 26.5176C60.4593 26.5353 60.5457 26.5685 60.6233 26.6129C60.5103 25.7087 60.3552 24.8178 60.1624 23.9403C60.1003 23.989 60.0338 24.0356 59.9563 24.0777C59.7369 24.1996 59.7125 24.2904 59.6571 24.4943C59.564 24.84 59.3934 25.168 59.307 25.5159C59.5773 27.1159 59.7191 28.7602 59.7191 30.4356C59.7191 32.8533 59.4244 35.2046 58.8748 37.4561C59.0034 37.4805 59.0543 37.5935 59.0543 37.7087C59.0543 37.9791 58.8682 38.2672 58.6111 38.4644C55.123 50.7946 43.81 59.8517 30.4293 59.8517C29.2659 59.8517 28.1202 59.7808 26.9922 59.6479C27.2803 59.7786 27.4753 60.0445 27.4975 60.4013C27.5041 60.5077 27.513 60.6163 27.5152 60.7249C28.1047 60.7803 28.6986 60.8202 29.2969 60.8423C29.3745 60.5742 29.585 60.49 29.9706 60.5786C30.1811 60.6274 30.3939 60.6828 30.5911 60.7581C30.7063 60.8024 30.8171 60.8379 30.9301 60.86C31.0786 60.8578 31.2271 60.8556 31.3756 60.8512C31.4265 60.8379 31.4775 60.8224 31.5307 60.8002C31.7412 60.7116 31.9185 60.7337 32.0626 60.8224C47.8476 59.9825 60.4793 47.0583 60.8493 31.1558C60.7385 31.2555 60.6034 31.3087 60.4305 31.2777L60.4349 31.2755ZM55.1629 48.1043C54.9413 48.3282 54.3895 48.3703 54.1767 48.1752C54.1346 48.1354 54.1346 48.06 54.1147 48.0002C54.1546 47.65 54.4338 47.4927 54.7995 47.6301C54.928 47.6788 55.0543 47.7542 55.154 47.8428C55.2294 47.9093 55.2493 48.0201 55.1651 48.1065L55.1629 48.1043Z" fill="#3DB6D3"/>
<path d="M14.3383 5.14577C14.3982 5.13469 14.4979 5.1502 14.5267 5.18787C14.6353 5.33192 14.6109 5.49591 14.5577 5.65103C14.5356 5.71973 14.4979 5.76405 14.4536 5.79508C15.1937 5.30976 15.9583 4.85546 16.7428 4.43662C16.5699 4.49424 16.3882 4.44992 16.2198 4.36349C16.0225 4.25934 15.9428 4.08427 15.8652 3.90033C15.8453 3.85158 15.8275 3.80283 15.8098 3.75407C14.981 4.21058 14.1743 4.70255 13.3943 5.23219C13.5694 5.23441 13.7466 5.24771 13.9217 5.25879C14.0591 5.2189 14.1965 5.17236 14.3361 5.14577H14.3383Z" fill="#3DB6D3"/>
<path d="M11.6724 7.86267C12.5522 7.12472 13.4741 6.43774 14.4359 5.80616C14.3516 5.85269 14.2431 5.85491 14.1256 5.83718C13.9328 5.84826 13.7932 5.77956 13.7068 5.62444H13.7023C13.5273 5.6333 13.3566 5.61779 13.2325 5.49369C13.2059 5.4671 13.1838 5.42499 13.1771 5.3851C12.4325 5.89923 11.7123 6.44438 11.0187 7.02056C11.3001 7.2466 11.5129 7.53248 11.6724 7.86489V7.86267Z" fill="#3DB6D3"/>
<path d="M42.4138 3.29092C42.3717 3.38842 42.3296 3.4682 42.2875 3.53912C50.0792 7.01835 56.0892 13.8128 58.5313 22.1297C58.9147 21.9791 59.3003 21.9081 59.677 22.0123C58.0438 16.3524 54.8083 11.3641 50.4958 7.57458C50.2786 7.70755 50.0083 7.75852 49.7335 7.69647C49.6293 7.67209 49.5296 7.62999 49.4277 7.59675C49.062 7.47265 48.9645 7.34411 49.0044 6.91641C49.0199 6.87209 49.0598 6.71475 49.1263 6.56849C49.1418 6.53525 49.1595 6.50865 49.175 6.47763C47.934 5.50477 46.6155 4.62721 45.2326 3.8538C45.195 4.02222 45.0997 4.1707 44.9734 4.30588C44.9335 4.34798 44.8515 4.38122 44.7872 4.38344C44.5013 4.38344 44.0825 4.13967 44.0071 3.92471C43.9207 3.67873 44.0315 3.47263 44.1933 3.29757C43.8675 3.13136 43.5396 2.97402 43.2071 2.81889C43.0387 2.90754 42.8304 2.89646 42.6332 2.90089C42.4581 2.9851 42.4182 3.12914 42.4138 3.29092Z" fill="#3DB6D3"/>
<path d="M12.8336 55.0207C13.0641 55.1537 13.1727 55.3265 13.2214 55.5171C13.771 55.896 14.3317 56.255 14.9057 56.5963C15.2159 56.4722 15.4154 56.2196 15.6148 55.9492C15.6414 55.9138 15.6702 55.8827 15.699 55.8495C14.7683 55.3021 13.8685 54.706 13.0065 54.0634C13.0065 54.0678 13.0065 54.0722 13.0043 54.0767C12.9555 54.3337 12.7494 54.5398 12.4724 54.6129C12.1777 54.6905 12.0336 54.4933 11.9539 54.265C11.863 53.824 11.9228 53.5891 12.222 53.4584C11.1428 52.5963 10.1256 51.6589 9.17712 50.655C9.12836 50.6838 9.07739 50.7171 9.03307 50.7104C8.75385 50.6705 8.61645 50.4711 8.47462 50.2827C8.30842 50.0611 8.2641 49.824 8.34387 49.7376C5.08403 45.9791 2.75494 41.3852 1.72668 36.3215C1.62474 36.3525 1.52059 36.3215 1.41865 36.1907H1.41643C1.33 36.1353 1.24358 36.0777 1.15493 36.0223C0.922247 35.9314 0.691775 35.8406 0.461304 35.7475C1.1505 39.6434 2.5843 43.2844 4.60758 46.5198C4.79594 46.2916 4.98209 46.0633 5.17932 45.8395C5.21035 45.8041 5.3278 45.7952 5.37212 45.8196C5.40979 45.8395 5.43639 45.9437 5.41201 45.9836C5.19262 46.327 5.04636 46.686 4.9555 47.0606C6.93667 50.0877 9.44305 52.7404 12.3439 54.8899C12.5079 54.8744 12.6741 54.9276 12.8314 55.0185L12.8336 55.0207Z" fill="#3DB6D3"/>
<path d="M16.8891 4.35906C19.7789 2.83883 22.9501 1.79063 26.303 1.31196C26.1235 1.16792 25.842 1.05933 25.8996 0.802264C25.9462 0.593953 26.2099 0.538551 26.4093 0.498662C26.7285 0.436612 26.9589 0.56736 27.0631 0.853234C27.0742 0.882043 27.072 0.915284 27.0764 0.948525C27.1916 0.981766 27.2559 1.05046 27.2758 1.15684V1.15905C27.2913 1.1657 27.3046 1.17456 27.3179 1.18343C28.3418 1.07484 29.3811 1.01722 30.4315 1.01722C32.3152 1.01722 34.1589 1.19894 35.9451 1.54243C36.1955 1.54686 36.4482 1.54022 36.6919 1.57567C36.847 1.59783 36.9579 1.66875 37.031 1.77069C37.2216 1.81501 37.4121 1.86376 37.6027 1.9103C37.6249 1.87484 37.6493 1.83939 37.6759 1.80393C37.862 1.54686 38.1612 1.53578 38.3939 1.77734C38.4869 1.87263 38.6066 1.979 38.6266 2.09423C38.6332 2.12748 38.6354 2.16072 38.6398 2.19396C39.2471 2.37346 39.8476 2.56847 40.4393 2.78565C40.4393 2.78565 40.4393 2.78122 40.4393 2.779C40.4327 2.49313 40.4238 2.20504 40.4482 1.91916C40.4548 1.83939 40.4703 1.7729 40.4903 1.71085C37.339 0.602817 33.9529 4.57764e-05 30.4293 4.57764e-05C25.4742 4.57764e-05 20.7894 1.19229 16.652 3.30199C16.7495 3.49701 16.8802 3.68094 16.9644 3.88039C17.0354 4.05103 17.042 4.23053 16.8869 4.35241L16.8891 4.35906Z" fill="#3DB6D3"/>
<path d="M0.698429 34.9231C0.920036 35.0362 1.08181 35.2001 1.21699 35.3907C1.29012 35.4594 1.36325 35.5259 1.43638 35.5946C1.43638 35.5946 1.43638 35.5946 1.43638 35.5924C1.49178 35.599 1.54718 35.6101 1.59815 35.6234C1.29898 33.9392 1.14164 32.2062 1.14164 30.4378C1.14164 25.6378 2.29179 21.1037 4.33057 17.0993C4.31949 17.0394 4.33057 16.9729 4.3616 16.9042C4.40592 16.8001 4.47018 16.7292 4.54331 16.6937C6.26964 13.4272 8.58986 10.5242 11.36 8.13081C11.2802 8.07763 11.2004 8.01558 11.1273 7.9358C10.919 7.71198 10.5888 7.62998 10.2253 7.72527C10.2165 7.72749 10.2054 7.72971 10.1943 7.73192C8.73391 9.03497 7.39983 10.4754 6.21202 12.0355C6.25412 12.1441 6.25412 12.2616 6.23861 12.3835C6.20094 12.6538 5.96825 12.8976 5.72891 12.9419C5.67573 12.9308 5.61368 12.9286 5.56714 12.9109C2.06353 17.866 0.000366211 23.9137 0.000366211 30.4356C0.000366211 31.9691 0.115602 33.476 0.334993 34.9497C0.439149 34.8766 0.569897 34.8589 0.696213 34.9231H0.698429ZM5.26132 13.6976C5.28127 13.6932 5.31008 13.7375 5.33667 13.7574C5.30786 13.8062 5.27683 13.8571 5.24803 13.9059C5.22365 13.8837 5.18598 13.866 5.1749 13.8416C5.14387 13.7707 5.1749 13.7131 5.26132 13.6976Z" fill="#3DB6D3"/>
<path d="M18.0004 28.6285V42.2107C18.0004 42.2447 18.0963 42.2736 18.1035 42.3138C18.1437 42.5386 18.1241 42.8089 18.2066 43.0337C18.3077 43.3091 18.6604 43.8454 18.8244 44.063C19.139 44.4786 19.8393 44.7169 20.3179 44.8345C20.3591 44.8448 20.3818 44.9304 20.421 44.9376C22.723 45.1604 25.7862 44.5942 27.9407 45.0407C28.1738 45.0892 29.0402 45.4935 29.2794 45.6585C29.43 45.7627 29.5136 46.0102 29.7425 45.9669V28.4738H18.1551C18.1437 28.4738 18.0004 28.6172 18.0004 28.6285ZM20.2663 39.9984C20.4488 40.0149 20.6551 39.9746 20.8325 39.9984C20.8707 40.0035 20.8985 40.0974 20.9356 40.1015C21.6277 40.1675 22.2785 39.9097 22.8932 39.9984C22.9262 40.0035 23.0737 40.182 23.2542 40.1015V39.0722C23.1407 39.0567 22.9943 39.0959 22.8932 39.0722C22.8127 39.0536 22.1083 38.5235 22.0176 38.4039C21.0842 37.1673 20.718 35.777 20.3694 34.3908L20.2663 33.4131C20.3674 33.445 20.5241 33.5874 20.5757 33.6699C20.7469 33.9442 20.9006 34.2413 21.0904 34.4929C21.1832 34.6156 21.3286 34.7796 21.5019 34.7497C21.5503 33.9989 21.4369 33.1769 21.5019 32.4343C21.505 32.3972 21.5999 32.3693 21.605 32.3312L21.7081 31.7649L21.9144 32.3312C22.2218 32.7272 22.3497 33.2491 22.5322 33.6688C22.559 33.7297 22.7467 34.0278 22.7901 34.0288C23.0479 33.8627 22.9056 33.5925 22.9448 33.3605C23.0304 32.8479 23.3387 32.2291 23.4594 31.7144C23.5069 31.5112 23.3119 31.175 23.6657 31.2513L23.7688 31.7144C23.9875 32.1094 23.9617 32.6571 24.1803 33.0521L24.2835 34.0298L24.5929 33.773C24.8703 33.2419 25.0353 32.656 25.3138 32.1269C25.3778 32.0052 25.4675 31.8609 25.5717 31.767L25.6232 32.5385C25.6274 32.5756 25.7233 32.6045 25.7264 32.6416C25.7769 33.3254 25.6892 34.0608 25.7264 34.7508C25.8635 34.7786 25.9667 34.7054 26.0358 34.596C26.2266 34.2949 26.4504 33.9958 26.6536 33.6699C26.7051 33.5874 26.8609 33.444 26.963 33.4131L26.8598 34.1845C26.5515 35.4057 26.2699 36.864 25.5211 37.9913C25.2829 38.3502 24.6341 38.9392 24.234 39.0722C24.1618 39.0959 23.9988 39.0495 23.9761 39.0722C23.9586 39.0897 23.9988 39.1712 23.9761 39.2269C23.9576 39.2713 23.8792 39.2939 23.873 39.33C23.8493 39.4651 23.8658 39.6941 23.873 39.8447C23.8751 39.8921 24.0411 39.9004 23.873 40.1015C24.0535 40.182 24.201 40.0035 24.234 39.9984C24.9312 39.8973 25.6573 40.2077 26.3968 40.1015C26.4411 40.0953 26.5669 39.9324 26.8083 39.9984C26.9754 40.0437 26.9754 40.2067 26.8083 40.3067C26.6278 40.415 26.3854 40.4573 26.1905 40.513C26.1482 40.5244 26.1255 40.6089 26.0873 40.6162C25.976 40.6358 25.6841 40.6358 25.5727 40.6162C25.4324 40.5914 25.0178 40.3779 24.8518 40.3078C24.0133 40.5615 23.3542 40.7709 22.5858 40.3078H22.4827C22.3074 40.4893 21.9866 40.4635 21.7618 40.5141C21.7216 40.5233 21.6978 40.61 21.6586 40.6172C21.4503 40.6554 20.7345 40.4862 20.5252 40.4109C20.4643 40.3893 20.4375 40.2541 20.2673 40.3078V39.9994L20.2663 39.9984ZM20.421 40.8214C20.8387 40.8276 21.1512 41.1659 21.5545 41.1298C21.6184 41.0823 21.8247 40.9349 21.8639 40.9235C22.066 40.8688 22.5848 40.7843 22.7911 40.8204C22.9252 40.8441 23.3109 41.1081 23.4089 41.1288C23.677 41.1865 23.776 41.0741 23.9235 41.0256C24.2556 40.9184 24.6548 40.7327 25.057 40.8193C25.1426 40.8379 25.4861 41.1092 25.5717 41.1277C25.8429 41.1865 26.1915 41.1143 26.3957 40.9214C26.5504 40.9194 26.6206 40.7657 26.8072 40.8183C26.9186 40.8503 26.998 41.0555 26.9619 41.1783C26.9052 41.3691 26.5948 41.2835 26.4989 41.4351C26.2255 41.5351 25.7924 41.596 25.4685 41.5382C25.4324 41.532 25.0931 41.3392 25.057 41.3319C24.4 41.2144 23.9122 41.664 23.2026 41.5382C23.1665 41.532 22.8272 41.3392 22.7911 41.3319C22.263 41.2381 21.7267 41.6599 21.0398 41.5382C20.9284 41.3773 20.3261 41.3773 20.2673 41.1783C20.2199 41.0184 20.3014 40.9122 20.422 40.8183L20.421 40.8214Z" fill="#3DB6D3"/>
<path d="M30.3604 45.9669C30.6244 45.9968 30.744 45.6771 30.9266 45.5554C31.3752 45.2573 32.0384 45.1274 32.4716 44.9376C34.9355 44.8829 37.4954 45.0572 39.8882 44.8345C40.6122 44.4673 41.3775 44.0259 41.691 43.24C41.8374 43.0915 41.8457 42.8295 41.8973 42.6222C41.9076 42.5809 42.0004 42.5531 42.0004 42.519V28.4738H30.3614V45.9669H30.3604ZM31.3391 36.1916C32.4169 35.5253 33.4431 34.2835 34.5322 33.6193C34.8922 33.3997 35.0541 33.3914 35.4594 33.311C35.4997 33.3027 35.5244 33.214 35.5626 33.2078C35.8163 33.1707 36.5445 33.1707 36.7982 33.2078C36.8363 33.213 36.8611 33.3017 36.9013 33.311C36.9952 33.3316 37.1241 33.2872 37.2107 33.311C37.2551 33.3233 37.9636 33.6761 38.0348 33.7225C38.2596 33.872 38.4164 34.2588 38.7041 34.2371V34.4434C39.5519 34.8704 40.2141 35.7687 41.0216 36.2957L41.4847 36.7073C41.33 36.6712 41.3176 36.7341 41.2269 36.8104C40.4719 37.4395 39.719 38.1398 38.961 38.7659C38.5711 39.0866 38.1534 39.4497 37.7254 39.6921C37.6026 39.7612 37.3066 39.9746 37.2107 40.0004C37.1251 40.0242 36.9952 39.9798 36.9013 40.0004C36.8611 40.0097 36.8363 40.0974 36.7982 40.1036C35.8607 40.2407 35.0263 40.0128 34.2228 39.5889C33.3369 38.737 32.3426 38.0295 31.4423 37.2219C31.2442 37.0445 31.071 36.8362 30.876 36.6557L31.3391 36.1926V36.1916Z" fill="#3DB6D3"/>
<path d="M33.966 37.0662C33.9846 37.1611 33.9423 37.2921 33.966 37.3746C33.9784 37.4148 34.0557 37.4364 34.0691 37.4777C34.0887 37.5386 34.0506 37.619 34.0691 37.684C34.0826 37.7324 34.2269 37.8201 34.2754 37.8902C34.2919 37.915 34.2599 37.9717 34.2754 37.9934C34.3765 38.1316 34.6168 38.278 34.6869 38.4049C34.7137 38.4534 34.6673 38.54 34.6869 38.5596C34.7065 38.5792 34.7932 38.5328 34.8416 38.5596C34.9128 38.5988 34.9953 38.7504 35.0479 38.7659C35.116 38.7855 35.2026 38.7422 35.2542 38.7659C35.3181 38.7958 35.5265 38.9639 35.5636 38.9722C35.7255 39.0072 36.5228 39.0031 36.6971 38.9722C36.7352 38.9649 36.7569 38.8824 36.8002 38.869C36.8611 38.8494 36.9415 38.8876 37.0065 38.869C37.056 38.8546 37.4211 38.5307 37.5211 38.4575C37.5438 38.441 37.6026 38.474 37.6243 38.4575C37.8089 38.3203 38.2101 37.7933 38.2936 37.5829C38.3163 37.5251 38.272 37.4406 38.2936 37.3766C38.3081 37.3343 38.3854 37.3137 38.3968 37.2735C38.4205 37.1889 38.3761 37.0579 38.3968 36.9651C38.4061 36.9249 38.4927 36.9012 38.4999 36.862C38.5174 36.7681 38.5174 36.5433 38.4999 36.4505C38.4927 36.4113 38.4061 36.3875 38.3968 36.3473C38.3761 36.2545 38.4205 36.1225 38.3968 36.0389C38.3854 35.9987 38.3081 35.9781 38.2936 35.9358C38.272 35.8719 38.3163 35.7873 38.2936 35.7295C38.2627 35.6522 38.0389 35.2871 37.9842 35.2149C37.8955 35.0973 37.6387 34.8405 37.5211 34.7518C37.5005 34.7363 37.4428 34.7683 37.418 34.7518C37.2922 34.6641 37.1622 34.5053 37.0065 34.4434C36.9508 34.4217 36.8673 34.462 36.8002 34.4434C36.7579 34.4321 36.7352 34.3475 36.6971 34.3403C36.5052 34.3062 35.7565 34.3062 35.5636 34.3403C35.5254 34.3475 35.5027 34.431 35.4605 34.4434C35.3934 34.462 35.3099 34.4207 35.2542 34.4434C34.9757 34.5538 34.8293 34.8508 34.6364 34.9581C34.5879 34.9849 34.5013 34.9385 34.4817 34.9581C34.4621 34.9777 34.5085 35.0633 34.4817 35.1128C34.4239 35.2159 34.0877 35.5645 34.0702 35.6274C34.0516 35.6914 34.0898 35.7718 34.0702 35.8337C34.0568 35.8749 33.9794 35.8956 33.967 35.9368C33.9433 36.0193 33.9856 36.1503 33.967 36.2452C33.9588 36.2854 33.8701 36.3102 33.8639 36.3483C33.8422 36.4958 33.8422 36.8187 33.8639 36.9661C33.8691 37.0043 33.9588 37.0291 33.967 37.0693L33.966 37.0662ZM37.4159 35.6769C37.4531 35.6852 37.4747 35.7605 37.5191 35.7801C37.6006 35.8162 37.7594 35.8089 37.7769 35.9863H37.2623V38.1471L36.9529 37.8902L36.7466 37.324C36.6589 37.2364 36.3536 37.5148 36.2835 37.5303C36.1814 37.552 35.7657 37.553 35.6657 37.5303C35.6296 37.522 35.6069 37.4478 35.5626 37.4272C35.5296 37.4117 35.4801 37.4406 35.4594 37.4272C35.3078 37.3302 35.3284 37.2023 35.3047 37.1704C35.2397 37.0775 35.0118 36.9208 34.9953 36.862C34.9561 36.7186 34.9407 36.6093 34.8922 36.4505C34.8581 36.3401 34.8086 35.908 34.789 35.8842C34.7767 35.8698 34.4838 35.8894 34.4796 35.678H37.4149L37.4159 35.6769Z" fill="#3DB6D3"/>
<path d="M35.2016 36.5515C35.2088 36.5763 35.5141 36.8836 35.5626 36.9115C35.5853 36.9249 35.6337 36.897 35.6657 36.9115C35.71 36.9321 35.7317 37.0064 35.7688 37.0146C35.9277 37.0497 36.1608 36.9909 36.3351 37.0146V36.5C36.1484 36.4474 36.1267 36.5928 36.0256 36.6547C35.6048 36.9094 35.4254 36.4804 35.511 36.0884C35.7523 36.1163 36.0556 36.0482 36.2835 36.0884C36.3196 36.0946 36.3423 36.173 36.3866 36.1916C36.4423 36.2143 36.5228 36.174 36.5413 36.1916C36.5609 36.2112 36.5145 36.2968 36.5413 36.3463C36.5991 36.4494 36.7909 36.5061 36.7476 36.6547L36.9539 36.9115V35.9853H34.9963C35.0242 36.106 35.1552 36.2473 35.2026 36.3453C35.2263 36.3958 35.183 36.4835 35.2026 36.5515H35.2016Z" fill="#3DB6D3"/>
<path d="M41.825 15H18.1551C18.0695 15 18.0004 15.0691 18.0004 15.1547V27.9086C18.0004 27.9396 18.1695 28.1036 18.2582 28.0633H41.8457C41.8797 28.0107 42.0004 27.9375 42.0004 27.9086V15.1753C42.0004 15.0784 41.922 15 41.825 15ZM31.8032 20.6024C31.8104 20.5777 32.0095 20.3838 32.061 20.3456C32.0837 20.3281 32.1436 20.3621 32.1642 20.3456C32.4055 20.1558 33.1306 19.242 33.3998 19.3163C33.5112 19.3472 33.5906 19.5545 33.5545 19.6762C33.5287 19.7629 32.42 20.8448 32.2673 20.9624C32.1343 21.0655 32.092 21.0954 31.9063 21.0655C31.9363 20.885 31.7465 20.7953 31.8032 20.6024ZM25.1591 22.6084H27.2188C27.4116 22.6084 27.4116 23.1231 27.2188 23.1231H25.1591C25.0054 23.1231 24.9178 22.7064 25.1591 22.6084ZM28.0944 25.027C28.0758 25.093 27.4941 25.6149 27.3735 25.7469C27.357 25.7654 27.391 25.8304 27.3735 25.85C27.2445 25.9913 27.0548 26.2017 26.9104 26.3131C26.6298 26.5287 26.4329 26.3595 26.3442 26.0563L27.8376 24.5639C27.9768 24.7052 28.1573 24.8104 28.0954 25.027H28.0944ZM27.8376 21.1686L26.3442 19.6762C26.3173 19.569 26.5504 19.3318 26.602 19.3163C26.7639 19.2688 26.8103 19.341 26.9114 19.4194C27.357 19.7629 27.7551 20.3373 28.1986 20.7055L27.8376 21.1686ZM30.2582 27.7539C30.0922 27.7694 29.791 27.7725 29.7436 27.5992C29.7167 27.5002 29.7167 26.3606 29.7436 26.2615C29.791 26.0883 30.0922 26.0914 30.2582 26.1068V27.7529V27.7539ZM30.876 24.1008C30.5996 24.5381 30.3675 25.2972 30.3613 25.3354C30.3345 25.5045 30.4284 25.7716 30.3098 25.9016C29.9117 25.5664 29.3619 25.1559 29.0226 24.7186C29.0061 24.698 28.5946 24.1132 28.508 23.8956C28.4853 23.8399 28.4121 23.6254 28.4048 23.5872C28.377 23.4346 28.3739 22.8044 28.4048 22.661C28.4884 22.2753 28.6152 21.3605 28.6111 21.3233C28.5647 20.8902 28.6029 20.4126 28.6183 19.9454C28.6328 19.5174 28.773 19.1059 29.0195 18.7552C29.0206 18.7532 29.0216 18.7521 29.0226 18.7501C29.3619 18.2664 29.9612 17.86 30.5161 17.5671C30.6316 17.5062 30.6811 17.4093 30.877 17.4639C30.9358 17.5124 30.6862 17.6692 30.6708 17.7208C30.5924 17.9951 30.5119 18.4396 30.5676 18.7501C30.5748 18.7882 30.7182 19.0285 30.7739 19.1616C30.9317 19.5442 31.1307 19.8588 31.2885 20.1909C31.401 20.426 31.765 21.1449 31.8032 21.3223C31.829 21.4419 31.9002 21.7988 31.9063 21.837C31.9249 21.9638 31.83 22.7477 31.8032 22.8663C31.765 23.0385 31.3937 23.3974 31.2885 23.5862C31.1885 23.7656 31.04 23.843 30.877 24.1008H30.876ZM33.0388 26.2615C33.012 26.2131 33.0584 26.1264 33.0388 26.1068C33.0254 26.0934 32.8511 26.1429 32.7294 25.9521C32.5953 25.7428 32.1879 25.2064 31.9569 25.0775C31.8929 25.0414 31.7063 25.1446 31.8022 24.8207C31.8197 24.7609 32.0084 24.6433 32.06 24.5639C32.256 24.8733 33.4885 25.8397 33.5534 26.0563C33.6514 26.3812 33.2151 26.5782 33.0388 26.2626V26.2615ZM34.8932 23.1231H32.7304V22.6084H34.8932V23.1231Z" fill="#3DB6D3"/>
</svg>
