<svg width="61" height="61" viewBox="0 0 61 61" fill="none" xmlns="http://www.w3.org/2000/svg">
<path d="M26.061 59.9935C25.9435 59.896 26.0521 59.6323 26.2095 59.5968C26.2627 59.5835 26.3158 59.5747 26.369 59.568C23.282 59.1359 20.348 58.2207 17.6444 56.8977C17.4294 57.1747 17.261 57.4783 17.0903 57.7819C19.8826 59.1492 22.912 60.0999 26.0987 60.5564C26.2383 60.532 26.4311 60.5054 26.7258 60.4655C26.4444 60.2683 26.2383 60.1442 26.0588 59.9935H26.061ZM23.9579 59.9137C23.661 59.9492 23.4039 59.7586 23.3818 59.486C23.3685 59.2999 23.5236 59.1891 23.8183 59.1758C24.184 59.1603 24.3879 59.26 24.3989 59.455C24.41 59.6722 24.2084 59.8827 23.9579 59.9137Z" fill="#3DB6D3"/>
<path d="M60.4346 31.2754C60.2639 31.2444 60.2107 31.1247 60.1886 30.9984C60.1177 30.5729 60.1997 30.1718 60.4966 29.8239C60.5498 29.7619 60.6828 29.702 60.7625 29.7175C60.7914 29.722 60.8224 29.7397 60.8534 29.7596C60.8379 29.0771 60.8002 28.4012 60.7404 27.7319C60.6229 27.794 60.4767 27.8228 60.3127 27.8117C59.8938 27.7785 59.6589 27.4704 59.8141 27.1269C59.8938 26.9497 60.0157 26.7857 60.1421 26.6283C60.2019 26.553 60.3083 26.4998 60.3637 26.5175C60.4589 26.5353 60.5454 26.5685 60.6229 26.6128C60.5099 25.7087 60.3548 24.8178 60.162 23.9402C60.0999 23.989 60.0335 24.0355 59.9559 24.0776C59.7365 24.1995 59.7121 24.2904 59.6567 24.4942C59.5637 24.84 59.393 25.1679 59.3066 25.5159C59.5769 27.1159 59.7188 28.7602 59.7188 30.4355C59.7188 32.8533 59.424 35.2045 58.8745 37.4561C59.003 37.4804 59.054 37.5935 59.054 37.7087C59.054 37.979 58.8678 38.2671 58.6107 38.4644C55.1226 50.7946 43.8096 59.8517 30.4289 59.8517C29.2655 59.8517 28.1198 59.7808 26.9918 59.6478C27.2799 59.7786 27.4749 60.0445 27.4971 60.4013C27.5037 60.5076 27.5126 60.6162 27.5148 60.7248C28.1043 60.7802 28.6982 60.8201 29.2965 60.8423C29.3741 60.5741 29.5846 60.4899 29.9702 60.5786C30.1807 60.6273 30.3935 60.6827 30.5907 60.7581C30.706 60.8024 30.8168 60.8378 30.9298 60.86C31.0783 60.8578 31.2267 60.8556 31.3752 60.8511C31.4262 60.8378 31.4772 60.8223 31.5303 60.8002C31.7409 60.7115 31.9181 60.7337 32.0622 60.8223C47.8473 59.9824 60.4789 47.0583 60.849 31.1558C60.7382 31.2555 60.603 31.3087 60.4301 31.2776L60.4346 31.2754ZM55.1625 48.1043C54.9409 48.3281 54.3891 48.3702 54.1764 48.1752C54.1343 48.1353 54.1343 48.06 54.1143 48.0001C54.1542 47.65 54.4334 47.4926 54.7991 47.63C54.9276 47.6788 55.0539 47.7541 55.1537 47.8428C55.229 47.9093 55.249 48.0201 55.1647 48.1065L55.1625 48.1043Z" fill="#3DB6D3"/>
<path d="M14.338 5.14572C14.3978 5.13464 14.4975 5.15015 14.5263 5.18783C14.6349 5.33187 14.6105 5.49586 14.5574 5.65099C14.5352 5.71968 14.4975 5.76401 14.4532 5.79503C15.1934 5.30971 15.9579 4.85542 16.7424 4.43658C16.5696 4.4942 16.3878 4.44988 16.2194 4.36345C16.0222 4.25929 15.9424 4.08422 15.8648 3.90029C15.8449 3.85154 15.8272 3.80278 15.8094 3.75403C14.9806 4.21054 14.174 4.70251 13.3939 5.23215C13.569 5.23436 13.7463 5.24766 13.9213 5.25874C14.0587 5.21885 14.1961 5.17231 14.3358 5.14572H14.338Z" fill="#3DB6D3"/>
<path d="M11.6721 7.86262C12.5518 7.12467 13.4737 6.43769 14.4355 5.80611C14.3513 5.85265 14.2427 5.85486 14.1252 5.83713C13.9324 5.84821 13.7928 5.77952 13.7064 5.62439H13.702C13.5269 5.63326 13.3563 5.61774 13.2322 5.49364C13.2056 5.46705 13.1834 5.42494 13.1768 5.38506C12.4322 5.89918 11.7119 6.44434 11.0183 7.02052C11.2998 7.24656 11.5125 7.53243 11.6721 7.86484V7.86262Z" fill="#3DB6D3"/>
<path d="M42.4134 3.29087C42.3713 3.38838 42.3292 3.46816 42.2871 3.53907C50.0788 7.01831 56.0888 13.8128 58.5309 22.1297C58.9143 21.979 59.2999 21.9081 59.6766 22.0123C58.0434 16.3524 54.8079 11.364 50.4954 7.57454C50.2783 7.7075 50.0079 7.75847 49.7331 7.69642C49.629 7.67205 49.5292 7.62994 49.4273 7.5967C49.0616 7.4726 48.9641 7.34407 49.004 6.91637C49.0195 6.87204 49.0594 6.7147 49.1259 6.56844C49.1414 6.5352 49.1591 6.50861 49.1747 6.47758C47.9337 5.50473 46.6151 4.62716 45.2323 3.85375C45.1946 4.02218 45.0993 4.17065 44.973 4.30583C44.9331 4.34794 44.8511 4.38118 44.7868 4.38339C44.501 4.38339 44.0821 4.13963 44.0068 3.92467C43.9204 3.67868 44.0312 3.47259 44.1929 3.29752C43.8672 3.13131 43.5392 2.97397 43.2068 2.81885C43.0384 2.90749 42.83 2.89641 42.6328 2.90084C42.4577 2.98505 42.4179 3.1291 42.4134 3.29087Z" fill="#3DB6D3"/>
<path d="M12.8333 55.0207C13.0637 55.1536 13.1723 55.3265 13.2211 55.5171C13.7707 55.896 14.3313 56.255 14.9053 56.5963C15.2155 56.4722 15.415 56.2195 15.6144 55.9492C15.641 55.9137 15.6698 55.8827 15.6987 55.8495C14.7679 55.3021 13.8682 54.706 13.0061 54.0633C13.0061 54.0677 13.0061 54.0722 13.0039 54.0766C12.9552 54.3337 12.7491 54.5398 12.472 54.6129C12.1773 54.6905 12.0333 54.4932 11.9535 54.265C11.8626 53.824 11.9225 53.5891 12.2216 53.4583C11.1424 52.5963 10.1252 51.6589 9.17675 50.655C9.128 50.6838 9.07703 50.717 9.03271 50.7104C8.75348 50.6705 8.61609 50.4711 8.47426 50.2827C8.30805 50.0611 8.26373 49.824 8.34351 49.7375C5.08366 45.9791 2.75457 41.3852 1.72631 36.3214C1.62438 36.3525 1.52022 36.3214 1.41828 36.1907H1.41606C1.32964 36.1353 1.24321 36.0777 1.15457 36.0223C0.921881 35.9314 0.691409 35.8405 0.460938 35.7475C1.15014 39.6433 2.58394 43.2843 4.60721 46.5198C4.79558 46.2915 4.98173 46.0633 5.17896 45.8395C5.20998 45.804 5.32743 45.7951 5.37175 45.8195C5.40943 45.8395 5.43602 45.9436 5.41164 45.9835C5.19225 46.327 5.04599 46.686 4.95513 47.0605C6.9363 50.0877 9.44268 52.7403 12.3435 54.8899C12.5075 54.8744 12.6737 54.9276 12.8311 55.0184L12.8333 55.0207Z" fill="#3DB6D3"/>
<path d="M16.8887 4.35901C19.7785 2.83879 22.9497 1.79059 26.3026 1.31191C26.1231 1.16787 25.8417 1.05928 25.8993 0.802218C25.9458 0.593907 26.2095 0.538506 26.409 0.498616C26.7281 0.436566 26.9586 0.567315 27.0627 0.853188C27.0738 0.881997 27.0716 0.915238 27.076 0.948479C27.1913 0.98172 27.2555 1.05042 27.2755 1.15679V1.15901C27.291 1.16565 27.3043 1.17452 27.3176 1.18338C28.3414 1.0748 29.3807 1.01718 30.4312 1.01718C32.3148 1.01718 34.1586 1.1989 35.9447 1.54239C36.1952 1.54682 36.4478 1.54017 36.6916 1.57563C36.8467 1.59779 36.9575 1.6687 37.0306 1.77064C37.2212 1.81496 37.4118 1.86372 37.6024 1.91025C37.6245 1.8748 37.6489 1.83934 37.6755 1.80388C37.8616 1.54682 38.1608 1.53574 38.3935 1.77729C38.4866 1.87258 38.6062 1.97895 38.6262 2.09419C38.6328 2.12743 38.6351 2.16067 38.6395 2.19391C39.2467 2.37341 39.8472 2.56843 40.4389 2.7856C40.4389 2.7856 40.4389 2.78117 40.4389 2.77895C40.4323 2.49308 40.4234 2.20499 40.4478 1.91912C40.4544 1.83934 40.47 1.77286 40.4899 1.71081C37.3386 0.602772 33.9525 0 30.4289 0C25.4738 0 20.789 1.19225 16.6516 3.30195C16.7491 3.49696 16.8799 3.6809 16.9641 3.88034C17.035 4.05098 17.0416 4.23048 16.8865 4.35237L16.8887 4.35901Z" fill="#3DB6D3"/>
<path d="M0.698063 34.9231C0.91967 35.0361 1.08144 35.2001 1.21662 35.3907C1.28975 35.4594 1.36288 35.5259 1.43602 35.5946C1.43602 35.5946 1.43602 35.5946 1.43602 35.5923C1.49142 35.599 1.54682 35.6101 1.59779 35.6234C1.29862 33.9391 1.14128 32.2062 1.14128 30.4378C1.14128 25.6377 2.29142 21.1037 4.33021 17.0992C4.31913 17.0394 4.33021 16.9729 4.36123 16.9042C4.40555 16.8 4.46982 16.7291 4.54295 16.6937C6.26927 13.4272 8.5895 10.5241 11.3596 8.13077C11.2798 8.07758 11.2 8.01553 11.1269 7.93576C10.9186 7.71193 10.5884 7.62994 10.225 7.72523C10.2161 7.72744 10.205 7.72966 10.1939 7.73188C8.73354 9.03493 7.39947 10.4754 6.21165 12.0355C6.25376 12.1441 6.25376 12.2615 6.23824 12.3834C6.20057 12.6538 5.96788 12.8975 5.72855 12.9419C5.67536 12.9308 5.61331 12.9286 5.56677 12.9108C2.06316 17.866 0 23.9136 0 30.4355C0 31.9691 0.115236 33.476 0.334627 34.9497C0.438782 34.8765 0.569531 34.8588 0.695847 34.9231H0.698063ZM5.26096 13.6975C5.2809 13.6931 5.30971 13.7374 5.3363 13.7574C5.30749 13.8061 5.27647 13.8571 5.24766 13.9059C5.22328 13.8837 5.18561 13.866 5.17453 13.8416C5.1435 13.7707 5.17453 13.7131 5.26096 13.6975Z" fill="#3DB6D3"/>
<path d="M48.7491 41.538C48.7204 40.7023 48.5323 39.8953 48.3156 39.0974C46.6086 32.7962 44.8944 26.4969 43.1748 20.1975C43.0369 19.6889 42.9832 19.1749 42.9652 18.6519C42.9599 18.4865 42.9599 18.3374 43.1748 18.3212C43.3808 18.3068 43.551 18.2691 43.4507 17.9977C43.3593 17.7497 43.585 17.3363 43.0709 17.3111C42.5515 17.2878 42.0338 17.2285 41.5144 17.2033C40.0044 17.1314 34.8045 16.9301 32.9703 16.8492C32.6425 16.8349 32.535 16.7127 32.4472 16.4269C32.0836 15.2245 31.8758 14.3906 31.4961 13.1936C31.4639 13.1901 31.1814 13.1865 31.1491 13.1829C30.8446 14.0276 30.7921 14.8741 30.4858 15.7188C30.0327 16.9733 30.0309 16.9607 28.7 16.9966C26.7655 17.0505 22.9395 17.2806 22.961 17.3399C22.1674 17.3633 21.3739 17.3866 20.5804 17.41C19.7995 17.4334 19.0203 17.4783 18.2393 17.4837C17.8596 17.4873 17.9061 17.7389 17.9348 17.9546C17.9617 18.1505 17.7485 18.5171 18.1963 18.4847C18.542 18.4596 18.5384 18.6303 18.5456 18.8963C18.5671 19.7446 18.1444 20.4581 17.8882 21.2237C15.6707 27.8897 13.867 34.6725 12.1062 41.4679C11.6548 43.2059 12.305 44.401 13.9798 45.0283C14.1804 45.1038 14.3846 45.1667 14.5906 45.2242C16.4445 45.7436 18.3342 45.8047 20.2347 45.6412C21.3489 45.5459 22.4433 45.3374 23.4965 44.9312C24.3115 44.6149 24.7844 44.029 24.9707 43.1897C25.1498 42.3827 25.114 41.5704 25.0137 40.7598C24.8113 39.1117 24.3617 37.5158 23.964 35.9073C22.9484 31.7988 22.1048 27.6507 21.0211 23.5602C20.6342 22.0972 20.1308 20.6576 19.9571 19.1407C19.8926 18.5818 19.8944 18.5746 20.4407 18.5872C21.4205 18.6088 27.4587 18.8765 29.481 18.9161C29.9162 18.9251 30.1491 18.9988 30.0595 19.4912C30.0255 19.6781 30.038 19.856 30.3246 19.8506C30.9981 19.8381 31.6716 19.8435 32.3451 19.8489C32.5386 19.8489 32.6514 19.5936 32.6156 19.3995C32.5278 18.9323 32.7947 18.9269 33.1422 18.9341C35.6159 18.9826 40.2695 18.8029 41.1113 18.8208C41.2528 18.8244 41.5036 18.7166 41.5036 18.9916C41.5036 19.3564 41.5699 19.5595 41.4248 19.9046C40.5507 21.9876 39.9524 24.164 39.3345 26.3297C37.914 31.2973 36.5885 36.2901 35.4887 41.3403C35.1573 42.8644 35.829 44.189 37.2244 44.8629C37.6937 45.0894 38.1791 45.2727 38.6842 45.4021C41.5 46.1228 44.2191 45.6987 46.8468 44.6113C48.158 44.0686 48.801 42.9938 48.7509 41.538H48.7491ZM18.6979 37.744C18.6979 38.2185 18.6423 38.6948 18.5152 39.1549C18.2447 40.1416 17.6607 40.643 16.6398 40.6718C16.0003 40.6897 13.6484 40.0535 13.7989 39.2807C13.9726 38.3785 14.1732 37.4799 14.4061 36.592C15.6779 31.7305 16.964 26.8743 18.2483 22.0163C18.3038 21.8061 18.3181 21.567 18.5528 21.3909C18.6907 21.7881 18.6907 22.1709 18.6907 22.5429C18.6996 27.6094 18.7014 32.6758 18.6979 37.7422V37.744ZM23.8888 38.5043C23.9748 38.8943 24.0643 39.2825 24.05 39.6851C24.0339 40.1236 23.8261 40.4327 23.3962 40.5136C22.6744 40.6484 21.9417 40.7437 21.2091 40.6556C20.2508 40.5406 19.7296 39.9529 19.5612 38.8494C19.5003 38.4558 19.4627 38.0568 19.4609 37.6596C19.4555 32.6111 19.4609 27.5608 19.4609 22.5124C19.4609 22.1439 19.4627 21.7755 19.5845 21.3747C19.7995 21.5634 19.8174 21.7881 19.8657 21.9876C21.2235 27.489 22.6618 32.9724 23.8852 38.5079L23.8888 38.5043ZM41.6702 38.3677C41.4123 39.367 40.8444 39.8576 39.8252 39.9241C39.1518 39.969 38.4783 39.8936 37.8137 39.8001C37.0775 39.6977 36.8232 39.3077 36.945 38.5654C37.2029 37.0054 37.6328 35.4849 38.0322 33.959C39.1249 29.7786 40.239 25.6054 41.346 21.4286C41.4158 21.1662 41.4588 20.8913 41.6989 20.5731C41.8081 21.0027 41.8404 21.3316 41.8404 21.6641C41.8404 26.7916 41.8439 31.9192 41.8422 37.0467C41.8422 37.4924 41.7813 37.9346 41.6702 38.3659V38.3677ZM46.3954 39.7929C45.7631 39.8918 45.1201 39.9726 44.4788 39.9205C43.4381 39.8378 42.8811 39.2394 42.6984 38.0352C42.6392 37.6416 42.607 37.2408 42.607 36.8436C42.6016 31.9317 42.6034 27.0199 42.6034 22.1062C42.6034 21.6335 42.6106 21.1608 42.7216 20.6235C42.9688 20.8409 42.9832 21.0818 43.0351 21.292C44.3248 26.4951 45.6592 31.6891 46.8576 36.9137C47.0009 37.5392 47.1854 38.161 47.1925 38.8116C47.1979 39.4209 47.0026 39.6959 46.3936 39.7911L46.3954 39.7929Z" fill="#3DB6D3"/>
</svg>
