<?xml version="1.0" encoding="UTF-8"?>
<svg id="Layer_1" xmlns="http://www.w3.org/2000/svg" version="1.1" viewBox="0 0 53.12 64.06">
  <!-- Generator: Adobe Illustrator 29.4.0, SVG Export Plug-In . SVG Version: 2.1.0 Build 152)  -->
  <defs>
    <style>
      .st0 {
        fill: #a9961a;
      }
    </style>
  </defs>
  <path class="st0" d="M37.1,28.34c-.03-.06-.09-.1-.18-.13l-.09-.26-.4-.09c-.18,0-.29.06-.33.18-.04.12-.13.22-.24.31l-3.7.04-.22-.04-.18-.09h-.44l-.4.04-.57-.04-.35-.75v-.31l-.18-.57-.04-.75-.7-1.19-.04-.22c-.35-.64-.57-1.1-.66-1.36l-.04-.35c-.29-.7-.68-1.26-1.14-1.67l-.57-.18-.35-.26c-.12-.06-.26-.16-.44-.31l.35-.04.18-.26.04-.79.09-.22-.18-.13c0-.53.06-.86.18-1.01l.4-.31c.23-.12.38-.25.44-.4l-.04-.26.18-.26-.53-1.1-.35-.48s-.06-.12-.09-.26l-.18-.13-.26.13-.13-.09-.22.09-.66-.18c-.38-.12-.76-.18-1.14-.18l-.84.18c-1.14.41-1.72,1.22-1.72,2.42l.22.97c.12.38.18.73.18,1.06l.31.13.18.04c-.5.41-.75.79-.75,1.14l-1.72.84-1.58,1.36-1.06,1.23-.09.26c-.5.65-.79,1.12-.88,1.41l.04.57-.09.18-.09.13-.04.53-.04.35c0,.32.09.62.26.88l.48.57,1.14,1.14c-.7.18-1.1.3-1.19.37-.09.07-.13.29-.13.64,0,1.2.25,1.8.75,1.8l.48-.13.48-.18c.23.06.41.22.53.48v.57c.12.15.29.32.51.53.22.21.37.32.46.35l-.09.75.09.26.13.18-.22.35-.26.4c-.38.94-.57,1.6-.57,1.98,0,.41.09.82.26,1.23l.26.31.7.18.09.09-.44.62v.18l-.22.31c-.21.18-.4.37-.57.57-.03.06-.09.13-.18.22l.13.22s.06-.01.09-.04c.03-.03.1-.07.22-.13l-.48.97-.26.26c-.18.24-.26.43-.26.57,0,.35.25.7.75,1.06l-.04.84-.35.7v.7l-.13.31-.31,1.14c0,.76.5,1.14,1.5,1.14.56,0,.84-.15.84-.44l.04-1.01v-.7c0-.26.01-.45.04-.57v-.75c0-.29.03-.51.09-.64.06-.13.12-.24.18-.33l.26.04.31.04c.15-.06.29-.18.44-.35l.4-.48.13-.48v-.7l.13-.7.13-.53-.09-.18,1.14-.92.18-.53.18-.35-.13-.22-.09-.22.04-.22.09-.22v-.57l.18-.4v-.57l.22-.4.4-.75v-.22l.22-.31.26.92-.04.35.09.26c.06.06.12.12.18.18l-.13.57-.09.53s.07.1.11.2c.04.1.12.3.24.59l.09.79.09.26-.04.92-.04.92.09.22c0,1.12.04,1.79.13,2.02.09.24.26.35.53.35l.26-.04.22-.09.13.13v1.01c-.09.26-.13.5-.13.7,0,.18.03.41.09.7l.22.26.35.18c0,.68.38,1.01,1.14,1.01.67,0,1.01-.18,1.01-.53-.06-.35-.34-1.13-.84-2.33-.24-.47-.35-.82-.35-1.06l.09-.13.18-.13c.41-.5.62-.88.62-1.14l-.09-.92-.48-1.23-.09-.22-.18-1.41.26.18.09-.09v-.53l-.04-.4-.18-.13-.26-.53c.29.03.45.02.46-.02.01-.04.08-.08.2-.11.64-.29.98-.66,1.01-1.1l.09.35-.22.18.13.09-.13.26-.04.22.18.66.22.44.04,1.98-.13.79-.09.75.04.44.18.53.09-.09-.09-.53v-.48l.22-1.32-.04-2.9.09-.13-.04-.75c.15-.23.22-.45.22-.66l-.09-.44-.09-.53c.2-.09.31-.26.31-.53v-.7l.04-.35v-.22c-.03-.29-.18-.63-.44-1.01-.15-.15-.22-.37-.22-.66,0-.18.07-.3.2-.37.13-.07.3-.15.51-.24.26-.23.43-.41.51-.53.07-.12.11-.41.11-.88l.88-1.06c.62-.2.95-.37,1.01-.48l.48-.04h2.42l.75-.13.09-.26s-.06-.07-.09-.13ZM31.07,29.83l-.04-.18.13-.04-.09.22ZM30.28,35.11l-.4-1.41.44.18-.04,1.23ZM19.9,27.81l-.97-.66.4-.4c.23.53.44.84.62.92l-.04.13Z"/>
</svg>