<?xml version="1.0" encoding="UTF-8"?>
<svg id="Layer_1" xmlns="http://www.w3.org/2000/svg" version="1.1" viewBox="0 0 53.12 64.06">
  <!-- Generator: Adobe Illustrator 29.4.0, SVG Export Plug-In . SVG Version: 2.1.0 Build 152)  -->
  <defs>
    <style>
      .st0 {
        fill: #a9961a;
      }
    </style>
  </defs>
  <path class="st0" d="M34.22,25.1l-.35-.57-.31-.66-.48-.62-.4-.66-.57-.62v-.26c-.06-.15-.19-.26-.4-.35-.06-.06-.19-.13-.4-.22l-.53-.4-.13.04-.18.04s-.06-.02-.09-.07c-.03-.04-.1-.08-.22-.11l-.57-.22-.04-.26.26-.4c.23-.44.35-.76.35-.97.03-.03.13-.06.31-.09l.09-.18-.13-.31.04-.31v-.7l-.18-.66c-.44-1.06-1.16-1.58-2.16-1.58-.85,0-1.47.28-1.85.84-.18.26-.31.62-.4,1.06l-.09,1.14-.18.18v.22l-.31.09-.4-.09-.26.18-.75.04-.26.18-.48.09-.22.13-.09.13-.04-.7.04-1.06h.09l.13-.22-.04-.13-.31-.35v-.18l.09-.48-.09-.22.04-1.06-.09-.13-.35-.18c-.12.03-.19.15-.22.35l-.04.18-.26.4c.03.15.13.26.31.35v1.01l-.13.7v.88l-.04.53v1.67l-.09.62-.18.31-.31.53c-.56.47-.9.85-1.01,1.14l-.26.18-1.01,1.23-.18.57-.13.44.04.22c.06.44.32.79.79,1.06l.04.13.31.13.18-.04,1.1.13.35.09.13.09-.18.35-.13.31.09.35.22.18.13.04v.48l-.18.13-.22.13-.31.7-.04.26-.13.79v.18l-.09.26.18.44.62.44.09.53-.09.57v1.28l.13,1.28.35,1.36-.09,1.98v.75l.04.4-.04.18v.66c.03.47.12.75.26.84l.66.31.18.92.26.84v.4c.03.15.04.28.04.4l.26.53.09.26-.26.26-.09.57c-.12.15-.18.32-.18.53l.04.26-.44.62-.09.57.09.31c.18.2.44.31.79.31h.35l.57-.13.66-.53.18-.26.09-.79.09-.75-.04-.31.09-.44-.13-.44-.13-.13v-.31l-.18-.26.04-.31-.04-.13.04-.26.09-.88-.09-.35-.04-.31.09-.44.44-.62c.09-.15.13-.35.13-.62-.03-.38-.22-.62-.57-.7v-.18l.04-.48.13-.53-.09-.26-.04-.22.04-.57.31-.53.13-.53v-.26l-.26-.57.26-.53.18.97v.18l.35,1.1.18.79.57,1.58c.18.32.29.63.35.92l.26.26-.04.31.13.53.13.26-.18.35.31.22.48.26.04.4.13.62.13.35.18,1.01v.7l-.13.26.04.31-.09.35-.09.48.09.75.44.18.7.13.26.04.31.09h.04l.22.04c.23.2.48.31.75.31l.4.09.48.09h.4c.53,0,.79-.09.79-.26l-.18-.18.13-.18-.13-.44c-.35-.2-.6-.34-.75-.4-.15-.06-.34-.15-.57-.26l-.84-.75.04-.22-.44-.48v-.18l-.13-.7.04-.22-.13-.26.09-.57.09-1.01.22-.22.4-.92-.09-.48-.4-.57c.2-.32.31-.59.31-.79l-.13-.31-.13-.48c-.06-.15-.13-.37-.22-.66v-1.54l-.04-.53-.04-.57-.09-.79-.13-1.06-.13-.66.48-.04.53-.09.31-.13c.06-.03.12-.1.18-.22v-.31c.26-.5.4-.86.4-1.1l.13-.22.09-.31-.09-.26-.13-1.28v-.48l-.26-.53c.12-.12.25-.28.4-.48l.35-.26.53-.35c.09-.15.09-.26,0-.35l.7-.4.26-.48.04-.44-.13-1.06Z"/>
</svg>