<?xml version="1.0" encoding="UTF-8"?>
<svg id="Layer_1" xmlns="http://www.w3.org/2000/svg" version="1.1" viewBox="0 0 53.12 64.06">
  <!-- Generator: Adobe Illustrator 29.4.0, SVG Export Plug-In . SVG Version: 2.1.0 Build 152)  -->
  <defs>
    <style>
      .st0 {
        fill: #43668e;
        fill-rule: evenodd;
      }
    </style>
  </defs>
  <g id="e">
    <path class="st0" d="M35.1,25.37l-.31-.22-.31-.35-.75-.44c-.15-.06-.31-.18-.48-.35-.24-.47-.35-1-.35-1.58l.04-.66-.44-1.19-.57-.7c-.26-.44-.47-.72-.62-.84l.62-1.54-.18-1.45c-.15-.59-.48-1.04-1.01-1.36-.24-.15-.59-.22-1.06-.22-.47.03-.85.24-1.14.62l-.84,1.1-.35.13c-.21.09-.31.22-.31.4,0,.47.23.7.7.7v.22l-.18.18.35,1.76.18.22.62.04.4.57c-.29.26-.44.48-.44.66l.09.48-.66.75-.92,1.98c-.44.09-.78.4-1.01.92-.24.09-.43.21-.57.35l-.4.57-.92-.22-.66-.18-.35.18-.4.18-1.06-.04-1.01-.09-.92.09-1.32.04-.26-.35-.26.04-.04.31-.35-.09-.13.09v.22l.57.18c-.09.09-.13.21-.13.35l1.32.04.44.31.26-.09.22-.13,2.82.22c.2.5.38.79.53.88l.97.31.13.13h.4l.88-.18.04.44-.57.79v.44c0,.32.04.56.13.7l.31.31v.44c.15.18.34.34.57.48l-.35,1.5c.15.12.31.15.48.09l.4-.09c.41,1.76.64,2.89.7,3.39l.13,1.67c.15.79.38,1.45.7,1.98l.09.48.75.7c.35,1.23.53,2.46.53,3.7l-.09.35-.04.31-.88.53-.57-.04-.57-.09c-.47.03-.7.22-.7.57,0,.18.22.34.66.48l.79.18c.32.15.6.22.84.22-.24.21-.5.35-.79.44l-.92.04c-.09.06-.19.19-.31.4,0,.24.35.44,1.06.62l1.36.26.66-.09.75-.09.31.04h.31c.7,0,1.06-.45,1.06-1.36l-.04-.66-.18-.31v-1.1l-.09-.97.13-.79.13-.79-.31-1.94-.26-.35c-.06-.32-.03-.64.09-.97l-.48-.53-.04-.7-.09-.26-.09-.31.13-.13-.04-.31v-1.36l.22-.4v-.44l-.09-.13.18-.97.44-.66.13-.4.18-.04.13.09.13.04c.44,0,.86-.22,1.28-.66.32-.32.44-.78.35-1.36l.26-.22-1.23-1.76.53.09.48.13c.23-.06.37-.16.4-.31l.18-1.19.31-.84c.12-.2.18-.44.18-.7,0-.59-.18-1.1-.53-1.54Z"/>
  </g>
</svg>