<?xml version="1.0" encoding="UTF-8"?>
<svg id="Layer_1" xmlns="http://www.w3.org/2000/svg" version="1.1" viewBox="0 0 53.12 64.06">
  <!-- Generator: Adobe Illustrator 29.4.0, SVG Export Plug-In . SVG Version: 2.1.0 Build 152)  -->
  <defs>
    <style>
      .st0 {
        fill: #d0692b;
      }
    </style>
  </defs>
  <g id="V">
    <path class="st0" d="M37.91,36.07l-.23-.2-.3.2-1.98-.56-.1.03-3.83-.86-2.21-.66c-.44-.09-.69-.16-.76-.23s-.1-.23-.1-.49l.1-.26.13-.3c.11-.31.17-.55.17-.73.24.51.38.88.43,1.12l.2.1c.15-.26.31-.46.46-.59l-.16-1.75c.37.86.65,1.29.82,1.29l.43-.16.4-.2.07.03c.09-.07.15-.11.2-.13.15-.09.41-.21.76-.36l.23-.03c.26-.18.4-.34.4-.49,0-.66-.28-1.29-.82-1.88l.56-1.65c.04.09.14.18.3.26l.13-.23-.3-.33.49-1.35.17.1c.13-.18.27-.35.43-.53.04-.04.1-.1.17-.16l.56.23.53.23c.18,0,.49-.3.96-.89l.43-.2.03-.3c.11-.09.23-.13.36-.13l.2.03.23.03c.26-.04.4-.12.4-.23l-.07-.1c-.37-.09-.56-.36-.56-.82l.1-.56.1-.56c0-.55-.29-.96-.86-1.24-.57-.27-1.18-.41-1.81-.41-.35,0-.63.07-.84.2-.21.13-.38.33-.51.59l-.33.73c-.22.29-.4.43-.53.43l-.23-.07v-.69l-.13-.26c-.13-.64-.57-.96-1.32-.96l-.2.03-.17.03s-.04-.04-.07-.07c-.02-.02-.06-.11-.1-.26l-.2-.53c-.07-.11-.16-.19-.3-.23l-.23-.1-.07.03-.1-.07-.07-.1-.26.3s-.13-.1-.26-.17h-.13l-.2.23c-.68.37-1.11.56-1.29.56l-.1-.07-.13.07-.13.07-.17-.07-.23.13v.23l-.23.33.1.2.13.13.4.92c-.02.09-.13.21-.33.36l-.43.23-.13-.07c-.13.02-.22.08-.26.16l-.13.17-1.42.3c-.95.2-1.42.41-1.42.63l.16.33.23.36.1.53c.15.22.3.36.43.43-1.96.37-3.38.75-4.26,1.12.13.84.62,1.48,1.45,1.95v.56l.23.79.03.56h.16l.4-.3.63-.1c.26.04.49.39.69,1.02l.56,1.32c.11.24.16.45.16.63h-.2l-.1.03-.1.03-.99-.23-.16-.1-.16-.1-.13.03-.16-.07.1-.13.1-.16c-.04-.13-.12-.2-.23-.2-.09,0-.19.07-.3.2l.1.13-.26.07-.16-.03-.17-.03-.03.03c-.02.07-.06.11-.1.13l-.66.03-.46.03-.56-.1-.66-.3-3.33-.4c-.13.18-.2.65-.2,1.42,0,.4.16.59.49.59l2.84-.2,1.35,1.52.99.92c.24.2.42.33.53.4.11.07.26.15.46.26l2.21,1.25c-.68,1.1-1.14,1.97-1.39,2.61l-.46.53-.07.46-.13.13-.07.36-.59,1.39-.2.69.66.33.69.23.16-.13c.57.55,1.15.82,1.75.82l.73-.1.17-.07.13.07.07.07c.2.04.48.07.86.07.7,0,1.23-.14,1.58-.43l-.13-.33c-.07-.15-.14-.24-.23-.26l-.79-.1c-.35-.07-.89-.38-1.62-.96.18-.24.26-.44.26-.59l.43-.79.13-.13c.26-.62.54-1.08.82-1.39l.36.2c.18-.04.26-.32.26-.82l.83-.63.82-.13c.48-.13.89-.41,1.22-.82.33-.42.55-.91.66-1.48l.03-1.12-.2-.13.07-.1,2.21.46c1.21.24,1.98.42,2.31.53l.2.13.2.13.1-.03.1-.07.2.07.23.07.13-.03.16-.03.66.13.66.13.49-.2v-.16l-.33-.23ZM30.36,29.44c.13-.29.16-.47.1-.56l.69-.26c.4-.13.63-.25.69-.36,0,.35-.08.63-.23.82-.53.35-.95.59-1.25.73v-.36ZM24.52,36.96l-.63.56c-.59-.26-1.3-.7-2.11-1.32l-2.08-1.75-.63-.86.59-.13.49-.13.2.03.23.03c.13.31.35.46.66.46.24,0,.4-.1.46-.3l2.44.46.36,1.91-.03.23.13.3-.13.23.03.26ZM30.16,36.3c0,.62-.08,1.1-.23,1.45l-.36.49c-.33.26-.68.4-1.06.4h-.33c.42-.84.63-1.65.63-2.44l-.13-.76-.13-.53v-.13l1.52.3c.11.02.17.12.17.3l-.1.16.03.76Z"/>
  </g>
</svg>