<?xml version="1.0" encoding="UTF-8"?>
<svg id="Layer_1" xmlns="http://www.w3.org/2000/svg" version="1.1" viewBox="0 0 53.12 64.06">
  <!-- Generator: Adobe Illustrator 29.4.0, SVG Export Plug-In . SVG Version: 2.1.0 Build 152)  -->
  <defs>
    <style>
      .st0 {
        fill: #c74c3d;
        fill-rule: evenodd;
      }
    </style>
  </defs>
  <g id="C">
    <path class="st0" d="M32.77,28.45l-.53-2.33v-.4l-.35-.92-.04-.31-.35-.57-.48-.88-.18-.04-.26-.35-.48-.4-.62-.31-.53-.26-.13.04-.13-.09-.09-.31c-.06-.06-.14-.2-.24-.42-.1-.22-.24-.34-.42-.37l.09-.22.09.04.35-.04.4-.26-.22-.48-.18-.35v-.92l-.26-.7-.26-.22-.18-.31.22-.62-.04-.31.4-.88.09-.18-.09-.13c0-.15-.07-.31-.22-.48l-.31.26-.09.53-.31.66-.09.22-.09.18.09.13-.09.31-.84-.13h-.04l-.44.22-.31.09c-.41.26-.66.47-.75.62l-.31.62-.13.35-.75.4c.35.26.67.43.97.48,0,.06.01.12.04.18v.31l-.18.4.09.18.13.13.09.18-.09.18v.18l.09.35c.06.03.12.1.18.22l-.26-.04-.22.04-.18-.04-.26-.04c-.29,0-.48.09-.57.26l-.22.4c-.24.5-.38.85-.44,1.06-.06.21-.12.5-.18.88l-.18.75-.13.44-.18.57-.22,1.01-.18.35-.13.22.13.31-.13.22-.09.22v.26l-.09.26v.22l-.18.62-.04.62.04.22-.26.7-.09.79c0,.21.09.35.26.44l-.04.18.04.31.13.48-.18,1.19-.92,1.94c.06.06.14.12.24.18.1.06.27.13.51.22l.7.22c.18-.32.29-.64.35-.97l.57-1.8.04.44v.31l-.13.84.04.26-.09.7-.13.79.26,1.76-.22.53-.22.48.48.62-.22.22.09.13.44.53v.57l-.13.4v.26l-.18.09.35.22-.04,2.11-.04,1.14c-.09.29-.19.5-.31.62l-.53.62-.22.18-.4-.04c-.21.06-.38.18-.53.35l-.18.31.04.22c.15.26.51.4,1.1.4l1.01.04,1.14-.18.18.13c.06.06.19.09.4.09.18-.03.31-.08.42-.15.1-.07.18-.12.24-.15v-.79l-.18-.66.13-.18-.09-.22-.04-.4.13-2.77v-.62l.22-.31c.2-.18.33-.29.37-.35.04-.06.08-.13.11-.22l-.04-.22v-.35l-.31-.4c.15-.15.22-.35.22-.62l-.04-.31.09-.22-.04-.4.26-.26.09-1.45c0-.53.09-.88.26-1.06l.26.44.31.48-.04.35c.12.32.18.63.18.92l.09.31-.13.4.04.35.04.31-.09.4.04.26s.07.06.11.09c.04.03.11.06.2.09l.31.13-.09.22-.09.35c.06.12.09.29.09.53l.13.44-.04.48.09,2.11-.09.7-.04.31.04.13-.13.22.04.53-.09.26-.09.53-.04.48c.06.26.29.4.7.4h1.01l.22-.04c.26-.09.4-.35.4-.79l.04-.22-.09-.7c-.03-.18-.12-.29-.26-.35l.18-1.85.31-2.24c.23-.2.42-.4.57-.57.03-.06.07-.13.13-.22l-.18-.4c-.12-.15-.18-.32-.18-.53l-.09-.4.09-.26.13-.35-.09-.31-.31-.48.22-.44c.15-.32.22-.6.22-.84l-.18-.66-.13-.75.26.13.26-.18.4,3.43.18.09c.06,0,.12-.06.18-.18l-.31-3.48c.09-.12.19-.19.31-.22l.26-.09s.06-.02.09-.07c.03-.04.04-.15.04-.33v-.31c-.09-.56-.11-.85-.07-.88.04-.03.11-.04.2-.04l.13-.62.13-.7v-1.58l.35-1.19c.2-.53.31-.97.31-1.32v-.79l-.13-.44ZM29.91,29.15l.09-.4v.26l.04.31-.13-.18Z"/>
  </g>
</svg>