<svg xmlns="http://www.w3.org/2000/svg" viewBox="0 0 53.12 64.06"><path d="M33.82 24.93l-.13-.44-.09-.4.09-.18.09-.18-.18-.35v-.44c-.18-.5-.44-.98-.79-1.45l-.53-.62-.75-.4-.31-.22.92-.35c0-.2-.02-.35-.04-.44l.13.04.62-.18c.12-.06.25-.18.4-.35-.06-.15-.13-.25-.22-.31l-.31-.04-.22-.04-1.36.09-.18.09-.22.04-.09-.09-.26.09-.18.09.26-.48c.2-.03.37-.32.48-.88l-.09-.44.26-.7.09-.84-.04-.35c-.47-.5-.84-.75-1.1-.75l-.18.09c-.35.03-.73.16-1.14.4l-.22.13-.13-.04-.09-.09c-.32 0-.56.22-.7.66l-.04.26-.22.53.09.22.09.13-.13.22-.09.18.13.84.18.35.09.4c-.18.03-.37.09-.57.18-.03 0-.09.03-.18.09l-1.72.09-.48.18-.13.22-.92.31-.18-.04-.13-.09-.22.09c-.03-.06-.12-.12-.26-.18l-.4.09-.22.31-.22.13-.18.04-.13-.31h-.18s-.09.05-.18.07c-.09.02-.21.02-.35.02l-.31.13-.22.13-.48-.13-.48-.18c-.35 0-.53.13-.53.4.06.06.12.1.18.13.06.12.18.38.35.79.18.41.28.68.31.79.03.12.06.28.09.48.09.26.2.4.35.4a2.49 2.49 0 00.58-.53l.53.84c.06.09.13.24.22.44l.18.4.22.31c.88 1.76 1.54 2.64 1.98 2.64.03 0 .09-.03.2-.09.1-.06.2-.12.29-.18l.48-.44.4-.84.04.44-.26.88-.88.35.26.88c-.18.06-.43.18-.75.35l-.18.09-.13-.04c-.06 0-.15.06-.26.18l-.26.84c.03.21.18.5.44.88.18.21.34.31.48.31l.26-.04v.7c-.06.06-.09.19-.09.4l-.04.26v1.36l.13 1.41.57 1.8.04.48.22 1.28c0 .82.18 1.44.53 1.85l.35.13.48 2.46.04.66c0 .18-.04.31-.13.4l-.13.26.09.48.13.44-.04.35-.88.79-.26.31-.31.13-.22-.04-.79.09c-.35.15-.53.32-.53.53l.4.4c.44.26 1 .4 1.67.4l1.76-.22.62-.22.22.22h.7l.44-.13.04-.18c-.06-.06-.09-.15-.09-.26-.18-.91-.29-1.39-.35-1.45l.04-.31-.09-.13-.04-.92c-.09-.44-.18-.7-.26-.79l-.04-1.19.04-.79-.13-1.28-.09-.79.04-.26.04-.35-.13-.53-.04-1.06c.47 1.35.69 2.22.66 2.6l-.04.48a.7.7 0 00.31.4l.13.48.13 1.98.13 1.01.22.79c-.09.06-.19.18-.31.35l.04.18.04.13.09 1.28.22.7.09 1.06.04.57.35.31c.12.06.42.09.92.09.79 0 1.19-.24 1.19-.7 0-.26-.09-.53-.26-.79l-.48-.7c-.09-.26-.13-.62-.13-1.06l.09-.44.13-.48s-.06-.09-.09-.18a.614.614 0 00-.18-.26v-.22c.03-.06.06-.2.09-.44.03-.23.07-.54.13-.92s.09-.72.09-1.01v-1.45l.13-.18-.04-.26-.04-.26v-.57l.04-.57.04-.62.44-1.72.09-.92.13-.09.09-.09v-2.02l.04-.22.09-.22v-1.32l.09-.13.09-.13-.04-.44.22-.4-.48-.75c-.09-.15-.13-.54-.13-1.19l-.13-.22-.09-.62v-.66l1.19.35.22-.04c.26-.23.4-.42.4-.57.06-.12.09-.38.09-.79l-.26-1.36zm-9.5-2.95l-.04.44.04.4-.35.57.09.44-.22.53c-.26-.15-.51-.42-.73-.81-.22-.4-.33-.7-.33-.9l.22-1.1-.04-.44.35-.09c.03.21.16.31.4.31l.62-.04.04.35-.04.35z" fill="#a9961a" fill-rule="evenodd"/></svg>