<svg width="87" height="88" viewBox="0 0 87 88" fill="none" xmlns="http://www.w3.org/2000/svg">
<path d="M60.8497 67.9939C60.6977 68.008 60.588 67.7447 60.6742 67.6084C60.7024 67.5614 60.7337 67.5175 60.7666 67.4752C58.2782 69.3525 55.5564 70.78 52.7091 71.7563C52.753 72.1041 52.8486 72.4379 52.9426 72.7732C55.8839 71.7657 58.6982 70.2958 61.2743 68.3653C61.3558 68.2493 61.4734 68.0942 61.6536 67.8576C61.3151 67.9171 61.0816 67.9751 60.8481 67.9955L60.8497 67.9939ZM59.3062 69.4246C59.1213 69.6596 58.8048 69.7066 58.5963 69.5296C58.4553 69.4073 58.4867 69.2193 58.6857 69.0015C58.9333 68.732 59.1479 68.6583 59.2937 68.7884C59.4551 68.9341 59.4613 69.2256 59.3062 69.4246Z" fill="#3DB6D3"/>
<path d="M64.8488 23.3814C64.7062 23.4801 64.5839 23.4331 64.479 23.3595C64.1279 23.1087 63.9023 22.7671 63.8663 22.3111C63.86 22.2297 63.9117 22.0933 63.9791 22.0479C64.0026 22.0306 64.0371 22.0212 64.0731 22.0134C63.5795 21.5417 63.0749 21.0904 62.5594 20.6595C62.5202 20.7865 62.4372 20.9102 62.3134 21.0184C61.9937 21.291 61.6098 21.2393 61.4766 20.8867C61.4076 20.705 61.3779 20.5028 61.3559 20.3022C61.345 20.2067 61.3826 20.0938 61.4343 20.0672C61.5142 20.0123 61.5988 19.9747 61.685 19.9512C60.9657 19.3918 60.2261 18.8716 59.4693 18.3874C59.4599 18.4657 59.4457 18.5456 59.4207 18.6303C59.3517 18.8716 59.3987 18.9531 59.5037 19.1364C59.6824 19.4467 59.7936 19.7992 59.9785 20.1064C61.3011 21.0466 62.5641 22.109 63.7487 23.2936C65.4583 25.0032 66.9125 26.8742 68.116 28.8549C68.2241 28.7813 68.34 28.8252 68.4215 28.9066C68.6127 29.0978 68.6848 29.4332 68.6425 29.7544C74.8948 40.9396 73.2996 55.3435 63.838 64.805C63.0154 65.6277 62.1551 66.3877 61.2635 67.0913C61.5596 66.98 61.8856 67.0302 62.1535 67.2668C62.2334 67.3373 62.3165 67.4078 62.3948 67.483C62.8508 67.1054 63.299 66.7136 63.7378 66.3062C63.603 66.0618 63.6923 65.8534 64.0277 65.6434C64.211 65.529 64.4006 65.4177 64.5933 65.3315C64.7062 65.2814 64.8096 65.2281 64.9052 65.1639C65.0086 65.0573 65.112 64.9508 65.2139 64.8426C65.2405 64.7972 65.2656 64.7502 65.2875 64.6969C65.3737 64.4854 65.5147 64.3757 65.6793 64.3365C76.2471 52.5809 76.0403 34.5102 65.0572 23.0038C65.0493 23.1526 64.9914 23.2858 64.8472 23.3861L64.8488 23.3814ZM73.0207 39.0091C73.0222 39.3241 72.6618 39.744 72.3735 39.7565C72.3155 39.7581 72.2622 39.7048 72.2058 39.6766C71.9864 39.4008 72.0726 39.0921 72.4283 38.9307C72.5537 38.8743 72.6963 38.8383 72.8295 38.8304C72.9298 38.8242 73.0222 38.8884 73.0238 39.0091H73.0207Z" fill="#3DB6D3"/>
<path d="M13.7771 37.5001C13.8116 37.45 13.8931 37.3904 13.9401 37.3967C14.1187 37.4217 14.2174 37.5549 14.2895 37.7022C14.3224 37.7665 14.3271 37.8245 14.3177 37.8777C14.4979 37.0112 14.7173 36.1493 14.9759 35.2985C14.8944 35.4614 14.7345 35.5586 14.5543 35.6166C14.3412 35.6824 14.161 35.615 13.9761 35.5398C13.9275 35.5194 13.8805 35.4975 13.8335 35.4755C13.5703 36.3844 13.3477 37.3027 13.1707 38.2288C13.296 38.1065 13.4308 37.9906 13.5624 37.8746C13.6314 37.7492 13.6956 37.6192 13.7755 37.5017L13.7771 37.5001Z" fill="#3DB6D3"/>
<path d="M13.813 41.3063C13.9133 40.1624 14.0794 39.0248 14.3129 37.8981C14.2863 37.9906 14.2111 38.0689 14.1155 38.1394C13.987 38.2836 13.8397 38.3337 13.6689 38.2852L13.6657 38.2883C13.5482 38.4184 13.4166 38.528 13.2411 38.528C13.2035 38.528 13.158 38.5139 13.1251 38.4904C12.9622 39.3805 12.8384 40.2752 12.7553 41.1731C13.1142 41.134 13.4667 41.1857 13.8146 41.3079L13.813 41.3063Z" fill="#3DB6D3"/>
<path d="M32.3179 16.3362C32.357 16.4349 32.3837 16.5211 32.4041 16.601C40.3738 13.5516 49.4279 14.1063 57.0357 18.2605C57.2003 17.8828 57.4228 17.56 57.7628 17.3673C52.6058 14.52 46.7907 13.2805 41.0617 13.6504C41.0022 13.8979 40.847 14.1252 40.6089 14.2756C40.518 14.332 40.4177 14.3727 40.3221 14.4213C39.9758 14.5921 39.816 14.5702 39.5417 14.2395C39.5214 14.1972 39.4383 14.0578 39.3819 13.9073C39.3694 13.8729 39.3631 13.8415 39.3521 13.8086C37.7867 13.9982 36.2338 14.3101 34.7091 14.741C34.8016 14.8867 34.8392 15.0591 34.8454 15.244C34.847 15.302 34.8125 15.3835 34.7687 15.4305C34.5665 15.6326 34.098 15.7564 33.8927 15.6577C33.6576 15.5449 33.5903 15.3208 33.5809 15.0826C33.233 15.1954 32.8898 15.3161 32.5451 15.4414C32.4887 15.6232 32.3335 15.7627 32.1972 15.9053C32.133 16.0886 32.2066 16.2187 32.3179 16.3362Z" fill="#3DB6D3"/>
<path d="M47.98 73.831C48.237 73.762 48.436 73.8075 48.6053 73.9077C49.2618 73.7871 49.9121 73.6445 50.5593 73.48C50.6909 73.1728 50.6533 72.8532 50.6032 72.521C50.5969 72.4771 50.5954 72.4348 50.5922 72.3909C49.547 72.662 48.4893 72.8767 47.4253 73.0318C47.4284 73.0349 47.4316 73.0381 47.4331 73.0428C47.5804 73.259 47.5804 73.5505 47.4363 73.7981C47.2827 74.0613 47.0414 74.0237 46.8236 73.9187C46.4475 73.6711 46.3237 73.4627 46.4428 73.1587C45.0701 73.3123 43.688 73.3687 42.3075 73.3295C42.2934 73.3844 42.2809 73.4439 42.2448 73.4706C42.0192 73.6398 41.781 73.5959 41.5475 73.563C41.2733 73.5238 41.0743 73.3875 41.0696 73.27C36.1069 72.9174 31.2116 71.3159 26.9039 68.4624C26.8537 68.5564 26.7582 68.6082 26.5936 68.5878L26.592 68.5893C26.4918 68.6113 26.3899 68.6317 26.2881 68.6552C26.0593 68.7555 25.8321 68.8542 25.6033 68.9513C28.8454 71.2188 32.4338 72.7795 36.1523 73.6367C36.1241 73.3421 36.0943 73.049 36.0755 72.7513C36.0724 72.7043 36.1492 72.615 36.1978 72.6009C36.2385 72.5883 36.331 72.6432 36.3419 72.6886C36.4297 73.0866 36.5801 73.4439 36.7807 73.773C40.3221 74.5126 43.9701 74.616 47.5413 74.0848C47.6463 73.9579 47.8014 73.878 47.9769 73.831L47.98 73.831Z" fill="#3DB6D3"/>
<path d="M15.0244 35.1402C15.9928 32.0218 17.494 29.0383 19.5264 26.3289C19.2976 26.354 19.0218 26.4762 18.8808 26.2537C18.7664 26.0735 18.9137 25.8479 19.0265 25.6786C19.2083 25.4091 19.4637 25.3386 19.7395 25.4671C19.7677 25.4796 19.7896 25.5047 19.8163 25.5251C19.9212 25.4671 20.0153 25.4702 20.1046 25.5313L20.1062 25.5329C20.1218 25.5266 20.1375 25.5235 20.1532 25.5204C20.8003 24.7196 21.4945 23.944 22.2373 23.2012C23.5692 21.8693 25.0015 20.694 26.5073 19.6739C26.6876 19.5 26.8615 19.3166 27.0589 19.1693C27.1843 19.0753 27.3128 19.0471 27.4366 19.0675C27.6027 18.964 27.7719 18.8637 27.9396 18.7619C27.9302 18.7212 27.9223 18.6788 27.9161 18.635C27.8659 18.3216 28.0696 18.1022 28.405 18.1085C28.5382 18.11 28.698 18.1006 28.7936 18.168C28.8218 18.1868 28.8469 18.2087 28.8735 18.2291C29.4298 17.9267 29.9924 17.6399 30.5643 17.3751C30.5643 17.3751 30.5612 17.372 30.5596 17.3704C30.3528 17.173 30.1428 16.9755 29.9579 16.7561C29.9062 16.695 29.8701 16.637 29.8404 16.5791C26.8286 18.0238 24.008 19.992 21.5165 22.4835C18.0126 25.9873 15.543 30.143 14.1092 34.5604C14.3161 34.6293 14.5386 34.6669 14.7392 34.7484C14.91 34.8189 15.0416 34.9412 15.0181 35.137L15.0244 35.1402Z" fill="#3DB6D3"/>
<path d="M25.188 68.2008C25.4246 68.124 25.655 68.1255 25.8853 68.1647C25.9856 68.1616 26.0843 68.1569 26.1846 68.1537C26.1846 68.1537 26.1846 68.1537 26.183 68.1522C26.2269 68.1177 26.2739 68.0864 26.3194 68.0597C24.9169 67.0804 23.5803 65.9662 22.3298 64.7158C18.9357 61.3216 16.5429 57.3023 15.1529 53.0291C15.1028 52.9946 15.0636 52.9397 15.037 52.8692C14.9947 52.7642 14.99 52.6687 15.0166 52.5919C13.9275 49.0614 13.5154 45.368 13.7818 41.7169C13.6878 41.7357 13.5875 41.7482 13.4794 41.7435C13.1738 41.7326 12.8824 41.9081 12.6927 42.2324C12.688 42.2403 12.6818 42.2497 12.6755 42.2591C12.5642 44.2131 12.6395 46.175 12.9027 48.1181C13.0093 48.1651 13.0923 48.2482 13.1675 48.3453C13.3321 48.5631 13.3399 48.9 13.202 49.1006C13.1566 49.1304 13.1111 49.1727 13.0657 49.1931C14.0921 55.1743 16.9095 60.9095 21.5212 65.5212C22.6056 66.6056 23.7526 67.5896 24.9498 68.4766C24.9718 68.3512 25.0517 68.2462 25.1864 68.2023L25.188 68.2008ZM13.4057 49.9656C13.4167 49.9483 13.4684 49.9593 13.5013 49.9546C13.5154 50.0095 13.5295 50.0674 13.5436 50.1223C13.5107 50.1239 13.4715 50.138 13.4465 50.1286C13.3744 50.1003 13.3556 50.0377 13.4057 49.9656Z" fill="#3DB6D3"/>
<path d="M60.9091 47.6824L60.6605 47.799C60.6436 47.8075 60.5725 47.8396 60.4626 47.8971C60.6537 46.9197 60.9767 44.4845 60.1413 42.0459L60.0534 41.7888L59.8758 41.9579C59.8487 41.9833 59.6137 42.2082 59.3042 42.587C59.2349 41.7195 58.9812 39.7882 58.0359 38.1462L57.9276 37.9568L57.789 38.0988C57.603 37.6118 57.1227 36.4973 56.2805 35.4032L56.1351 35.2121L56.0133 35.4286C55.9998 35.4488 55.8932 35.6416 55.7546 35.941C55.347 35.0447 54.2207 32.8919 52.6548 32.6179L52.4569 32.5841V32.8327C52.4569 32.8462 52.4569 32.8902 52.462 32.9612C51.8802 32.371 50.5815 31.2549 48.8109 30.9167C49.5549 29.973 49.8864 29.0497 49.9388 28.8349C49.9388 28.8349 47.7894 28.7842 45.2984 30.5818C44.4765 31.1551 44.8215 32.5114 44.8756 33.1625C46.5211 32.9747 47.688 32.1681 48.4845 31.2989C48.7178 31.7555 49.7782 33.7357 51.1446 34.8942C51.1311 34.8975 51.1209 34.8992 51.1091 34.9043L50.8436 34.9889L51.0178 35.2527C51.0871 35.3558 52.6531 37.7014 53.7726 38.2595C53.8859 39.0628 54.2309 40.5881 55.2675 41.481L55.2844 41.7127C55.2912 41.7854 55.4096 43.1451 56.1909 44.5064C55.9947 44.3813 55.7884 44.2629 55.5669 44.153L55.3335 44.038L55.3284 44.3526C55.3284 44.4642 55.3081 46.5256 55.6717 48.0087C55.6666 48.0054 55.6616 47.9986 55.6582 47.9918L55.5009 47.8329L55.3977 48.0476C55.369 48.1068 54.7856 49.3447 54.5437 51.1745C54.4423 50.8211 54.3239 50.4507 54.1818 50.0787L54.0516 49.7337L53.8808 50.0533C53.8352 50.1412 53.1925 51.3741 52.7528 53.2867L52.3876 52.7168L52.3656 56.0483C52.3436 56.4795 52.3385 56.926 52.3571 57.386L52.3504 58.3194L48.4287 56.7907L49.5854 58.4209C47.4969 57.5686 45.2409 57.1238 42.9562 57.1238C40.6715 57.1238 38.4139 57.5686 36.3271 58.4192L37.4821 56.7907L33.5604 58.3194L33.5232 52.7168L33.1596 53.2833C32.7199 51.3724 32.079 50.1412 32.0316 50.0533L31.8625 49.7337L31.7289 50.0787C31.5886 50.4524 31.4668 50.8211 31.3687 51.1745C31.1269 49.3447 30.5418 48.1068 30.5147 48.0476L30.4099 47.8329L30.2526 47.9918C30.2526 47.9918 30.2441 48.0054 30.2374 48.0087C30.6027 46.5256 30.5824 44.4659 30.5824 44.3526L30.5773 44.038L30.3439 44.153C30.1207 44.2612 29.9161 44.3813 29.7199 44.5064C30.4995 43.1451 30.6179 41.7854 30.6246 41.7127L30.6432 41.481C31.6782 40.5881 32.0232 39.0628 32.1365 38.2595C33.256 37.7014 34.822 35.3558 34.8913 35.2527L35.0655 34.9889L34.8017 34.9043C34.7882 34.8992 34.7797 34.8975 34.7662 34.8942C36.1326 33.7357 37.1912 31.7555 37.4263 31.2989C38.2228 32.1681 39.3897 32.9731 41.0351 33.1625C41.0876 32.5097 41.4325 31.1551 40.6123 30.5818C38.1196 28.7825 35.9719 28.8349 35.9719 28.8349C36.0227 29.0497 36.3558 29.973 37.0982 30.9167C35.3276 31.2549 34.0288 32.3727 33.4471 32.9612C33.4505 32.8902 33.4522 32.8462 33.4522 32.8327V32.5841L33.2526 32.6179C31.6883 32.8902 30.5604 35.0447 30.1528 35.941C30.0141 35.6416 29.9076 35.4488 29.8958 35.4286L29.774 35.2121L29.6286 35.4032C28.7864 36.4973 28.3061 37.6118 28.1201 38.0988L27.9797 37.9568L27.8715 38.1462C26.9296 39.7882 26.6742 41.7195 26.6049 42.587C26.2954 42.2082 26.0603 41.9833 26.0316 41.9579L25.8557 41.7888L25.7678 42.0459C24.9324 44.4845 25.257 46.918 25.4465 47.8971C25.3365 47.8396 25.2655 47.8075 25.2486 47.799L25 47.6824L25.0135 48.0121C25.1488 51.5601 26.1111 53.444 26.6049 54.1881C26.0147 54.1458 25.6562 54.1982 25.6426 54.2016L25.3805 54.2439L25.5158 54.528C26.73 57.1002 28.1522 58.4158 29.4662 59.0568L29.0046 59.7772L29.1145 59.8956C29.9296 60.7716 32.6472 62.9683 32.7622 63.0613L32.9364 63.2017L34.7645 60.6244L36.3795 64.7L36.5943 64.558C38.4714 63.3218 40.6715 62.669 42.9528 62.669C45.2342 62.669 47.4343 63.3218 49.3114 64.558L49.5262 64.7L51.1412 60.6261L52.9693 63.2034L53.1435 63.063C53.2585 62.97 55.9744 60.7733 56.7912 59.8973L56.9028 59.7789L56.4412 59.0585C57.7552 58.4175 59.1774 57.1002 60.3916 54.5297L60.5269 54.2456L60.2665 54.2033C60.2529 54.1999 59.8927 54.1492 59.3042 54.1898C59.798 53.4457 60.7619 51.5618 60.8955 48.0138L60.9091 47.684V47.6824ZM45.4946 32.3271C45.4811 32.1884 45.4726 32.0446 45.4726 31.9093C45.4726 31.5847 45.525 31.2955 45.7094 31.1669L45.7178 31.1602C46.8999 30.3079 47.9822 29.9071 48.7601 29.7177C48.2274 30.6326 47.2145 31.8823 45.4963 32.3271H45.4946ZM40.1879 31.1602L40.1963 31.1669C40.3807 31.2955 40.4331 31.5847 40.4331 31.9093C40.4331 32.0463 40.4229 32.1884 40.4094 32.3271C38.6929 31.8806 37.6766 30.6326 37.1473 29.7177C37.9235 29.9071 39.0058 30.3079 40.1896 31.1602H40.1879ZM59.9079 42.4873C60.6977 45.0628 60.165 47.6435 60.0517 48.1254C59.9401 48.1931 59.8166 48.2658 59.6813 48.352C59.5291 48.2032 59.2873 47.8244 59.475 47.0245C59.7354 45.9016 59.7354 45.2488 59.8521 44.5606C59.7929 44.4168 59.5325 43.945 59.3871 44.9225C59.3871 45.3334 59.245 47.8887 58.8087 48.0713C58.6582 47.564 58.4062 46.9298 57.9868 46.2923C58.1745 44.5064 59.4378 42.9963 59.9096 42.4889L59.9079 42.4873ZM57.8651 38.6045C58.4587 39.724 58.7377 40.9771 58.8679 41.8683C58.6058 41.4591 58.1644 40.7234 58.0815 40.2465C57.9665 39.9929 57.3561 39.4162 57.6469 40.5729C57.6469 40.5729 58.5855 42.3452 58.0207 42.6378C57.7349 42.3435 57.373 42.0425 56.9282 41.8226C56.7253 40.2262 57.5319 39.0239 57.8651 38.6028V38.6045ZM56.1773 35.9054C56.9722 37.0013 57.4034 38.0904 57.5218 38.4151C57.4085 38.5689 57.2698 38.777 57.1328 39.0272C57.0043 38.6349 56.7608 37.8536 56.7202 37.4562C56.7202 37.4562 56.3414 36.4415 56.4293 37.7454C56.3854 38.3897 56.4581 39.1186 56.2822 39.2843C56.0437 38.99 55.7478 38.6653 55.4163 38.3711C55.4874 37.3987 55.9541 36.357 56.1757 35.9071L56.1773 35.9054ZM55.5584 36.4009C55.5026 36.5379 55.4485 36.6834 55.396 36.8372C55.1458 36.4077 54.5725 35.4286 53.9806 34.5509C53.776 34.3327 53.0488 33.4229 53.5138 34.6591C53.5138 34.6591 54.5911 35.9968 54.1159 36.1997C53.1401 34.8975 52.8915 33.6427 52.8273 33.1067C54.2765 33.5565 55.3267 35.853 55.5601 36.3993L55.5584 36.4009ZM48.9478 31.3868C51.1209 31.8874 52.5364 33.6258 52.5516 33.6444C52.6159 33.9708 52.7258 34.3818 52.9101 34.8367C52.807 34.8079 52.6869 34.7809 52.5516 34.7589C52.2269 34.2329 51.4118 32.9747 50.8182 32.6044C50.6863 32.5334 50.2314 32.393 50.8943 33.362C51.2511 33.7662 51.7619 34.3429 51.8887 34.747C51.8041 34.7538 51.7179 34.7656 51.6266 34.7809L51.6316 34.7673C50.4174 33.8879 49.3808 32.1681 48.9495 31.3851L48.9478 31.3868ZM52.9203 35.9359C52.719 35.8277 52.2827 35.393 52.6598 36.2251C52.8475 36.5176 53.0336 36.9286 52.9017 37.0385C52.3182 36.4246 51.7568 35.6569 51.4744 35.2561C52.4248 35.0311 53.0302 35.3237 53.1689 35.4032C53.5612 36.1794 54.1784 37.0351 55.1322 37.8299C55.117 37.9213 55.1018 38.0126 55.09 38.1073C54.8515 37.9263 54.5978 37.7707 54.3323 37.6574C54.0465 37.2008 53.3295 36.1084 52.9186 35.9376L52.9203 35.9359ZM54.0922 38.0143C55.3436 38.4759 56.4276 40.0926 56.6323 40.4123C56.5967 40.5932 56.5714 40.7809 56.5562 40.9788C56.1943 40.5019 55.1948 39.1879 55.0088 38.8345C54.7754 38.3981 54.312 38.2527 54.9208 39.4145C55.3081 39.9929 55.878 40.8604 56.0404 41.5301C55.993 41.5216 55.944 41.5149 55.8949 41.5098L55.9169 41.4421C54.5454 40.7082 54.1835 38.7617 54.0922 38.0143ZM55.6632 41.9241C57.2597 42.0323 58.1813 43.3869 58.4468 43.8385C58.3098 44.082 58.1796 44.3441 58.0629 44.6214C57.8718 44.4794 57.5201 44.1259 57.2986 43.3649C57.1819 42.9675 56.8927 42.6056 56.5731 42.7139C56.5731 42.7139 56.4293 42.8931 56.8335 43.6186C57.0381 44.0346 57.7196 45.3334 57.2715 45.3993C57.2461 45.374 57.2208 45.3486 57.1937 45.3233L57.2208 45.2844C56.1012 44.0887 55.7546 42.5194 55.6599 41.9241H55.6632ZM58.6684 49.0877C58.4079 49.3024 58.1492 49.5409 57.9057 49.803C57.7433 49.7354 57.5319 49.4699 57.5319 48.5465C57.4457 47.9309 57.4152 47.2055 57.2123 46.9535C57.2123 46.9535 56.5748 46.5561 56.9214 47.6079C57.0364 48.1153 57.2698 49.3819 57.0077 49.8165C56.9603 49.8419 56.9011 49.8791 56.8521 49.9298C56.7168 49.5696 56.5477 49.2145 56.338 48.878L56.3735 48.8425C55.7749 47.9715 55.6886 45.5651 55.6768 44.6891C58.1864 46.0656 58.6109 48.604 58.6684 49.0894V49.0877ZM54.8059 52.0962C54.9039 50.378 55.3842 49.0268 55.5939 48.5093C57.5319 50.7094 56.9569 54.3014 56.869 54.7952C56.6745 54.8763 56.4784 54.966 56.2771 55.0708C56.1215 54.9727 55.9203 54.7749 56.0539 54.4181C56.3143 52.8588 56.4006 52.2805 56.2856 51.4468C56.2856 51.4468 55.9389 50.7568 55.8222 52.1723C55.7055 53.2224 55.6768 54.1289 55.4738 54.528C55.2608 54.7326 55.1999 54.8882 55.0308 54.922C55.0477 54.1745 54.9953 53.2038 54.767 52.0928L54.8075 52.0978L54.8059 52.0962ZM54.0009 50.6452C54.9225 53.3188 54.6756 55.5393 54.5809 56.1498L54.0449 55.3126C54.0516 55.2856 54.0601 55.2602 54.0668 55.2315C54.1531 54.3081 54.2833 53.6029 54.2393 52.6779C54.2393 52.6779 53.9941 51.9541 53.7591 53.1125C53.6813 53.3797 53.5916 53.9699 53.5274 54.5094L53.0217 53.7196C53.3261 52.2686 53.7624 51.1745 53.9992 50.6469L54.0009 50.6452ZM31.9014 50.6452C32.1382 51.1728 32.5745 52.267 32.8789 53.7162L32.3732 54.506C32.309 53.9665 32.2177 53.378 32.1416 53.1108C31.9082 51.9541 31.663 52.6762 31.663 52.6762C31.6173 53.6012 31.7492 54.3064 31.8355 55.2298C31.8422 55.2585 31.849 55.2839 31.8575 55.311L31.3231 56.1481C31.2267 55.5359 30.9798 53.3171 31.9014 50.6452ZM30.3101 48.5093C30.5198 49.0268 31.0018 50.3763 31.0982 52.0962L31.1387 52.0911C30.9071 53.2021 30.8563 54.1745 30.8749 54.9203C30.7041 54.8865 30.6432 54.7309 30.4335 54.5263C30.2289 54.1272 30.2019 53.2207 30.0835 52.1706C29.9685 50.7568 29.6184 51.4451 29.6184 51.4451C29.5034 52.2788 29.5914 52.8572 29.8501 54.4164C29.9837 54.7715 29.7808 54.971 29.6269 55.0691C29.4273 54.9643 29.2295 54.8747 29.035 54.7935C28.9454 54.3014 28.3704 50.7078 30.3084 48.5076L30.3101 48.5093ZM30.2272 44.6874C30.2154 45.5634 30.1275 47.9698 29.5322 48.8408L29.566 48.8763C29.358 49.2128 29.1872 49.5679 29.0519 49.9281C29.0046 49.8774 28.9454 49.8402 28.898 49.8148C28.6376 49.3802 28.8676 48.1136 28.9843 47.6063C29.3326 46.5544 28.6934 46.9518 28.6934 46.9518C28.4921 47.2055 28.46 47.9293 28.3738 48.5448C28.3738 49.4682 28.1607 49.7354 28 49.8013C27.7565 49.5392 27.4961 49.3007 27.2357 49.086C27.2948 48.6023 27.7176 46.064 30.2272 44.6857V44.6874ZM28.6816 45.2844L28.7086 45.3233C28.6816 45.3469 28.6579 45.3723 28.6325 45.3993C28.1844 45.3334 28.8642 44.0346 29.0705 43.6186C29.4764 42.8931 29.3326 42.7139 29.3326 42.7139C29.013 42.6056 28.7238 42.9675 28.6071 43.3649C28.3822 44.1259 28.0322 44.4811 27.8411 44.6214C27.7278 44.3441 27.5959 44.082 27.4589 43.8385C27.7227 43.3869 28.6477 42.0307 30.2424 41.9241C30.1477 42.5211 29.8011 44.0887 28.6816 45.2844ZM29.9871 41.4421L30.0091 41.5098C29.9617 41.5166 29.911 41.5233 29.8653 41.5301C30.026 40.8621 30.5976 39.9946 30.9848 39.4145C31.5936 38.2527 31.1286 38.3981 30.8969 38.8345C30.7092 39.1879 29.7114 40.5019 29.3478 40.9788C29.3343 40.7809 29.309 40.5932 29.2734 40.4123C29.4781 40.0909 30.5604 38.4759 31.8118 38.0143C31.7205 38.7617 31.3586 40.7082 29.9871 41.4421ZM33.004 37.0368C32.8704 36.9286 33.0581 36.5176 33.2442 36.2234C33.6213 35.3913 33.1867 35.826 32.982 35.9342C32.5694 36.105 31.8541 37.1975 31.57 37.6541C31.3062 37.7674 31.0508 37.9229 30.8124 38.1039C30.7988 38.0092 30.787 37.9179 30.7684 37.8266C31.7239 37.0317 32.3394 36.1743 32.7351 35.3998C32.8738 35.3203 33.4759 35.0278 34.428 35.2527C34.1455 35.6535 33.5841 36.4212 33.0007 37.0351L33.004 37.0368ZM33.3541 33.6427C33.3693 33.6258 34.7848 31.8874 36.9562 31.3868C36.5249 32.1698 35.49 33.8896 34.2741 34.769L34.2808 34.7825C34.1895 34.7673 34.1016 34.7555 34.0187 34.7487C34.1438 34.3445 34.6529 33.7679 35.0114 33.3637C35.6743 32.3947 35.2194 32.5368 35.0875 32.6061C34.4922 32.9764 33.6788 34.2346 33.3541 34.7606C33.2171 34.7809 33.0954 34.8079 32.9939 34.8384C33.1782 34.3834 33.2898 33.9725 33.3541 33.6444V33.6427ZM33.0784 33.1083C33.0142 33.6444 32.7656 34.8992 31.7881 36.2014C31.3129 35.9985 32.3902 34.6608 32.3902 34.6608C32.8569 33.4246 32.128 34.3344 31.9234 34.5526C31.3332 35.4302 30.7582 36.4094 30.5096 36.8389C30.4572 36.685 30.4014 36.5396 30.3473 36.4026C30.579 35.8564 31.6309 33.5599 33.0801 33.11L33.0784 33.1083ZM29.7267 35.9054C29.9499 36.3553 30.4183 37.3987 30.4877 38.3694C30.1545 38.6637 29.8603 38.9883 29.6218 39.2826C29.4459 39.1152 29.5187 38.388 29.4747 37.7437C29.5626 36.4398 29.1838 37.4545 29.1838 37.4545C29.1398 37.8519 28.898 38.6332 28.7712 39.0255C28.6325 38.7753 28.4955 38.5673 28.3805 38.4134C28.4989 38.0904 28.9301 36.9996 29.725 35.9038L29.7267 35.9054ZM28.0406 38.6045C28.3738 39.0239 29.1787 40.2262 28.9775 41.8243C28.5327 42.0442 28.1708 42.3435 27.885 42.6395C27.3202 42.3452 28.2571 40.5746 28.2571 40.5746C28.5496 39.4162 27.9392 39.9946 27.8242 40.2482C27.743 40.7268 27.3016 41.4624 27.0361 41.87C27.168 40.9788 27.4453 39.724 28.0406 38.6062V38.6045ZM25.9961 42.4873C26.4679 42.9946 27.7328 44.5048 27.9206 46.2906C27.5012 46.9281 27.2475 47.5623 27.0987 48.0696C26.6607 47.887 26.5186 45.3317 26.5186 44.9208C26.3749 43.9433 26.1128 44.4134 26.0553 44.5589C26.1719 45.2488 26.1719 45.9016 26.4324 47.0228C26.6201 47.8227 26.3783 48.2015 26.2244 48.3503C26.0908 48.2658 25.9673 48.1914 25.854 48.1237C25.7424 47.6435 25.2097 45.0611 25.9978 42.4856L25.9961 42.4873ZM25.3737 48.3368C26.0502 48.7021 27.9003 49.8098 28.6443 51.3774L28.6731 51.3554C28.548 52.1097 28.5277 52.8335 28.5496 53.4338C28.4313 53.4457 28.3805 53.4051 28.3163 53.4051C28.0254 53.4051 27.0107 51.0832 26.8382 50.7585C26.2294 50.2156 26.2582 50.8329 26.2007 50.9766C26.5778 51.9558 27.6483 53.1531 27.9983 53.4761C28.23 53.7399 28.0626 54.1948 27.9544 54.4231C27.628 54.3352 27.3236 54.2777 27.053 54.2388L27.0801 54.1999C27.0648 54.1847 25.6054 52.5375 25.372 48.3385L25.3737 48.3368ZM25.9606 54.6108C26.6911 54.5804 28.7864 54.6802 31.0305 56.4677V56.4711H31.0339C31.0525 56.4846 31.0711 56.5015 31.0897 56.5167L30.4403 57.5314C29.9837 57.2135 29.0062 56.7873 28.4465 56.3189C27.6212 55.7219 27.8817 56.5911 27.8817 56.5911C28.6342 57.183 29.4916 57.8189 30.0125 58.2011L29.6776 58.7253C28.4617 58.1537 27.1325 56.9598 25.9622 54.6108H25.9606ZM32.8518 62.5946C32.2599 62.1126 30.3084 60.5111 29.5322 59.7265L33.1089 54.1373L33.141 58.935L36.3271 57.6937L32.8501 62.5963L32.8518 62.5946ZM49.3266 64.0675C47.4292 62.877 45.2308 62.2479 42.9528 62.2479C40.6749 62.2479 38.4782 62.877 36.579 64.0675L35.052 60.2152L35.8552 59.0821C38.0638 58.0759 40.4906 57.5466 42.9512 57.5466C45.4117 57.5466 47.8385 58.0759 50.0471 59.0821L50.852 60.2169L49.325 64.0692L49.3266 64.0675ZM53.0539 62.5946L49.5769 57.692L52.347 58.7727L52.2185 59.2394C52.2557 59.258 53.7624 59.9531 55.6582 59.3679C55.5888 59.2529 55.5347 59.1312 55.528 58.9942C54.1852 59.3967 53.0657 59.1075 52.5871 58.935C52.6006 58.9164 52.6125 58.8995 52.626 58.8809L52.7613 58.9333V58.6898C52.7799 58.6661 52.7968 58.6425 52.8137 58.6188C52.856 58.5714 52.8814 58.5393 52.8847 58.5359L52.8814 58.5325C53.3718 57.8882 53.8724 57.3471 54.3695 56.8955C54.3408 56.8482 54.312 56.8008 54.2799 56.7552C54.2343 56.6909 54.1869 56.63 54.1396 56.5691C53.6813 56.9885 53.2213 57.4807 52.7681 58.0539L52.7951 54.1373L56.3735 59.7265C55.5973 60.5111 53.6457 62.1126 53.0539 62.5946ZM59.9451 54.6108C58.7749 56.9581 57.4457 58.152 56.2298 58.7236L55.8949 58.1994C56.4158 57.8189 57.2715 57.183 58.0257 56.5911C58.0257 56.5911 58.2879 55.7219 57.4592 56.3189C56.8995 56.7873 55.9237 57.2135 55.4671 57.5314L54.8177 56.5167C54.8363 56.5015 54.8549 56.4846 54.8752 56.4694C57.1193 54.6819 59.2146 54.5821 59.9451 54.6125V54.6108ZM58.8222 54.1982L58.851 54.2371C58.5804 54.276 58.276 54.3335 57.9479 54.4214C57.8414 54.1914 57.674 53.7382 57.9057 53.4744C58.254 53.1514 59.3262 51.9541 59.7033 50.9749C59.6458 50.8312 59.6746 50.2139 59.0658 50.7568C58.8916 51.0815 57.8769 53.4034 57.5877 53.4034C57.5218 53.4034 57.4727 53.444 57.3527 53.4321C57.3747 52.8318 57.3544 52.1097 57.2292 51.3538L57.2597 51.3757C58.0037 49.8098 59.8538 48.7004 60.5286 48.3351C60.2986 52.5342 58.8375 54.1813 58.8206 54.1965L58.8222 54.1982Z" fill="#3DB6D3"/>
<path d="M40.8169 30.2199C41.1112 29.7938 41.2702 29.6872 41.3243 28.4679C39.2983 26.6348 37.8068 26.4504 37.8068 26.4504C37.8068 26.743 37.8592 29.2374 40.8186 30.2199H40.8169ZM40.5886 28.7723C40.57 29.0328 40.5413 29.2019 40.5075 29.327C39.4759 28.8434 38.9787 28.1314 38.7403 27.5277C39.229 27.7661 39.8648 28.1534 40.5886 28.7723Z" fill="#3DB6D3"/>
<path d="M40.0712 27.1404L41.4562 28.1737C41.4562 28.1737 41.7758 26.7413 41.7217 26.2898C41.7217 26.2898 41.2702 25.1753 40.3891 24.6172C39.8023 25.5474 39.9359 26.4741 40.0154 27.1116L40.0695 27.1404H40.0712ZM40.6563 26.0243L41.1349 26.6618L41.0825 26.9797L40.6563 26.8191V26.0243Z" fill="#3DB6D3"/>
<path d="M41.4749 33.017C42.1869 33.2047 42.2985 33.3519 42.2985 33.3519V33.9471C40.3503 34.079 38.1163 34.7453 35.8232 36.4347C36.3559 37.6321 37.7206 41.9528 35.14 45.8052C35.0893 45.7883 35.0402 45.7697 34.9895 45.7528C34.9895 45.7528 34.0475 45.8339 34.0915 44.6789C33.7059 44.7212 33.7482 44.5977 33.7482 44.5977L33.8328 43.8976C33.8328 43.8976 34.4331 43.1958 34.5194 42.7815C33.8328 42.6175 32.8485 42.0391 32.8485 43.8553C32.3361 44.3914 32.123 44.6383 32.123 44.6383C32.123 44.6383 34.861 51.4079 35.2026 52.272C36.0177 52.3126 37.6445 52.3549 38.2855 52.7269C38.9264 53.0973 40.5566 53.263 41.5392 52.7675C42.5234 52.272 43.3791 52.7269 44.064 52.8098C44.7506 52.891 45.8633 53.2224 47.36 52.7286C48.8566 52.2331 50.3126 52.108 50.6559 52.2331C51.2123 50.6655 52.7529 45.1372 52.7529 45.1372C52.7529 45.1372 51.2867 45.5989 49.0697 46.0369C49.1982 44.0194 49.7461 38.8581 49.7461 38.0785C49.7461 37.2989 49.8544 36.2284 48.3357 35.2865C47.573 34.8147 45.8515 34.052 43.6057 33.9404V33.3569C43.6057 33.3569 43.7173 33.2098 44.4276 33.0221C44.6305 29.5198 43.5465 25.5558 42.9512 24C42.3543 25.5558 41.2703 29.5198 41.4732 33.0221L41.4749 33.017ZM37.7071 42.4331C38.6812 41.667 39.5132 41.0735 42.1547 41.0024C42.0465 42.012 42.0465 42.1186 42.0465 42.1186C42.0465 42.1186 38.7911 42.1541 38.1045 43.9331C37.6209 45.1863 37.352 46.0048 37.2353 46.3802C36.804 46.2922 36.3796 46.1891 35.9619 46.069C36.3728 44.6113 36.7804 43.1603 37.7071 42.4331ZM48.1024 44.1547C46.878 41.8159 43.1508 42.1423 43.1508 42.1423C43.1508 42.1423 43.0984 41.7398 43.1762 40.9094C44.4529 40.7336 47.1621 41.5115 48.1277 42.1659C49.0917 42.8204 48.5962 43.4241 48.6232 43.7505C48.6486 44.0769 48.334 44.7567 48.1024 44.1547ZM45.8667 44.8514L45.9648 44.4303H47.4361L47.4953 44.9089L45.8667 44.8514ZM47.3769 45.1964L47.3177 45.6564L45.7686 45.6175L45.8278 45.1372L47.3769 45.1947V45.1964ZM46.0071 44.0464L46.2658 43.4732L46.9998 43.644L47.1773 44.0853L46.0071 44.0464ZM44.7929 42.9202C45.8058 42.9912 45.8786 43.2702 45.8786 43.2702C45.8786 43.2702 44.9704 45.1474 44.874 46.6491C42.6807 46.8554 40.2708 46.8875 37.9794 46.5155C38.069 45.5245 38.4377 43.5374 39.7297 43.162C41.1756 42.7443 43.7816 42.8491 44.7929 42.9185V42.9202ZM50.1875 51.6531C50.1875 51.6531 48.9462 51.4451 47.6627 51.9811C46.3791 52.5189 45.4811 52.4361 44.5375 52.1875C43.5956 51.9389 42.3966 51.6514 41.113 52.3092C39.8294 52.9704 39.3593 52.3532 38.6727 52.064C37.9878 51.7731 36.5757 51.4873 35.6778 51.5262L35.3767 50.6604C35.3767 50.6604 42.9546 52.4749 50.4885 50.5369C50.4885 50.5369 50.404 50.9902 50.1892 51.6514L50.1875 51.6531ZM50.7016 49.8774C44.3227 51.5279 39.4422 50.5775 35.162 50.0431L34.521 48.7224C34.521 48.7224 42.9969 50.7449 51.0432 48.3503C51.0432 48.3503 50.9164 49.299 50.7016 49.8791V49.8774ZM51.258 47.5673C43.0815 49.6288 37.6885 48.6818 34.3063 47.9377L33.3643 45.9151C33.3643 45.9151 41.1587 49.5459 51.7315 46.0825L51.2597 47.5673H51.258ZM45.4236 46.5933C45.5657 46.392 45.5894 46.1654 45.5894 46.1654L47.8301 45.8509L47.8064 46.2618C47.0623 46.3869 46.2607 46.5019 45.422 46.5933H45.4236ZM48.9868 36.8186C49.0595 39.2234 48.6976 41.6992 48.6976 41.6992C46.7055 40.4156 41.2601 38.9376 37.2691 41.7347C37.5955 40.1315 37.4873 37.7606 36.6552 36.68C37.9574 35.6687 44.0674 32.3203 48.9868 36.8203V36.8186ZM42.9529 26.1173C43.232 27.3805 43.533 30.2673 43.3081 32.3828H42.5995C42.3729 30.2656 42.6756 27.3805 42.9529 26.1173Z" fill="#3DB6D3"/>
<path d="M45.0888 30.2199C48.0465 29.2374 48.1006 26.743 48.1006 26.4504C48.1006 26.4504 46.6074 26.6348 44.5831 28.4679C44.6356 29.6872 44.7962 29.7938 45.0905 30.2199H45.0888ZM47.1638 27.5294C46.927 28.1314 46.4281 28.8434 45.3966 29.3287C45.361 29.2036 45.334 29.0328 45.3154 28.774C46.0409 28.1551 46.6767 27.7695 47.1638 27.5294Z" fill="#3DB6D3"/>
<path d="M45.8344 27.1404L45.8869 27.1116C45.968 26.4741 46.0999 25.5474 45.5131 24.6172C44.6338 25.1753 44.1822 26.2898 44.1822 26.2898C44.1281 26.7413 44.446 28.1737 44.446 28.1737L45.8328 27.1404H45.8344ZM45.2493 26.0243V26.8191L44.8232 26.9797L44.769 26.6618L45.2493 26.0243Z" fill="#3DB6D3"/>
<path d="M38.7758 45.215C38.6168 45.9236 38.8756 46.2297 39.273 46.2297C39.6704 46.2297 42.5503 46.3261 44.5374 46.3261C44.5966 45.215 45.1716 43.3565 45.1716 43.3565C45.1716 43.3565 43.5227 43.184 41.2972 43.3176C39.0734 43.4529 38.9331 44.5047 38.7758 45.215ZM39.5892 45.8847C39.5892 45.8847 39.0531 45.8661 39.1732 45.3097C39.3508 44.2578 40.0847 44.4286 40.0847 44.4286L39.5875 45.8847H39.5892ZM41.5374 45.8492L40.5836 45.8306L40.6428 45.4264L41.578 45.467L41.5374 45.8509V45.8492ZM44.0402 43.7573L44.6964 43.7387L44.4782 44.9275L43.7629 44.9106L44.0402 43.759V43.7573ZM43.7629 45.445H44.3581L44.2803 45.9236L43.7054 45.9625L43.7646 45.445H43.7629ZM42.7279 43.9501L43.6428 43.8723L43.3638 45.0797L42.4878 45.1575L42.7262 43.9501H42.7279ZM42.2916 45.4839L43.2843 45.467L43.1862 45.9253L42.251 45.9439L42.2916 45.4839ZM41.9737 43.7387C41.9128 44.0076 41.6354 45.1575 41.6354 45.1575L40.8203 45.0797C40.8203 45.0797 41.0199 44.2359 41.1383 44.0262C41.2566 43.8148 41.5171 43.6626 41.9737 43.737V43.7387Z" fill="#3DB6D3"/>
<path d="M41.7572 56.1683C40.4111 56.3865 39.224 56.3188 38.2313 55.9671L38.1907 55.9536H38.0097C37.472 55.9468 36.2155 55.9383 35.2008 56.3155L35.3818 56.6977C36.3085 56.3527 37.4973 56.3628 38.0047 56.3679H38.1028C39.1698 56.7366 40.4263 56.8076 41.8418 56.5759L41.9297 56.5641C43.1609 56.28 44.1738 56.3188 44.5053 56.3611C45.7094 56.9226 46.8729 56.6537 47.3734 56.5353L47.4834 56.5099C49.1592 56.0466 50.4276 56.6807 50.4394 56.6841L50.6779 56.329C50.617 56.2986 49.2218 55.5951 47.3565 56.1108C47.3701 56.1075 47.2517 56.1345 47.2517 56.1345C46.7629 56.2478 45.7398 56.4863 44.6863 55.9789L44.6507 55.962L44.6118 55.9553C44.2111 55.8961 43.1118 55.8606 41.83 56.1599C41.8503 56.1531 41.7539 56.17 41.7539 56.17L41.7572 56.1683Z" fill="#3DB6D3"/>
<path d="M47.3565 55.2162C47.37 55.2129 47.2533 55.2399 47.2533 55.2399C46.7629 55.3532 45.7432 55.5934 44.6862 55.0826L44.6507 55.0674L44.6118 55.0607C44.2093 55.0015 43.1101 54.9659 41.8299 55.2619C41.8502 55.2568 41.7555 55.272 41.7555 55.272C40.4094 55.4936 39.2222 55.4226 38.2279 55.0725L38.1873 55.0556H38.0063C37.4686 55.0522 36.2121 55.0404 35.1974 55.4175L35.3783 55.8014C36.3051 55.4564 37.4939 55.4665 38.0013 55.4716H38.1027C39.1698 55.8386 40.4263 55.9096 41.8401 55.6813L41.9263 55.6661C43.1236 55.3921 44.118 55.4141 44.507 55.4648C45.711 56.0246 46.8711 55.7557 47.3717 55.639L47.4833 55.6136C49.1575 55.1503 50.4259 55.7828 50.4377 55.7895L50.6761 55.431C50.6153 55.4023 49.2201 54.6988 47.3548 55.2145L47.3565 55.2162Z" fill="#3DB6D3"/>
<path d="M47.3565 54.3233C47.37 54.32 47.2533 54.3453 47.2533 54.3453C46.7629 54.4603 45.7432 54.6988 44.6862 54.1898L44.6507 54.1728L44.6118 54.1678C44.2093 54.1086 43.1101 54.0731 41.8299 54.369C41.8502 54.3639 41.7555 54.3792 41.7555 54.3792C40.4094 54.599 39.2222 54.5314 38.2279 54.1796L38.1873 54.1644H38.0063C37.4686 54.1593 36.2121 54.1475 35.1974 54.5263L35.3783 54.9102C36.3051 54.5652 37.4939 54.577 38.0013 54.5804H38.0993C39.1664 54.9474 40.4246 55.0184 41.8401 54.7901L41.9263 54.7749C43.1186 54.5009 44.1095 54.5212 44.5019 54.5736C45.7076 55.1368 46.8711 54.8645 47.3717 54.7495L47.4833 54.7225C49.1575 54.2608 50.4259 54.8933 50.4377 54.9017L50.6761 54.5415C50.6153 54.5111 49.2201 53.8093 47.3548 54.325L47.3565 54.3233Z" fill="#3DB6D3"/>
<path d="M47.3565 53.4287C47.37 53.4253 47.2533 53.4507 47.2533 53.4507C46.7629 53.5657 45.7432 53.8058 44.6862 53.2951L44.6507 53.2799L44.6118 53.2748C44.2093 53.214 43.1101 53.1801 41.8299 53.4761C41.8502 53.471 41.7555 53.4879 41.7555 53.4879C40.4094 53.7061 39.2222 53.6384 38.2279 53.2867L38.1873 53.2715H38.0063C37.4686 53.2647 36.2121 53.2562 35.1974 53.6317L35.3783 54.0155C36.3051 53.6722 37.4939 53.6824 38.0013 53.6875H38.0993C39.1664 54.0544 40.4246 54.1255 41.8401 53.8955L41.9263 53.8819C43.1135 53.608 44.1011 53.63 44.4968 53.6807C45.7043 54.2438 46.8694 53.9733 47.3717 53.8566L47.4833 53.8312C49.1575 53.3678 50.4259 54.0003 50.4377 54.0054L50.6761 53.6486C50.6153 53.6181 49.2201 52.9146 47.3548 53.4304L47.3565 53.4287Z" fill="#3DB6D3"/>
</svg>
