<svg width="87" height="88" viewBox="0 0 87 88" fill="none" xmlns="http://www.w3.org/2000/svg">
<path d="M60.8497 67.9939C60.6977 68.008 60.588 67.7447 60.6742 67.6084C60.7024 67.5614 60.7337 67.5175 60.7666 67.4752C58.2782 69.3525 55.5564 70.78 52.7091 71.7563C52.753 72.1041 52.8486 72.4379 52.9426 72.7732C55.8839 71.7657 58.6982 70.2958 61.2743 68.3653C61.3558 68.2493 61.4734 68.0942 61.6536 67.8576C61.3151 67.9171 61.0816 67.9751 60.8481 67.9955L60.8497 67.9939ZM59.3062 69.4246C59.1213 69.6596 58.8048 69.7066 58.5963 69.5296C58.4553 69.4073 58.4867 69.2193 58.6857 69.0015C58.9333 68.732 59.1479 68.6583 59.2937 68.7884C59.4551 68.9341 59.4613 69.2256 59.3062 69.4246Z" fill="#3DB6D3"/>
<path d="M64.8488 23.3814C64.7062 23.4801 64.5839 23.4331 64.479 23.3595C64.1279 23.1088 63.9023 22.7672 63.8663 22.3112C63.86 22.2297 63.9117 22.0933 63.9791 22.0479C64.0026 22.0307 64.0371 22.0213 64.0731 22.0134C63.5795 21.5418 63.0749 21.0905 62.5594 20.6595C62.5202 20.7865 62.4372 20.9103 62.3134 21.0184C61.9937 21.291 61.6098 21.2393 61.4766 20.8868C61.4076 20.705 61.3779 20.5028 61.3559 20.3023C61.345 20.2067 61.3826 20.0938 61.4343 20.0672C61.5142 20.0124 61.5988 19.9748 61.685 19.9513C60.9657 19.3918 60.2261 18.8716 59.4693 18.3874C59.4599 18.4657 59.4457 18.5457 59.4207 18.6303C59.3517 18.8716 59.3987 18.9531 59.5037 19.1364C59.6824 19.4467 59.7936 19.7993 59.9785 20.1064C61.3011 21.0466 62.5641 22.109 63.7487 23.2937C65.4583 25.0033 66.9125 26.8743 68.116 28.8549C68.2241 28.7813 68.34 28.8252 68.4215 28.9067C68.6127 29.0978 68.6848 29.4332 68.6425 29.7544C74.8948 40.9396 73.2996 55.3435 63.838 64.8051C63.0154 65.6277 62.1551 66.3877 61.2635 67.0913C61.5596 66.98 61.8856 67.0302 62.1535 67.2668C62.2334 67.3373 62.3165 67.4078 62.3948 67.4831C62.8508 67.1054 63.299 66.7137 63.7378 66.3062C63.603 66.0618 63.6923 65.8534 64.0277 65.6434C64.211 65.529 64.4006 65.4177 64.5933 65.3316C64.7062 65.2814 64.8096 65.2281 64.9052 65.1639C65.0086 65.0573 65.112 64.9508 65.2139 64.8427C65.2405 64.7972 65.2656 64.7502 65.2875 64.6969C65.3737 64.4854 65.5147 64.3757 65.6793 64.3365C76.2471 52.5809 76.0403 34.5103 65.0572 23.0038C65.0493 23.1526 64.9914 23.2858 64.8472 23.3861L64.8488 23.3814ZM73.0207 39.0091C73.0222 39.3241 72.6618 39.744 72.3735 39.7566C72.3155 39.7581 72.2622 39.7049 72.2058 39.6766C71.9864 39.4009 72.0726 39.0922 72.4283 38.9308C72.5537 38.8743 72.6963 38.8383 72.8295 38.8305C72.9298 38.8242 73.0222 38.8884 73.0238 39.0091H73.0207Z" fill="#3DB6D3"/>
<path d="M13.7771 37.5001C13.8116 37.45 13.8931 37.3904 13.9401 37.3967C14.1187 37.4217 14.2174 37.5549 14.2895 37.7022C14.3224 37.7665 14.3271 37.8245 14.3177 37.8777C14.4979 37.0112 14.7173 36.1493 14.9759 35.2985C14.8944 35.4614 14.7345 35.5586 14.5543 35.6166C14.3412 35.6824 14.161 35.615 13.9761 35.5398C13.9275 35.5194 13.8805 35.4975 13.8335 35.4755C13.5703 36.3844 13.3477 37.3027 13.1707 38.2288C13.296 38.1065 13.4308 37.9906 13.5624 37.8746C13.6314 37.7492 13.6956 37.6192 13.7755 37.5017L13.7771 37.5001Z" fill="#3DB6D3"/>
<path d="M13.813 41.3063C13.9133 40.1624 14.0794 39.0248 14.3129 37.8981C14.2863 37.9906 14.2111 38.0689 14.1155 38.1394C13.987 38.2836 13.8397 38.3337 13.6689 38.2852L13.6657 38.2883C13.5482 38.4184 13.4166 38.528 13.2411 38.528C13.2035 38.528 13.158 38.5139 13.1251 38.4904C12.9622 39.3805 12.8384 40.2752 12.7553 41.1731C13.1142 41.134 13.4667 41.1857 13.8146 41.3079L13.813 41.3063Z" fill="#3DB6D3"/>
<path d="M32.3179 16.3362C32.357 16.4349 32.3837 16.5211 32.4041 16.601C40.3738 13.5516 49.4279 14.1063 57.0357 18.2605C57.2003 17.8828 57.4228 17.56 57.7628 17.3673C52.6058 14.52 46.7907 13.2805 41.0617 13.6503C41.0022 13.8979 40.847 14.1251 40.6089 14.2756C40.518 14.332 40.4177 14.3727 40.3221 14.4213C39.9758 14.5921 39.816 14.5702 39.5417 14.2395C39.5214 14.1972 39.4383 14.0578 39.3819 13.9073C39.3694 13.8729 39.3631 13.8415 39.3521 13.8086C37.7867 13.9982 36.2338 14.31 34.7091 14.741C34.8016 14.8867 34.8392 15.0591 34.8454 15.244C34.847 15.302 34.8125 15.3834 34.7687 15.4304C34.5665 15.6326 34.098 15.7564 33.8927 15.6577C33.6576 15.5448 33.5903 15.3208 33.5809 15.0826C33.233 15.1954 32.8898 15.3161 32.5451 15.4414C32.4887 15.6232 32.3335 15.7627 32.1972 15.9052C32.133 16.0886 32.2066 16.2186 32.3179 16.3362Z" fill="#3DB6D3"/>
<path d="M47.98 73.831C48.237 73.762 48.436 73.8075 48.6053 73.9078C49.2618 73.7871 49.9121 73.6445 50.5593 73.48C50.6909 73.1728 50.6533 72.8532 50.6032 72.521C50.5969 72.4771 50.5954 72.4348 50.5922 72.3909C49.547 72.662 48.4893 72.8767 47.4253 73.0318C47.4284 73.0349 47.4316 73.0381 47.4331 73.0428C47.5804 73.259 47.5804 73.5505 47.4363 73.7981C47.2827 74.0613 47.0414 74.0237 46.8236 73.9187C46.4475 73.6711 46.3237 73.4627 46.4428 73.1587C45.0701 73.3123 43.688 73.3687 42.3075 73.3295C42.2934 73.3844 42.2809 73.4439 42.2448 73.4706C42.0192 73.6398 41.781 73.5959 41.5475 73.563C41.2733 73.5238 41.0743 73.3875 41.0696 73.27C36.1069 72.9174 31.2116 71.3159 26.9039 68.4624C26.8537 68.5565 26.7582 68.6082 26.5936 68.5878L26.592 68.5894C26.4918 68.6113 26.3899 68.6317 26.2881 68.6552C26.0593 68.7555 25.8321 68.8542 25.6033 68.9513C28.8454 71.2188 32.4338 72.7795 36.1523 73.6367C36.1241 73.3421 36.0943 73.049 36.0755 72.7513C36.0724 72.7043 36.1492 72.615 36.1978 72.6009C36.2385 72.5883 36.331 72.6432 36.3419 72.6886C36.4297 73.0867 36.5801 73.4439 36.7807 73.773C40.3221 74.5126 43.9701 74.616 47.5413 74.0848C47.6463 73.9579 47.8014 73.878 47.9769 73.831L47.98 73.831Z" fill="#3DB6D3"/>
<path d="M15.0244 35.1402C15.9928 32.0218 17.494 29.0383 19.5264 26.3289C19.2976 26.354 19.0218 26.4762 18.8808 26.2537C18.7664 26.0735 18.9137 25.8479 19.0265 25.6786C19.2083 25.4091 19.4637 25.3386 19.7395 25.4671C19.7677 25.4796 19.7896 25.5047 19.8163 25.5251C19.9212 25.4671 20.0153 25.4702 20.1046 25.5313L20.1062 25.5329C20.1218 25.5266 20.1375 25.5235 20.1532 25.5204C20.8003 24.7196 21.4945 23.944 22.2373 23.2012C23.5692 21.8693 25.0015 20.694 26.5073 19.6739C26.6876 19.5 26.8615 19.3166 27.0589 19.1693C27.1843 19.0753 27.3128 19.0471 27.4366 19.0675C27.6027 18.964 27.7719 18.8637 27.9396 18.7619C27.9302 18.7212 27.9223 18.6788 27.9161 18.635C27.8659 18.3216 28.0696 18.1022 28.405 18.1085C28.5382 18.11 28.698 18.1006 28.7936 18.168C28.8218 18.1868 28.8469 18.2087 28.8735 18.2291C29.4298 17.9267 29.9924 17.6399 30.5643 17.3751C30.5643 17.3751 30.5612 17.372 30.5596 17.3704C30.3528 17.173 30.1428 16.9755 29.9579 16.7561C29.9062 16.695 29.8701 16.637 29.8404 16.5791C26.8286 18.0238 24.008 19.992 21.5165 22.4835C18.0126 25.9873 15.543 30.143 14.1092 34.5604C14.3161 34.6293 14.5386 34.6669 14.7392 34.7484C14.91 34.8189 15.0416 34.9412 15.0181 35.137L15.0244 35.1402Z" fill="#3DB6D3"/>
<path d="M25.188 68.2007C25.4246 68.124 25.655 68.1255 25.8853 68.1647C25.9856 68.1616 26.0843 68.1569 26.1846 68.1537C26.1846 68.1537 26.1846 68.1537 26.183 68.1522C26.2269 68.1177 26.2739 68.0864 26.3194 68.0597C24.9169 67.0803 23.5803 65.9662 22.3298 64.7157C18.9357 61.3216 16.5429 57.3023 15.1529 53.0291C15.1028 52.9946 15.0636 52.9397 15.037 52.8692C14.9947 52.7642 14.99 52.6686 15.0166 52.5919C13.9275 49.0614 13.5154 45.368 13.7818 41.7169C13.6878 41.7357 13.5875 41.7482 13.4794 41.7435C13.1738 41.7326 12.8824 41.9081 12.6927 42.2324C12.688 42.2403 12.6818 42.2497 12.6755 42.2591C12.5642 44.2131 12.6395 46.175 12.9027 48.1181C13.0093 48.1651 13.0923 48.2481 13.1675 48.3453C13.3321 48.5631 13.3399 48.9 13.202 49.1006C13.1566 49.1304 13.1111 49.1727 13.0657 49.193C14.0921 55.1743 16.9095 60.9095 21.5212 65.5212C22.6056 66.6055 23.7526 67.5896 24.9498 68.4765C24.9718 68.3512 25.0517 68.2462 25.1864 68.2023L25.188 68.2007ZM13.4057 49.9656C13.4167 49.9483 13.4684 49.9593 13.5013 49.9546C13.5154 50.0094 13.5295 50.0674 13.5436 50.1223C13.5107 50.1238 13.4715 50.1379 13.4465 50.1285C13.3744 50.1003 13.3556 50.0377 13.4057 49.9656Z" fill="#3DB6D3"/>
<path d="M43.793 28.003L46.5556 34.9889C48.385 38.9552 50.3032 43.0395 53.57 46.0324C52.0463 47.9917 50.4347 49.914 49.1146 52.0224C48.3339 53.2688 47.5189 54.6367 47.3044 56.1109L39.2739 56.1143C39.1165 54.774 38.3676 53.4673 37.6673 52.3239C36.3146 50.1134 34.6208 48.0494 33 46.0332C35.4468 43.8344 37.1849 40.8884 38.6474 37.9617C40.2372 34.7803 41.5808 31.3762 42.7058 28.0038C42.7904 27.9678 42.8725 28.199 42.8725 28.2124V44.7785C41.5373 45.3296 40.9275 46.9044 42.0742 48.0034C43.4395 49.3109 45.6786 47.8677 45.0897 46.076C44.8744 45.4218 44.3576 45.0984 43.793 44.7785V28.003Z" fill="#3DB6D3"/>
<path d="M48.2283 58.7931C48.2367 59.0762 48.555 59.1156 48.7183 59.3484C49.1221 59.9256 48.7979 60.5814 48.1831 60.7959L38.5611 60.8017C37.8315 60.7138 37.4328 59.9666 37.8642 59.3484C37.994 59.1616 38.3626 59.0226 38.355 58.8349C37.2661 58.4128 37.6129 57.0466 38.7403 56.9611C41.6059 57.1823 45.0285 56.6227 47.8296 56.9754C48.3146 57.0365 48.777 57.2267 48.8817 57.7669C48.9629 58.1849 48.6974 58.7822 48.23 58.7931H48.2283Z" fill="#3DB6D3"/>
</svg>
