<svg width="87" height="87" viewBox="0 0 87 87" fill="none" xmlns="http://www.w3.org/2000/svg">
<path d="M60.8497 67.0237C60.6977 67.0378 60.588 66.7746 60.6742 66.6382C60.7024 66.5912 60.7337 66.5473 60.7666 66.505C58.2782 68.3823 55.5564 69.8098 52.7091 70.7861C52.753 71.1339 52.8486 71.4677 52.9426 71.8031C55.8839 70.7955 58.6982 69.3256 61.2743 67.3951C61.3558 67.2791 61.4734 67.124 61.6536 66.8874C61.3151 66.9469 61.0816 67.0049 60.8481 67.0253L60.8497 67.0237ZM59.3062 68.4544C59.1213 68.6894 58.8048 68.7364 58.5963 68.5594C58.4553 68.4371 58.4867 68.2491 58.6857 68.0313C58.9333 67.7618 59.1479 67.6881 59.2937 67.8182C59.4551 67.9639 59.4613 68.2554 59.3062 68.4544Z" fill="#3DB6D3"/>
<path d="M64.8488 22.4112C64.7062 22.5099 64.5839 22.4629 64.479 22.3893C64.1279 22.1386 63.9023 21.797 63.8663 21.341C63.86 21.2595 63.9117 21.1231 63.9791 21.0777C64.0026 21.0605 64.0371 21.0511 64.0731 21.0432C63.5795 20.5716 63.0749 20.1203 62.5594 19.6893C62.5202 19.8163 62.4372 19.9401 62.3134 20.0482C61.9937 20.3208 61.6098 20.2691 61.4766 19.9166C61.4076 19.7348 61.3779 19.5326 61.3559 19.3321C61.345 19.2365 61.3826 19.1236 61.4343 19.097C61.5142 19.0422 61.5988 19.0046 61.685 18.9811C60.9657 18.4216 60.2261 17.9014 59.4693 17.4172C59.4599 17.4955 59.4457 17.5755 59.4207 17.6601C59.3517 17.9014 59.3987 17.9829 59.5037 18.1662C59.6824 18.4765 59.7936 18.8291 59.9785 19.1362C61.3011 20.0764 62.5641 21.1388 63.7487 22.3235C65.4583 24.0331 66.9125 25.9041 68.116 27.8847C68.2241 27.8111 68.34 27.855 68.4215 27.9365C68.6127 28.1276 68.6848 28.463 68.6425 28.7842C74.8948 39.9694 73.2996 54.3733 63.838 63.8349C63.0154 64.6575 62.1551 65.4175 61.2635 66.1211C61.5596 66.0098 61.8856 66.06 62.1535 66.2966C62.2334 66.3671 62.3165 66.4376 62.3948 66.5129C62.8508 66.1352 63.299 65.7435 63.7378 65.336C63.603 65.0916 63.6923 64.8832 64.0277 64.6732C64.211 64.5588 64.4006 64.4475 64.5933 64.3614C64.7062 64.3112 64.8096 64.2579 64.9052 64.1937C65.0086 64.0871 65.112 63.9806 65.2139 63.8725C65.2405 63.827 65.2656 63.78 65.2875 63.7267C65.3737 63.5152 65.5147 63.4055 65.6793 63.3663C76.2471 51.6107 76.0403 33.5401 65.0572 22.0336C65.0493 22.1824 64.9914 22.3156 64.8472 22.4159L64.8488 22.4112ZM73.0207 38.0389C73.0222 38.3539 72.6618 38.7738 72.3735 38.7864C72.3155 38.7879 72.2622 38.7347 72.2058 38.7064C71.9864 38.4307 72.0726 38.122 72.4283 37.9606C72.5537 37.9041 72.6963 37.8681 72.8295 37.8603C72.9298 37.854 73.0222 37.9182 73.0238 38.0389H73.0207Z" fill="#3DB6D3"/>
<path d="M13.777 36.5299C13.8115 36.4798 13.893 36.4202 13.94 36.4265C14.1187 36.4516 14.2174 36.5848 14.2895 36.7321C14.3224 36.7963 14.3271 36.8543 14.3177 36.9076C14.4979 36.041 14.7172 35.1792 14.9758 34.3283C14.8943 34.4912 14.7345 34.5884 14.5543 34.6464C14.3412 34.7122 14.161 34.6448 13.9761 34.5696C13.9275 34.5492 13.8805 34.5273 13.8335 34.5053C13.5702 35.4142 13.3477 36.3325 13.1706 37.2586C13.296 37.1363 13.4307 37.0204 13.5624 36.9044C13.6313 36.7791 13.6956 36.649 13.7755 36.5315L13.777 36.5299Z" fill="#3DB6D3"/>
<path d="M13.8131 40.3361C13.9134 39.1922 14.0795 38.0546 14.313 36.9279C14.2863 37.0204 14.2111 37.0987 14.1155 37.1692C13.987 37.3134 13.8397 37.3636 13.6689 37.315L13.6658 37.3181C13.5483 37.4482 13.4167 37.5579 13.2412 37.5579C13.2035 37.5579 13.1581 37.5438 13.1252 37.5203C12.9622 38.4103 12.8384 39.3051 12.7554 40.203C13.1142 40.1638 13.4668 40.2155 13.8147 40.3377L13.8131 40.3361Z" fill="#3DB6D3"/>
<path d="M32.3179 15.366C32.357 15.4647 32.3837 15.5509 32.4041 15.6308C40.3738 12.5814 49.4279 13.1362 57.0357 17.2903C57.2003 16.9126 57.4228 16.5898 57.7628 16.3971C52.6058 13.5499 46.7907 12.3104 41.0617 12.6802C41.0022 12.9278 40.847 13.155 40.6089 13.3054C40.518 13.3618 40.4177 13.4026 40.3221 13.4511C39.9758 13.6219 39.816 13.6 39.5417 13.2694C39.5214 13.227 39.4383 13.0876 39.3819 12.9372C39.3694 12.9027 39.3631 12.8713 39.3521 12.8384C37.7867 13.028 36.2338 13.3399 34.7091 13.7708C34.8016 13.9165 34.8392 14.0889 34.8454 14.2738C34.847 14.3318 34.8125 14.4133 34.7687 14.4603C34.5665 14.6624 34.098 14.7862 33.8927 14.6875C33.6576 14.5747 33.5903 14.3506 33.5809 14.1124C33.233 14.2252 32.8898 14.3459 32.5451 14.4712C32.4887 14.653 32.3335 14.7925 32.1972 14.9351C32.133 15.1184 32.2066 15.2485 32.3179 15.366Z" fill="#3DB6D3"/>
<path d="M47.98 72.8608C48.237 72.7918 48.436 72.8373 48.6052 72.9376C49.2618 72.8169 49.9121 72.6743 50.5592 72.5098C50.6909 72.2026 50.6533 71.883 50.6031 71.5508C50.5969 71.5069 50.5953 71.4646 50.5922 71.4207C49.547 71.6918 48.4892 71.9065 47.4253 72.0616C47.4284 72.0647 47.4315 72.0679 47.4331 72.0726C47.5804 72.2888 47.5804 72.5803 47.4362 72.8279C47.2827 73.0911 47.0413 73.0535 46.8235 72.9485C46.4474 72.7009 46.3237 72.4925 46.4427 72.1885C45.0701 72.3421 43.688 72.3985 42.3074 72.3593C42.2933 72.4142 42.2808 72.4737 42.2447 72.5004C42.0191 72.6696 41.7809 72.6257 41.5474 72.5928C41.2732 72.5536 41.0742 72.4173 41.0695 72.2998C36.1068 71.9472 31.2115 70.3457 26.9038 67.4922C26.8537 67.5863 26.7581 67.638 26.5936 67.6176L26.592 67.6192C26.4917 67.6411 26.3898 67.6615 26.288 67.685C26.0592 67.7853 25.832 67.884 25.6032 67.9811C28.8453 70.2486 32.4338 71.8093 36.1523 72.6665C36.124 72.3719 36.0943 72.0788 36.0755 71.7811C36.0723 71.7341 36.1491 71.6448 36.1977 71.6307C36.2384 71.6181 36.3309 71.673 36.3419 71.7184C36.4296 72.1165 36.58 72.4737 36.7806 72.8028C40.322 73.5424 43.97 73.6458 47.5412 73.1146C47.6462 72.9877 47.8013 72.9078 47.9768 72.8608L47.98 72.8608Z" fill="#3DB6D3"/>
<path d="M15.0244 34.17C15.9928 31.0517 17.494 28.0681 19.5264 25.3588C19.2976 25.3838 19.0218 25.506 18.8808 25.2835C18.7664 25.1033 18.9137 24.8777 19.0265 24.7084C19.2083 24.4389 19.4637 24.3684 19.7395 24.4969C19.7677 24.5094 19.7896 24.5345 19.8163 24.5549C19.9212 24.4969 20.0153 24.5 20.1046 24.5611L20.1062 24.5627C20.1218 24.5564 20.1375 24.5533 20.1532 24.5502C20.8003 23.7494 21.4945 22.9738 22.2373 22.231C23.5692 20.8991 25.0015 19.7238 26.5073 18.7037C26.6876 18.5298 26.8615 18.3464 27.0589 18.1991C27.1843 18.1051 27.3128 18.0769 27.4366 18.0973C27.6027 17.9939 27.7719 17.8936 27.9396 17.7917C27.9302 17.751 27.9223 17.7087 27.9161 17.6648C27.8659 17.3514 28.0696 17.132 28.405 17.1383C28.5382 17.1398 28.698 17.1304 28.7936 17.1978C28.8218 17.2166 28.8469 17.2386 28.8735 17.2589C29.4298 16.9565 29.9924 16.6697 30.5643 16.4049C30.5643 16.4049 30.5612 16.4018 30.5596 16.4002C30.3528 16.2028 30.1428 16.0053 29.9579 15.7859C29.9062 15.7248 29.8701 15.6669 29.8404 15.6089C26.8286 17.0537 24.008 19.0218 21.5165 21.5133C18.0126 25.0171 15.543 29.1728 14.1092 33.5902C14.3161 33.6591 14.5386 33.6968 14.7392 33.7782C14.91 33.8488 15.0416 33.971 15.0181 34.1669L15.0244 34.17Z" fill="#3DB6D3"/>
<path d="M25.1879 67.2306C25.4246 67.1538 25.6549 67.1554 25.8853 67.1945C25.9855 67.1914 26.0843 67.1867 26.1846 67.1836C26.1846 67.1836 26.1845 67.1836 26.183 67.182C26.2269 67.1475 26.2739 67.1162 26.3193 67.0895C24.9168 66.1102 23.5802 64.996 22.3297 63.7456C18.9356 60.3514 16.5428 56.3321 15.1529 52.0589C15.1027 52.0244 15.0636 51.9696 15.0369 51.899C14.9946 51.7941 14.9899 51.6985 15.0165 51.6217C13.9275 48.0912 13.5154 44.3978 13.7817 40.7467C13.6877 40.7655 13.5874 40.7781 13.4793 40.7734C13.1738 40.7624 12.8823 40.9379 12.6927 41.2623C12.688 41.2701 12.6817 41.2795 12.6754 41.2889C12.5642 43.2429 12.6394 45.2048 12.9027 47.1479C13.0092 47.1949 13.0923 47.278 13.1675 47.3751C13.332 47.5929 13.3399 47.9298 13.202 48.1304C13.1565 48.1602 13.1111 48.2025 13.0656 48.2229C14.092 54.2041 16.9095 59.9393 21.5212 64.551C22.6055 65.6354 23.7526 66.6194 24.9498 67.5064C24.9717 67.381 25.0516 67.276 25.1864 67.2321L25.1879 67.2306ZM13.4057 48.9954C13.4166 48.9782 13.4683 48.9891 13.5013 48.9844C13.5154 49.0393 13.5295 49.0973 13.5436 49.1521C13.5107 49.1537 13.4715 49.1678 13.4464 49.1584C13.3743 49.1302 13.3555 49.0675 13.4057 48.9954Z" fill="#3DB6D3"/>
<path d="M43.5149 28.0298V31.9424H51.2912C52.0485 31.9424 55.5287 29.5075 56.4986 29.2351C57.2137 29.0355 58.3194 29.0373 58.3267 30.0001C58.3396 31.5692 55.6405 32.7017 56.4051 35.3045L61.5319 43.4972C61.9096 43.8815 62.7072 43.4487 62.8814 43.986C63.2664 45.1708 62.643 47.559 62.0269 48.6542C58.0205 55.7759 46.5275 52.3672 47.5635 43.9879L47.8385 43.708C48.5371 43.4729 49.6923 44.0159 50.2901 43.4095L55.4975 35.4762C55.1051 33.4891 56.3574 31.8883 57.4521 30.377C57.5474 30.2445 57.5016 30.0561 57.3568 29.9833C56.7645 29.681 56.1007 30.3005 55.5965 30.5561C55.0648 30.8248 51.7001 32.6924 51.4727 32.6924H43.5149V51.3223H45.7097V54.4904H47.5397V58.0298H37.4769V54.4904H39.3068V51.3223H41.1367V32.6868H36.472C35.3517 32.6868 32.7645 30.5449 31.679 29.9292C28.6169 28.1865 28.9231 30.0467 29.9994 32.3864C31.7505 36.1908 34.754 39.6649 36.8479 43.2976C37.1743 43.8778 37.8399 43.6241 38.3753 43.6987C39.1033 46.9414 36.9726 50.5238 34.0535 51.8354C28.6261 54.274 22.3882 50.1487 23.0483 43.9842L23.3233 43.7043L25.3238 43.5047L30.6797 35.353C30.0489 33.7858 27.3994 30.3098 28.9616 28.7649C30.4597 27.2816 33.9178 30.7595 35.3389 31.4162C35.5314 31.5058 36.5821 31.9405 36.6536 31.9405H41.1367V28.0298H43.5149ZM36.197 43.68L31.2591 36.4147L31.624 43.68H36.197ZM55.7725 43.68L55.4975 36.7841L51.0143 43.68H55.7707H55.7725ZM60.7122 43.68L56.4124 36.7841L56.5041 43.68H60.7122ZM30.8906 43.68L30.522 37.1591L26.1324 43.68H30.8887H30.8906Z" fill="#3DB6D3"/>
</svg>
